SplineFontDB: 3.0
FontName: Share-Italic
FullName: Share Italic
FamilyName: Share
Weight: Book
Copyright: Copyright (c) 2005-2011, Carrois Type Design (carrois.com), with Reserved Font Name "Share"
Version: 1.001
ItalicAngle: 0
UnderlinePosition: -61
UnderlineWidth: 75
Ascent: 800
Descent: 200
sfntRevision: 0x00010000
LayerCount: 2
Layer: 0 1 "Back"  1
Layer: 1 1 "Fore"  0
XUID: [1021 888 1922029020 11509526]
FSType: 0
OS2Version: 2
OS2_WeightWidthSlopeOnly: 0
OS2_UseTypoMetrics: 1
CreationTime: 1130492178
ModificationTime: 1327419338
PfmFamily: 17
TTFWeight: 400
TTFWidth: 5
LineGap: 0
VLineGap: 0
Panose: 2 0 5 6 4 0 0 2 0 4
OS2TypoAscent: 85
OS2TypoAOffset: 1
OS2TypoDescent: -42
OS2TypoDOffset: 1
OS2TypoLinegap: 0
OS2WinAscent: 30
OS2WinAOffset: 1
OS2WinDescent: 2
OS2WinDOffset: 1
HheadAscent: 30
HheadAOffset: 1
HheadDescent: -2
HheadDOffset: 1
OS2SubXSize: 700
OS2SubYSize: 650
OS2SubXOff: 0
OS2SubYOff: 140
OS2SupXSize: 700
OS2SupYSize: 650
OS2SupXOff: 0
OS2SupYOff: 477
OS2StrikeYSize: 50
OS2StrikeYPos: 250
OS2Vendor: 'pyrs'
OS2CodePages: 20000001.00000000
OS2UnicodeRanges: 800000af.4000204a.00000000.00000000
Lookup: 1 0 0 "'aalt' Access All Alternates in Latin lookup 0"  {"'aalt' Access All Alternates in Latin lookup 0 subtable"  } ['aalt' ('latn' <'dflt' > ) ]
Lookup: 4 0 0 "'frac' Diagonal Fractions in Latin lookup 1"  {"'frac' Diagonal Fractions in Latin lookup 1 subtable"  } ['frac' ('latn' <'dflt' > ) ]
Lookup: 1 0 0 "'numr' Numerators in Latin lookup 2"  {"'numr' Numerators in Latin lookup 2 subtable"  } ['numr' ('latn' <'dflt' > ) ]
Lookup: 4 0 1 "'liga' Standard Ligatures in Latin lookup 3"  {"'liga' Standard Ligatures in Latin lookup 3 subtable"  } ['liga' ('latn' <'dflt' > ) ]
Lookup: 1 0 0 "'ordn' Ordinals in Latin lookup 4"  {"'ordn' Ordinals in Latin lookup 4 subtable"  } ['ordn' ('latn' <'dflt' > ) ]
Lookup: 1 0 0 "'sups' Superscript in Latin lookup 5"  {"'sups' Superscript in Latin lookup 5 subtable" ("superior" ) } ['sups' ('latn' <'dflt' > ) ]

StartChar: .notdef
Encoding: 65536 -1 0
Width: 502
Flags: W
LayerCount: 2
Fore
SplineSet
116 700 m 1,0,-1
 488 700 l 1,1,-1
 427 0 l 1,2,-1
 55 0 l 1,3,-1
 116 700 l 1,0,-1
358 72 m 1,4,-1
 406 628 l 1,5,-1
 184 628 l 1,6,-1
 136 72 l 1,7,-1
 358 72 l 1,4,-1
EndSplineSet
EndChar

StartChar: numbersign
Encoding: 35 35 4
Width: 470
Flags: W
LayerCount: 2
Fore
SplineSet
304 455 m 1,0,-1
 224 455 l 1,1,-1
 207 255 l 1,2,-1
 287 255 l 1,3,-1
 304 455 l 1,0,-1
360 180 m 1,4,-1
 345 0 l 1,5,-1
 265 0 l 1,6,-1
 280 180 l 1,7,-1
 200 180 l 1,8,-1
 185 0 l 1,9,-1
 105 0 l 1,10,-1
 120 180 l 1,11,-1
 50 180 l 1,12,-1
 57 255 l 1,13,-1
 127 255 l 1,14,-1
 144 455 l 1,15,-1
 74 455 l 1,16,-1
 81 530 l 1,17,-1
 151 530 l 1,18,-1
 166 700 l 1,19,-1
 246 700 l 1,20,-1
 231 530 l 1,21,-1
 311 530 l 1,22,-1
 326 700 l 1,23,-1
 406 700 l 1,24,-1
 391 530 l 1,25,-1
 461 530 l 1,26,-1
 454 455 l 1,27,-1
 384 455 l 1,28,-1
 367 255 l 1,29,-1
 437 255 l 1,30,-1
 430 180 l 1,31,-1
 360 180 l 1,4,-1
EndSplineSet
EndChar

StartChar: dollar
Encoding: 36 36 5
Width: 470
Flags: W
LayerCount: 2
Fore
SplineSet
170 -130 m 1,0,-1
 181 -5 l 1,1,2
 131 -4 131 -4 84 10 c 1,3,-1
 91 83 l 1,4,5
 114 77 114 77 142 72.5 c 128,-1,6
 170 68 170 68 205 68 c 0,7,8
 262 68 262 68 284 104.5 c 128,-1,9
 306 141 306 141 306 213 c 0,10,11
 306 262 306 262 290 283 c 128,-1,12
 274 304 274 304 245 310 c 0,13,14
 183 323 183 323 148.5 365.5 c 128,-1,15
 114 408 114 408 114 472 c 0,16,17
 114 519 114 519 123 552.5 c 128,-1,18
 132 586 132 586 148.5 609.5 c 128,-1,19
 165 633 165 633 188.5 646.5 c 128,-1,20
 212 660 212 660 240 667 c 1,21,-1
 250 780 l 1,22,-1
 335 780 l 1,23,-1
 326 675 l 1,24,25
 352 674 352 674 372 669.5 c 128,-1,26
 392 665 392 665 412 660 c 1,27,-1
 406 587 l 1,28,29
 381 593 381 593 354 597.5 c 128,-1,30
 327 602 327 602 301 602 c 0,31,32
 280 602 280 602 262 596 c 128,-1,33
 244 590 244 590 231 576 c 128,-1,34
 218 562 218 562 211 538 c 128,-1,35
 204 514 204 514 204 478 c 0,36,37
 204 441 204 441 217.5 421 c 128,-1,38
 231 401 231 401 265 393 c 0,39,40
 329 379 329 379 362.5 341 c 128,-1,41
 396 303 396 303 396 228 c 0,42,43
 396 220 396 220 395.5 211.5 c 128,-1,44
 395 203 395 203 394 194 c 0,45,46
 390 146 390 146 379.5 112 c 128,-1,47
 369 78 369 78 353 55.5 c 128,-1,48
 337 33 337 33 315 20.5 c 128,-1,49
 293 8 293 8 266 2 c 1,50,-1
 255 -130 l 1,51,-1
 170 -130 l 1,0,-1
EndSplineSet
EndChar

StartChar: percent
Encoding: 37 37 6
Width: 856
Flags: W
LayerCount: 2
Fore
SplineSet
323 496 m 0,0,1
 326 526 326 526 326 551 c 0,2,3
 326 602 326 602 312.5 625 c 128,-1,4
 299 648 299 648 268 648 c 0,5,6
 226 648 226 648 205 599.5 c 128,-1,7
 184 551 184 551 184 438 c 0,8,9
 184 388 184 388 197 366 c 128,-1,10
 210 344 210 344 241 344 c 0,11,12
 279 344 279 344 297.5 380 c 128,-1,13
 316 416 316 416 323 496 c 0,0,1
392 500 m 0,14,15
 388 453 388 453 380 413.5 c 128,-1,16
 372 374 372 374 355 345.5 c 128,-1,17
 338 317 338 317 309.5 301 c 128,-1,18
 281 285 281 285 236 285 c 0,19,20
 201 285 201 285 177.5 296 c 128,-1,21
 154 307 154 307 140 327.5 c 128,-1,22
 126 348 126 348 120.5 376.5 c 128,-1,23
 115 405 115 405 115 440 c 0,24,25
 115 469 115 469 118 500 c 0,26,27
 122 547 122 547 130 585 c 128,-1,28
 138 623 138 623 154.5 650 c 128,-1,29
 171 677 171 677 199.5 692 c 128,-1,30
 228 707 228 707 273 707 c 0,31,32
 309 707 309 707 332.5 696.5 c 128,-1,33
 356 686 356 686 370 667 c 128,-1,34
 384 648 384 648 389.5 620.5 c 128,-1,35
 395 593 395 593 395 559 c 0,36,37
 395 532 395 532 392 500 c 0,14,15
335 0 m 1,38,-1
 257 0 l 1,39,-1
 563 700 l 1,40,-1
 641 700 l 1,41,-1
 335 0 l 1,38,-1
710 204 m 0,42,43
 713 234 713 234 713 259 c 0,44,45
 713 310 713 310 699.5 333 c 128,-1,46
 686 356 686 356 655 356 c 0,47,48
 613 356 613 356 592 307.5 c 128,-1,49
 571 259 571 259 571 146 c 0,50,51
 571 96 571 96 584 74 c 128,-1,52
 597 52 597 52 628 52 c 0,53,54
 666 52 666 52 684.5 88 c 128,-1,55
 703 124 703 124 710 204 c 0,42,43
779 208 m 0,56,57
 775 161 775 161 767 121.5 c 128,-1,58
 759 82 759 82 742 53.5 c 128,-1,59
 725 25 725 25 696.5 9 c 128,-1,60
 668 -7 668 -7 623 -7 c 0,61,62
 588 -7 588 -7 564.5 4 c 128,-1,63
 541 15 541 15 527 35.5 c 128,-1,64
 513 56 513 56 507.5 84.5 c 128,-1,65
 502 113 502 113 502 148 c 0,66,67
 502 177 502 177 505 208 c 0,68,69
 509 255 509 255 517 293 c 128,-1,70
 525 331 525 331 541.5 358 c 128,-1,71
 558 385 558 385 586.5 400 c 128,-1,72
 615 415 615 415 660 415 c 0,73,74
 696 415 696 415 719.5 404.5 c 128,-1,75
 743 394 743 394 757 375 c 128,-1,76
 771 356 771 356 776.5 328.5 c 128,-1,77
 782 301 782 301 782 267 c 0,78,79
 782 240 782 240 779 208 c 0,56,57
EndSplineSet
Ligature2: "'frac' Diagonal Fractions in Latin lookup 1 subtable" zero fraction zero
Ligature2: "'frac' Diagonal Fractions in Latin lookup 1 subtable" zero slash zero
EndChar

StartChar: ampersand
Encoding: 38 38 7
Width: 507
Flags: W
LayerCount: 2
Fore
SplineSet
70 158 m 0,0,1
 70 202 70 202 75 243 c 128,-1,2
 80 284 80 284 92 318 c 128,-1,3
 104 352 104 352 123 375.5 c 128,-1,4
 142 399 142 399 170 407 c 1,5,6
 140 429 140 429 127 460.5 c 128,-1,7
 114 492 114 492 114 521 c 0,8,9
 114 582 114 582 130.5 618.5 c 128,-1,10
 147 655 147 655 174 674.5 c 128,-1,11
 201 694 201 694 236.5 700.5 c 128,-1,12
 272 707 272 707 311 707 c 0,13,14
 343 707 343 707 372 701 c 128,-1,15
 401 695 401 695 410 692 c 1,16,-1
 403 619 l 1,17,18
 399 620 399 620 387 622.5 c 128,-1,19
 375 625 375 625 360 627.5 c 128,-1,20
 345 630 345 630 329.5 632 c 128,-1,21
 314 634 314 634 303 634 c 0,22,23
 283 634 283 634 264.5 630.5 c 128,-1,24
 246 627 246 627 231.5 615.5 c 128,-1,25
 217 604 217 604 208 582.5 c 128,-1,26
 199 561 199 561 199 525 c 256,27,28
 199 489 199 489 215.5 464.5 c 128,-1,29
 232 440 232 440 275 440 c 2,30,-1
 510 440 l 1,31,-1
 504 367 l 1,32,-1
 420 367 l 1,33,-1
 389 5 l 1,34,35
 350 -1 350 -1 311 -4 c 128,-1,36
 272 -7 272 -7 225 -7 c 0,37,38
 151 -7 151 -7 110.5 31 c 128,-1,39
 70 69 70 69 70 158 c 0,0,1
232 66 m 0,40,41
 263 66 263 66 284 69 c 128,-1,42
 305 72 305 72 316 74 c 1,43,-1
 341 367 l 1,44,-1
 254 367 l 2,45,46
 227 367 227 367 208.5 349.5 c 128,-1,47
 190 332 190 332 178.5 303.5 c 128,-1,48
 167 275 167 275 161.5 239.5 c 128,-1,49
 156 204 156 204 156 167 c 0,50,51
 156 119 156 119 176.5 92.5 c 128,-1,52
 197 66 197 66 232 66 c 0,40,41
EndSplineSet
EndChar

StartChar: quoteright
Encoding: 8217 8217 8
Width: 205
Flags: W
LayerCount: 2
Fore
SplineSet
119 453 m 1,0,-1
 54 453 l 1,1,-1
 98 610 l 1,2,-1
 106 700 l 1,3,-1
 201 700 l 1,4,-1
 193 610 l 1,5,-1
 119 453 l 1,0,-1
EndSplineSet
EndChar

StartChar: parenleft
Encoding: 40 40 9
Width: 320
Flags: W
LayerCount: 2
Fore
SplineSet
71 248 m 0,0,1
 71 328 71 328 80.5 406.5 c 128,-1,2
 90 485 90 485 110 558.5 c 128,-1,3
 130 632 130 632 161.5 698.5 c 128,-1,4
 193 765 193 765 238 820 c 1,5,-1
 321 820 l 1,6,7
 235 699 235 699 195 552 c 128,-1,8
 155 405 155 405 155 241 c 0,9,10
 155 137 155 137 175.5 51 c 128,-1,11
 196 -35 196 -35 239 -120 c 1,12,-1
 156 -120 l 1,13,14
 109 -39 109 -39 90 55.5 c 128,-1,15
 71 150 71 150 71 248 c 0,0,1
EndSplineSet
EndChar

StartChar: parenright
Encoding: 41 41 10
Width: 320
Flags: W
LayerCount: 2
Fore
SplineSet
290 452 m 0,0,1
 290 280 290 280 250.5 134.5 c 128,-1,2
 211 -11 211 -11 122 -120 c 1,3,-1
 39 -120 l 1,4,5
 125 1 125 1 165 148 c 128,-1,6
 205 295 205 295 205 459 c 0,7,8
 205 563 205 563 184.5 649 c 128,-1,9
 164 735 164 735 121 820 c 1,10,-1
 204 820 l 1,11,12
 252 739 252 739 271 644 c 128,-1,13
 290 549 290 549 290 452 c 0,0,1
EndSplineSet
EndChar

StartChar: asterisk
Encoding: 42 42 11
Width: 482
Flags: W
LayerCount: 2
Fore
SplineSet
314 500 m 1,0,-1
 417 377 l 1,1,-1
 346 327 l 1,2,-1
 260 469 l 1,3,-1
 172 326 l 1,4,-1
 103 378 l 1,5,-1
 206 500 l 1,6,-1
 65 530 l 1,7,-1
 92 610 l 1,8,-1
 229 555 l 1,9,-1
 216 705 l 1,10,-1
 306 705 l 1,11,-1
 293 555 l 1,12,-1
 432 608 l 1,13,-1
 457 529 l 1,14,-1
 314 500 l 1,0,-1
EndSplineSet
EndChar

StartChar: plus
Encoding: 43 43 12
Width: 550
Flags: W
LayerCount: 2
Fore
SplineSet
329 275 m 1,0,-1
 315 118 l 1,1,-1
 235 118 l 1,2,-1
 249 275 l 1,3,-1
 98 275 l 1,4,-1
 104 350 l 1,5,-1
 255 350 l 1,6,-1
 269 508 l 1,7,-1
 349 508 l 1,8,-1
 335 350 l 1,9,-1
 485 350 l 1,10,-1
 479 275 l 1,11,-1
 329 275 l 1,0,-1
EndSplineSet
EndChar

StartChar: comma
Encoding: 44 44 13
Width: 230
Flags: W
LayerCount: 2
Fore
SplineSet
70 -140 m 1,0,-1
 2 -140 l 1,1,-1
 55 0 l 1,2,-1
 63 100 l 1,3,-1
 163 100 l 1,4,-1
 155 0 l 1,5,-1
 70 -140 l 1,0,-1
EndSplineSet
EndChar

StartChar: hyphen
Encoding: 45 45 14
Width: 495
Flags: W
LayerCount: 2
Fore
SplineSet
99 275 m 1,0,-1
 105 350 l 1,1,-1
 430 350 l 1,2,-1
 424 275 l 1,3,-1
 99 275 l 1,0,-1
EndSplineSet
EndChar

StartChar: period
Encoding: 46 46 15
Width: 230
Flags: W
LayerCount: 2
Fore
SplineSet
55 0 m 1,0,-1
 63 100 l 1,1,-1
 163 100 l 1,2,-1
 155 0 l 1,3,-1
 55 0 l 1,0,-1
EndSplineSet
EndChar

StartChar: slash
Encoding: 47 47 16
Width: 325
Flags: W
LayerCount: 2
Fore
SplineSet
64 -110 m 1,0,-1
 -14 -110 l 1,1,-1
 301 810 l 1,2,-1
 380 810 l 1,3,-1
 64 -110 l 1,0,-1
EndSplineSet
Substitution2: "'numr' Numerators in Latin lookup 2 subtable" fraction
Substitution2: "'aalt' Access All Alternates in Latin lookup 0 subtable" fraction
EndChar

StartChar: zero
Encoding: 48 48 17
Width: 470
Flags: W
LayerCount: 2
Fore
SplineSet
357 505 m 0,0,1
 357 542 357 542 353 566.5 c 128,-1,2
 349 591 349 591 339.5 606 c 128,-1,3
 330 621 330 621 315.5 627.5 c 128,-1,4
 301 634 301 634 280 634 c 0,5,6
 251 634 251 634 231.5 621 c 128,-1,7
 212 608 212 608 199 576 c 128,-1,8
 186 544 186 544 178 490 c 128,-1,9
 170 436 170 436 162 353 c 0,10,11
 161 345 161 345 160 322 c 128,-1,12
 159 299 159 299 157.5 274 c 128,-1,13
 156 249 156 249 155 227.5 c 128,-1,14
 154 206 154 206 154 201 c 0,15,16
 154 127 154 127 170.5 96.5 c 128,-1,17
 187 66 187 66 230 66 c 0,18,19
 260 66 260 66 280 80.5 c 128,-1,20
 300 95 300 95 312.5 129 c 128,-1,21
 325 163 325 163 333 217.5 c 128,-1,22
 341 272 341 272 348 353 c 0,23,24
 357 448 357 448 357 505 c 0,0,1
441 491 m 0,25,26
 441 462 441 462 439.5 429 c 128,-1,27
 438 396 438 396 434 358 c 0,28,29
 426 266 426 266 415 197.5 c 128,-1,30
 404 129 404 129 381.5 83.5 c 128,-1,31
 359 38 359 38 321.5 15.5 c 128,-1,32
 284 -7 284 -7 224 -7 c 0,33,34
 180 -7 180 -7 150.5 6.5 c 128,-1,35
 121 20 121 20 103 48 c 128,-1,36
 85 76 85 76 77.5 117.5 c 128,-1,37
 70 159 70 159 70 215 c 1,38,39
 71 247 71 247 73 282 c 128,-1,40
 75 317 75 317 78 358 c 0,41,42
 86 446 86 446 97 511.5 c 128,-1,43
 108 577 108 577 130.5 620.5 c 128,-1,44
 153 664 153 664 190 685.5 c 128,-1,45
 227 707 227 707 286 707 c 0,46,47
 331 707 331 707 360.5 693.5 c 128,-1,48
 390 680 390 680 408 653 c 128,-1,49
 426 626 426 626 433.5 585.5 c 128,-1,50
 441 545 441 545 441 491 c 0,25,26
EndSplineSet
EndChar

StartChar: one
Encoding: 49 49 18
Width: 470
Flags: W
LayerCount: 2
Fore
SplineSet
80 0 m 1,0,-1
 86 75 l 1,1,-1
 207 75 l 1,2,-1
 255 620 l 1,3,-1
 119 569 l 1,4,-1
 126 650 l 1,5,-1
 252 700 l 1,6,-1
 347 700 l 1,7,-1
 292 75 l 1,8,-1
 391 75 l 1,9,-1
 385 0 l 1,10,-1
 80 0 l 1,0,-1
EndSplineSet
Substitution2: "'sups' Superscript in Latin lookup 5 subtable" onesuperior
Substitution2: "'numr' Numerators in Latin lookup 2 subtable" onesuperior
Substitution2: "'aalt' Access All Alternates in Latin lookup 0 subtable" onesuperior
EndChar

StartChar: two
Encoding: 50 50 19
Width: 470
Flags: W
LayerCount: 2
Fore
SplineSet
412 552 m 0,0,1
 412 505 412 505 406 471.5 c 128,-1,2
 400 438 400 438 387.5 408.5 c 128,-1,3
 375 379 375 379 355.5 350.5 c 128,-1,4
 336 322 336 322 309 285 c 2,5,-1
 152 74 l 1,6,-1
 381 74 l 1,7,-1
 375 0 l 1,8,-1
 55 0 l 1,9,-1
 62 88 l 1,10,-1
 232 316 l 2,11,12
 257 350 257 350 275 374 c 128,-1,13
 293 398 293 398 304.5 422 c 128,-1,14
 316 446 316 446 321.5 475 c 128,-1,15
 327 504 327 504 327 548 c 0,16,17
 327 586 327 586 310 610 c 128,-1,18
 293 634 293 634 250 634 c 0,19,20
 218 634 218 634 184 628 c 128,-1,21
 150 622 150 622 126 617 c 1,22,-1
 133 691 l 1,23,24
 137 692 137 692 149.5 694.5 c 128,-1,25
 162 697 162 697 179 700 c 128,-1,26
 196 703 196 703 216 705 c 128,-1,27
 236 707 236 707 256 707 c 0,28,29
 412 707 412 707 412 552 c 0,0,1
EndSplineSet
Substitution2: "'sups' Superscript in Latin lookup 5 subtable" twosuperior
Substitution2: "'numr' Numerators in Latin lookup 2 subtable" twosuperior
Substitution2: "'aalt' Access All Alternates in Latin lookup 0 subtable" twosuperior
EndChar

StartChar: three
Encoding: 51 51 20
Width: 470
Flags: W
LayerCount: 2
Fore
SplineSet
381 229 m 0,0,1
 381 105 381 105 334 49 c 128,-1,2
 287 -7 287 -7 193 -7 c 0,3,4
 175 -7 175 -7 153.5 -4.5 c 128,-1,5
 132 -2 132 -2 113 1 c 128,-1,6
 94 4 94 4 80 6.5 c 128,-1,7
 66 9 66 9 63 10 c 1,8,-1
 70 83 l 1,9,10
 79 81 79 81 93.5 78 c 128,-1,11
 108 75 108 75 126 72.5 c 128,-1,12
 144 70 144 70 163 68 c 128,-1,13
 182 66 182 66 198 66 c 0,14,15
 246 66 246 66 270.5 110 c 128,-1,16
 295 154 295 154 295 232 c 0,17,18
 295 280 295 280 279.5 303.5 c 128,-1,19
 264 327 264 327 219 327 c 2,20,-1
 137 327 l 1,21,-1
 143 400 l 1,22,-1
 215 400 l 2,23,24
 249 400 249 400 268.5 417 c 128,-1,25
 288 434 288 434 297.5 456.5 c 128,-1,26
 307 479 307 479 309.5 502.5 c 128,-1,27
 312 526 312 526 312 539 c 0,28,29
 312 590 312 590 297.5 612 c 128,-1,30
 283 634 283 634 246 634 c 0,31,32
 213 634 213 634 178.5 628 c 128,-1,33
 144 622 144 622 121 617 c 1,34,-1
 128 690 l 1,35,36
 132 691 132 691 144.5 693.5 c 128,-1,37
 157 696 157 696 174 699 c 128,-1,38
 191 702 191 702 211 704.5 c 128,-1,39
 231 707 231 707 250 707 c 0,40,41
 283 707 283 707 310 699.5 c 128,-1,42
 337 692 337 692 356.5 674.5 c 128,-1,43
 376 657 376 657 386.5 627.5 c 128,-1,44
 397 598 397 598 397 554 c 0,45,46
 397 476 397 476 375.5 430 c 128,-1,47
 354 384 354 384 306 367 c 1,48,49
 326 366 326 366 340 354.5 c 128,-1,50
 354 343 354 343 363 324.5 c 128,-1,51
 372 306 372 306 376.5 281.5 c 128,-1,52
 381 257 381 257 381 229 c 0,0,1
EndSplineSet
Substitution2: "'sups' Superscript in Latin lookup 5 subtable" threesuperior
Substitution2: "'numr' Numerators in Latin lookup 2 subtable" threesuperior
Substitution2: "'aalt' Access All Alternates in Latin lookup 0 subtable" threesuperior
EndChar

StartChar: four
Encoding: 52 52 21
Width: 470
Flags: W
LayerCount: 2
Fore
SplineSet
355 156 m 1,0,-1
 342 0 l 1,1,-1
 257 0 l 1,2,-1
 270 156 l 1,3,-1
 72 156 l 1,4,-1
 80 242 l 1,5,-1
 219 700 l 1,6,-1
 300 700 l 1,7,-1
 164 229 l 1,8,-1
 277 229 l 1,9,-1
 296 457 l 1,10,-1
 381 457 l 1,11,-1
 362 229 l 1,12,-1
 432 229 l 1,13,-1
 425 156 l 1,14,-1
 355 156 l 1,0,-1
EndSplineSet
EndChar

StartChar: five
Encoding: 53 53 22
Width: 470
Flags: W
LayerCount: 2
Fore
SplineSet
224 627 m 1,0,-1
 206 421 l 1,1,-1
 226 421 l 2,2,3
 273 421 273 421 305 410.5 c 128,-1,4
 337 400 337 400 356 380 c 128,-1,5
 375 360 375 360 383 330 c 128,-1,6
 391 300 391 300 391 261 c 0,7,8
 391 128 391 128 348 60.5 c 128,-1,9
 305 -7 305 -7 199 -7 c 0,10,11
 161 -7 161 -7 129.5 -1 c 128,-1,12
 98 5 98 5 75 10 c 1,13,-1
 82 83 l 1,14,15
 95 80 95 80 131 73 c 128,-1,16
 167 66 167 66 209 66 c 0,17,18
 261 66 261 66 282.5 116 c 128,-1,19
 304 166 304 166 304 251 c 0,20,21
 304 307 304 307 285.5 327.5 c 128,-1,22
 267 348 267 348 225 348 c 2,23,-1
 115 348 l 1,24,-1
 146 700 l 1,25,-1
 411 700 l 1,26,-1
 404 627 l 1,27,-1
 224 627 l 1,0,-1
EndSplineSet
EndChar

StartChar: six
Encoding: 54 54 23
Width: 470
Flags: W
LayerCount: 2
Fore
SplineSet
424 292 m 0,0,1
 424 221 424 221 413.5 165.5 c 128,-1,2
 403 110 403 110 379.5 71.5 c 128,-1,3
 356 33 356 33 317.5 13 c 128,-1,4
 279 -7 279 -7 223 -7 c 0,5,6
 188 -7 188 -7 161 1.5 c 128,-1,7
 134 10 134 10 115.5 35 c 128,-1,8
 97 60 97 60 87.5 105 c 128,-1,9
 78 150 78 150 78 222 c 0,10,11
 78 255 78 255 80 294 c 128,-1,12
 82 333 82 333 86 380 c 0,13,14
 95 483 95 483 112.5 547 c 128,-1,15
 130 611 130 611 158.5 646.5 c 128,-1,16
 187 682 187 682 227 694.5 c 128,-1,17
 267 707 267 707 322 707 c 0,18,19
 334 707 334 707 347.5 705.5 c 128,-1,20
 361 704 361 704 374.5 701.5 c 128,-1,21
 388 699 388 699 399.5 696.5 c 128,-1,22
 411 694 411 694 417 692 c 1,23,-1
 411 621 l 1,24,25
 391 626 391 626 364.5 631.5 c 128,-1,26
 338 637 338 637 306 637 c 0,27,28
 277 637 277 637 256 629.5 c 128,-1,29
 235 622 235 622 219 598 c 128,-1,30
 203 574 203 574 192.5 530 c 128,-1,31
 182 486 182 486 174 413 c 1,32,33
 191 424 191 424 217.5 434 c 128,-1,34
 244 444 244 444 282 444 c 0,35,36
 325 444 325 444 352.5 433.5 c 128,-1,37
 380 423 380 423 396 403.5 c 128,-1,38
 412 384 412 384 418 356 c 128,-1,39
 424 328 424 328 424 292 c 0,0,1
269 372 m 0,40,41
 231 372 231 372 204.5 361 c 128,-1,42
 178 350 178 350 167 345 c 1,43,44
 163 299 163 299 161.5 263.5 c 128,-1,45
 160 228 160 228 160 200 c 0,46,47
 160 156 160 156 164.5 129.5 c 128,-1,48
 169 103 169 103 178 88.5 c 128,-1,49
 187 74 187 74 200 69.5 c 128,-1,50
 213 65 213 65 229 65 c 0,51,52
 289 65 289 65 313.5 122.5 c 128,-1,53
 338 180 338 180 338 284 c 0,54,55
 338 330 338 330 324 351 c 128,-1,56
 310 372 310 372 269 372 c 0,40,41
EndSplineSet
EndChar

StartChar: seven
Encoding: 55 55 24
Width: 470
Flags: W
LayerCount: 2
Fore
SplineSet
194 0 m 1,0,-1
 105 0 l 1,1,-1
 326 625 l 1,2,-1
 104 625 l 1,3,-1
 111 700 l 1,4,-1
 416 700 l 1,5,-1
 407 603 l 1,6,-1
 194 0 l 1,0,-1
EndSplineSet
EndChar

StartChar: eight
Encoding: 56 56 25
Width: 470
Flags: W
LayerCount: 2
Fore
SplineSet
346 233 m 0,0,1
 346 260 346 260 340.5 279.5 c 128,-1,2
 335 299 335 299 321 311.5 c 128,-1,3
 307 324 307 324 282.5 329.5 c 128,-1,4
 258 335 258 335 220 335 c 1,5,6
 198 324 198 324 182.5 311 c 128,-1,7
 167 298 167 298 157 278.5 c 128,-1,8
 147 259 147 259 142 231 c 128,-1,9
 137 203 137 203 137 161 c 0,10,11
 137 106 137 106 160 85.5 c 128,-1,12
 183 65 183 65 230 65 c 0,13,14
 266 65 266 65 289 76.5 c 128,-1,15
 312 88 312 88 324.5 110 c 128,-1,16
 337 132 337 132 341.5 163 c 128,-1,17
 346 194 346 194 346 233 c 0,0,1
362 548 m 0,18,19
 362 592 362 592 343.5 613.5 c 128,-1,20
 325 635 325 635 280 635 c 0,21,22
 223 635 223 635 200.5 598.5 c 128,-1,23
 178 562 178 562 178 490 c 0,24,25
 178 439 178 439 201.5 417.5 c 128,-1,26
 225 396 225 396 288 396 c 1,27,28
 310 404 310 404 324 420 c 128,-1,29
 338 436 338 436 346.5 457 c 128,-1,30
 355 478 355 478 358.5 501.5 c 128,-1,31
 362 525 362 525 362 548 c 0,18,19
431 230 m 0,32,33
 431 173 431 173 420 129 c 128,-1,34
 409 85 409 85 384.5 54.5 c 128,-1,35
 360 24 360 24 320.5 8.5 c 128,-1,36
 281 -7 281 -7 224 -7 c 0,37,38
 135 -7 135 -7 93.5 34 c 128,-1,39
 52 75 52 75 52 161 c 0,40,41
 52 213 52 213 61 247.5 c 128,-1,42
 70 282 70 282 84.5 305 c 128,-1,43
 99 328 99 328 117.5 341 c 128,-1,44
 136 354 136 354 155 362 c 1,45,46
 124 378 124 378 109 414.5 c 128,-1,47
 94 451 94 451 94 494 c 0,48,49
 94 556 94 556 108.5 597 c 128,-1,50
 123 638 123 638 148.5 662.5 c 128,-1,51
 174 687 174 687 209.5 697 c 128,-1,52
 245 707 245 707 286 707 c 0,53,54
 319 707 319 707 348 699.5 c 128,-1,55
 377 692 377 692 398.5 673.5 c 128,-1,56
 420 655 420 655 432.5 624.5 c 128,-1,57
 445 594 445 594 445 549 c 0,58,59
 445 517 445 517 441.5 490 c 128,-1,60
 438 463 438 463 428 440.5 c 128,-1,61
 418 418 418 418 400 400.5 c 128,-1,62
 382 383 382 383 353 370 c 1,63,64
 395 360 395 360 413 320.5 c 128,-1,65
 431 281 431 281 431 230 c 0,32,33
EndSplineSet
EndChar

StartChar: nine
Encoding: 57 57 26
Width: 470
Flags: W
LayerCount: 2
Fore
SplineSet
84 421 m 0,0,1
 84 557 84 557 131 632 c 128,-1,2
 178 707 178 707 280 707 c 0,3,4
 319 707 319 707 347 699 c 128,-1,5
 375 691 375 691 393.5 667.5 c 128,-1,6
 412 644 412 644 421 601.5 c 128,-1,7
 430 559 430 559 430 491 c 0,8,9
 430 422 430 422 421 320 c 0,10,11
 412 217 412 217 396 153 c 128,-1,12
 380 89 380 89 353.5 53.5 c 128,-1,13
 327 18 327 18 288 5.5 c 128,-1,14
 249 -7 249 -7 195 -7 c 0,15,16
 183 -7 183 -7 169.5 -5.5 c 128,-1,17
 156 -4 156 -4 142.5 -1.5 c 128,-1,18
 129 1 129 1 117.5 3.5 c 128,-1,19
 106 6 106 6 100 8 c 1,20,-1
 107 81 l 1,21,22
 126 76 126 76 152.5 70.5 c 128,-1,23
 179 65 179 65 211 65 c 0,24,25
 237 65 237 65 256.5 72.5 c 128,-1,26
 276 80 276 80 290.5 103 c 128,-1,27
 305 126 305 126 315 170 c 128,-1,28
 325 214 325 214 333 286 c 1,29,30
 316 275 316 275 289 265.5 c 128,-1,31
 262 256 262 256 225 256 c 0,32,33
 185 256 185 256 157.5 267.5 c 128,-1,34
 130 279 130 279 114 300 c 128,-1,35
 98 321 98 321 91 351.5 c 128,-1,36
 84 382 84 382 84 421 c 0,0,1
238 328 m 0,37,38
 275 328 275 328 301.5 338.5 c 128,-1,39
 328 349 328 349 339 354 c 1,40,41
 343 400 343 400 345 436 c 128,-1,42
 347 472 347 472 347 501 c 0,43,44
 347 545 347 545 342.5 571 c 128,-1,45
 338 597 338 597 328.5 611.5 c 128,-1,46
 319 626 319 626 305.5 630.5 c 128,-1,47
 292 635 292 635 274 635 c 0,48,49
 217 635 217 635 193 577.5 c 128,-1,50
 169 520 169 520 169 417 c 0,51,52
 169 371 169 371 183 349.5 c 128,-1,53
 197 328 197 328 238 328 c 0,37,38
EndSplineSet
EndChar

StartChar: colon
Encoding: 58 58 27
Width: 230
Flags: W
LayerCount: 2
Fore
SplineSet
55 0 m 1,0,-1
 63 100 l 1,1,-1
 163 100 l 1,2,-1
 155 0 l 1,3,-1
 55 0 l 1,0,-1
89 400 m 1,4,-1
 98 500 l 1,5,-1
 198 500 l 1,6,-1
 189 400 l 1,7,-1
 89 400 l 1,4,-1
EndSplineSet
EndChar

StartChar: semicolon
Encoding: 59 59 28
Width: 230
Flags: W
LayerCount: 2
Fore
SplineSet
70 -140 m 1,0,-1
 2 -140 l 1,1,-1
 55 0 l 1,2,-1
 63 100 l 1,3,-1
 163 100 l 1,4,-1
 155 0 l 1,5,-1
 70 -140 l 1,0,-1
89 400 m 1,6,-1
 98 500 l 1,7,-1
 198 500 l 1,8,-1
 189 400 l 1,9,-1
 89 400 l 1,6,-1
EndSplineSet
EndChar

StartChar: less
Encoding: 60 60 29
Width: 550
Flags: W
LayerCount: 2
Fore
SplineSet
99 280 m 1,0,-1
 108 385 l 1,1,-1
 504 564 l 1,2,-1
 496 470 l 1,3,-1
 174 334 l 1,4,-1
 472 197 l 1,5,-1
 464 105 l 1,6,-1
 99 280 l 1,0,-1
EndSplineSet
EndChar

StartChar: equal
Encoding: 61 61 30
Width: 550
Flags: W
LayerCount: 2
Fore
SplineSet
90 175 m 1,0,-1
 96 250 l 1,1,-1
 476 250 l 1,2,-1
 470 175 l 1,3,-1
 90 175 l 1,0,-1
107 375 m 1,4,-1
 114 450 l 1,5,-1
 494 450 l 1,6,-1
 487 375 l 1,7,-1
 107 375 l 1,4,-1
EndSplineSet
EndChar

StartChar: greater
Encoding: 62 62 31
Width: 550
Flags: W
LayerCount: 2
Fore
SplineSet
84 105 m 1,0,-1
 92 201 l 1,1,-1
 420 338 l 1,2,-1
 116 474 l 1,3,-1
 124 564 l 1,4,-1
 488 385 l 1,5,-1
 479 280 l 1,6,-1
 84 105 l 1,0,-1
EndSplineSet
EndChar

StartChar: question
Encoding: 63 63 32
Width: 360
Flags: W
LayerCount: 2
Fore
SplineSet
94 0 m 1,0,-1
 102 100 l 1,1,-1
 202 100 l 1,2,-1
 194 0 l 1,3,-1
 94 0 l 1,0,-1
361 530 m 0,4,5
 359 506 359 506 355 488.5 c 128,-1,6
 351 471 351 471 342 453 c 128,-1,7
 333 435 333 435 316.5 414 c 128,-1,8
 300 393 300 393 272 364 c 2,9,-1
 211 300 l 1,10,-1
 204 208 l 1,11,-1
 119 208 l 1,12,-1
 129 329 l 1,13,-1
 195 400 l 2,14,15
 222 430 222 430 238.5 448.5 c 128,-1,16
 255 467 255 467 264 483 c 128,-1,17
 273 499 273 499 276 516.5 c 128,-1,18
 279 534 279 534 279 562 c 0,19,20
 279 604 279 604 258 619 c 128,-1,21
 237 634 237 634 202 634 c 0,22,23
 171 634 171 634 136.5 628.5 c 128,-1,24
 102 623 102 623 79 618 c 1,25,-1
 85 692 l 1,26,27
 95 694 95 694 108.5 697 c 128,-1,28
 122 700 122 700 137.5 702 c 128,-1,29
 153 704 153 704 169 705.5 c 128,-1,30
 185 707 185 707 198 707 c 0,31,32
 236 707 236 707 266.5 700.5 c 128,-1,33
 297 694 297 694 318.5 677.5 c 128,-1,34
 340 661 340 661 351.5 634.5 c 128,-1,35
 363 608 363 608 363 567 c 0,36,37
 363 561 363 561 362.5 549.5 c 128,-1,38
 362 538 362 538 361 530 c 0,4,5
EndSplineSet
EndChar

StartChar: at
Encoding: 64 64 33
Width: 815
Flags: W
LayerCount: 2
Fore
SplineSet
503 472 m 1,0,1
 497 474 497 474 487 475.5 c 128,-1,2
 477 477 477 477 466 477 c 0,3,4
 441 477 441 477 417.5 471 c 128,-1,5
 394 465 394 465 376 446 c 128,-1,6
 358 427 358 427 347 392.5 c 128,-1,7
 336 358 336 358 336 302 c 0,8,9
 336 274 336 274 341 256.5 c 128,-1,10
 346 239 346 239 354.5 229.5 c 128,-1,11
 363 220 363 220 375 217 c 128,-1,12
 387 214 387 214 402 214 c 0,13,14
 425 214 425 214 440.5 220.5 c 128,-1,15
 456 227 456 227 466 236.5 c 128,-1,16
 476 246 476 246 480.5 258 c 128,-1,17
 485 270 485 270 486 281 c 2,18,-1
 503 472 l 1,0,1
755 401 m 0,19,20
 749 335 749 335 739.5 282.5 c 128,-1,21
 730 230 730 230 711.5 193 c 128,-1,22
 693 156 693 156 663 136 c 128,-1,23
 633 116 633 116 585 116 c 0,24,25
 573 116 573 116 558 120.5 c 128,-1,26
 543 125 543 125 530.5 134 c 128,-1,27
 518 143 518 143 508.5 157.5 c 128,-1,28
 499 172 499 172 497 191 c 1,29,30
 481 171 481 171 449 157.5 c 128,-1,31
 417 144 417 144 375 144 c 0,32,33
 353 144 353 144 332 150.5 c 128,-1,34
 311 157 311 157 294 174.5 c 128,-1,35
 277 192 277 192 266.5 222 c 128,-1,36
 256 252 256 252 256 298 c 0,37,38
 256 375 256 375 274 423 c 128,-1,39
 292 471 292 471 323 498 c 128,-1,40
 354 525 354 525 396 534.5 c 128,-1,41
 438 544 438 544 485 544 c 0,42,43
 507 544 507 544 535 539.5 c 128,-1,44
 563 535 563 535 586 530 c 1,45,-1
 562 251 l 2,46,47
 561 242 561 242 560 230 c 128,-1,48
 559 218 559 218 559 217 c 0,49,50
 559 203 559 203 567 192 c 128,-1,51
 575 181 575 181 592 181 c 0,52,53
 612 181 612 181 625 196.5 c 128,-1,54
 638 212 638 212 647 240.5 c 128,-1,55
 656 269 656 269 662 309.5 c 128,-1,56
 668 350 668 350 672 401 c 0,57,58
 674 424 674 424 675 443 c 128,-1,59
 676 462 676 462 676 479 c 0,60,61
 676 527 676 527 666 558 c 128,-1,62
 656 589 656 589 630.5 606 c 128,-1,63
 605 623 605 623 562 629.5 c 128,-1,64
 519 636 519 636 453 636 c 0,65,66
 378 636 378 636 330 622.5 c 128,-1,67
 282 609 282 609 253 576 c 128,-1,68
 224 543 224 543 210 487 c 128,-1,69
 196 431 196 431 188 345 c 0,70,71
 186 319 186 319 184.5 296 c 128,-1,72
 183 273 183 273 183 252 c 0,73,74
 183 201 183 201 192.5 165.5 c 128,-1,75
 202 130 202 130 226.5 107.5 c 128,-1,76
 251 85 251 85 293 74.5 c 128,-1,77
 335 64 335 64 399 64 c 0,78,79
 417 64 417 64 440 65.5 c 128,-1,80
 463 67 463 67 485.5 69 c 128,-1,81
 508 71 508 71 527.5 73 c 128,-1,82
 547 75 547 75 557 76 c 1,83,-1
 551 5 l 1,84,85
 538 3 538 3 518.5 1 c 128,-1,86
 499 -1 499 -1 477.5 -3 c 128,-1,87
 456 -5 456 -5 433.5 -6 c 128,-1,88
 411 -7 411 -7 393 -7 c 0,89,90
 312 -7 312 -7 256.5 7.5 c 128,-1,91
 201 22 201 22 166.5 53.5 c 128,-1,92
 132 85 132 85 116.5 135.5 c 128,-1,93
 101 186 101 186 101 257 c 0,94,95
 101 277 101 277 102 299 c 128,-1,96
 103 321 103 321 105 345 c 0,97,98
 114 451 114 451 135.5 520.5 c 128,-1,99
 157 590 157 590 198 631.5 c 128,-1,100
 239 673 239 673 302.5 690 c 128,-1,101
 366 707 366 707 459 707 c 0,102,103
 535 707 535 707 591.5 697.5 c 128,-1,104
 648 688 648 688 685 661.5 c 128,-1,105
 722 635 722 635 740 588.5 c 128,-1,106
 758 542 758 542 758 468 c 0,107,108
 758 437 758 437 755 401 c 0,19,20
EndSplineSet
EndChar

StartChar: A
Encoding: 65 65 34
Width: 500
Flags: W
LayerCount: 2
Fore
SplineSet
295 634 m 1,0,-1
 181 252 l 1,1,-1
 346 252 l 1,2,-1
 295 634 l 1,0,-1
378 0 m 1,3,-1
 355 177 l 1,4,-1
 158 177 l 1,5,-1
 104 0 l 1,6,-1
 15 0 l 1,7,-1
 243 700 l 1,8,-1
 358 700 l 1,9,-1
 465 0 l 1,10,-1
 378 0 l 1,3,-1
EndSplineSet
Substitution2: "'ordn' Ordinals in Latin lookup 4 subtable" ordfeminine
Substitution2: "'aalt' Access All Alternates in Latin lookup 0 subtable" ordfeminine
Position2: "'cpsp' Capital Spacing in Latin lookup 0 subtable" dx=5 dy=0 dh=10 dv=0
EndChar

StartChar: B
Encoding: 66 66 35
Width: 512
Flags: W
LayerCount: 2
Fore
SplineSet
370 204 m 0,0,1
 371 213 371 213 371.5 220.5 c 128,-1,2
 372 228 372 228 372 236 c 0,3,4
 372 285 372 285 352 308.5 c 128,-1,5
 332 332 332 332 284 332 c 2,6,-1
 191 332 l 1,7,-1
 168 71 l 1,8,9
 182 70 182 70 198 69 c 0,10,11
 212 68 212 68 227.5 67 c 128,-1,12
 243 66 243 66 259 66 c 0,13,14
 279 66 279 66 297.5 71 c 128,-1,15
 316 76 316 76 331 91 c 128,-1,16
 346 106 346 106 356 133 c 128,-1,17
 366 160 366 160 370 204 c 0,0,1
383 517 m 0,18,19
 384 526 384 526 384.5 534 c 128,-1,20
 385 542 385 542 385 550 c 0,21,22
 385 595 385 595 366.5 615 c 128,-1,23
 348 635 348 635 300 635 c 0,24,25
 264 635 264 635 241 632 c 0,26,27
 228 630 228 630 217 629 c 1,28,-1
 197 404 l 1,29,-1
 280 404 l 2,30,31
 295 404 295 404 311.5 407 c 128,-1,32
 328 410 328 410 342.5 421 c 128,-1,33
 357 432 357 432 368 454.5 c 128,-1,34
 379 477 379 477 383 517 c 0,18,19
459 201 m 0,35,36
 454 141 454 141 438 101 c 128,-1,37
 422 61 422 61 395.5 37 c 128,-1,38
 369 13 369 13 331 3 c 128,-1,39
 293 -7 293 -7 244 -7 c 0,40,41
 212 -7 212 -7 182 -6.5 c 128,-1,42
 152 -6 152 -6 128 -4 c 0,43,44
 100 -2 100 -2 75 0 c 1,45,-1
 136 700 l 1,46,47
 164 702 164 702 191 704 c 0,48,49
 214 706 214 706 242 706.5 c 128,-1,50
 270 707 270 707 294 707 c 0,51,52
 334 707 334 707 366.5 698 c 128,-1,53
 399 689 399 689 422.5 670 c 128,-1,54
 446 651 446 651 458.5 621.5 c 128,-1,55
 471 592 471 592 471 551 c 0,56,57
 471 508 471 508 462.5 477.5 c 128,-1,58
 454 447 454 447 440.5 426 c 128,-1,59
 427 405 427 405 410.5 392.5 c 128,-1,60
 394 380 394 380 377 373 c 1,61,62
 391 368 391 368 405.5 358.5 c 128,-1,63
 420 349 420 349 432.5 332.5 c 128,-1,64
 445 316 445 316 453 291.5 c 128,-1,65
 461 267 461 267 461 234 c 0,66,67
 461 229 461 229 460.5 218 c 128,-1,68
 460 207 460 207 459 201 c 0,35,36
EndSplineSet
Position2: "'cpsp' Capital Spacing in Latin lookup 0 subtable" dx=5 dy=0 dh=10 dv=0
EndChar

StartChar: C
Encoding: 67 67 36
Width: 423
Flags: W
LayerCount: 2
Fore
SplineSet
368 10 m 1,0,1
 360 8 360 8 346 5 c 128,-1,2
 332 2 332 2 316 -0.5 c 128,-1,3
 300 -3 300 -3 284 -5 c 128,-1,4
 268 -7 268 -7 256 -7 c 0,5,6
 212 -7 212 -7 179 4 c 128,-1,7
 146 15 146 15 124 42.5 c 128,-1,8
 102 70 102 70 91 117 c 128,-1,9
 80 164 80 164 80 237 c 0,10,11
 80 291 80 291 86 361 c 0,12,13
 96 472 96 472 113.5 539.5 c 128,-1,14
 131 607 131 607 160 644.5 c 128,-1,15
 189 682 189 682 230.5 694.5 c 128,-1,16
 272 707 272 707 330 707 c 0,17,18
 340 707 340 707 354.5 705 c 128,-1,19
 369 703 369 703 383.5 700.5 c 128,-1,20
 398 698 398 698 410 695.5 c 128,-1,21
 422 693 422 693 428 691 c 1,22,-1
 421 617 l 1,23,24
 397 623 397 623 365 627.5 c 128,-1,25
 333 632 333 632 306 632 c 256,26,27
 279 632 279 632 258 622.5 c 128,-1,28
 237 613 237 613 221 583.5 c 128,-1,29
 205 554 205 554 193.5 499.5 c 128,-1,30
 182 445 182 445 174 354 c 0,31,32
 174 348 174 348 172.5 329 c 128,-1,33
 171 310 171 310 170 288.5 c 128,-1,34
 169 267 169 267 168 248.5 c 128,-1,35
 167 230 167 230 167 226 c 0,36,37
 167 175 167 175 173 144 c 128,-1,38
 179 113 179 113 191 96 c 128,-1,39
 203 79 203 79 220 73.5 c 128,-1,40
 237 68 237 68 258 68 c 0,41,42
 289 68 289 68 322 73 c 128,-1,43
 355 78 355 78 375 83 c 1,44,-1
 368 10 l 1,0,1
EndSplineSet
Position2: "'cpsp' Capital Spacing in Latin lookup 0 subtable" dx=5 dy=0 dh=10 dv=0
EndChar

StartChar: D
Encoding: 68 68 37
Width: 526
Flags: W
LayerCount: 2
Fore
SplineSet
392 354 m 0,0,1
 398 422 398 422 398 468 c 0,2,3
 398 520 398 520 392 552.5 c 128,-1,4
 386 585 386 585 374.5 603 c 128,-1,5
 363 621 363 621 347.5 627.5 c 128,-1,6
 332 634 332 634 314 634 c 0,7,8
 300 634 300 634 283.5 633.5 c 128,-1,9
 267 633 267 633 252 632 c 0,10,11
 234 631 234 631 217 630 c 1,12,-1
 168 70 l 1,13,14
 183 69 183 69 200 68 c 0,15,16
 214 67 214 67 230.5 66.5 c 128,-1,17
 247 66 247 66 263 66 c 0,18,19
 286 66 286 66 306.5 80 c 128,-1,20
 327 94 327 94 343.5 127.5 c 128,-1,21
 360 161 360 161 372.5 216.5 c 128,-1,22
 385 272 385 272 392 354 c 0,0,1
482 361 m 0,23,24
 472 249 472 249 454 177.5 c 128,-1,25
 436 106 436 106 407.5 65 c 128,-1,26
 379 24 379 24 339.5 8.5 c 128,-1,27
 300 -7 300 -7 248 -7 c 0,28,29
 219 -7 219 -7 188.5 -6.5 c 128,-1,30
 158 -6 158 -6 132 -4 c 0,31,32
 102 -2 102 -2 75 0 c 1,33,-1
 136 700 l 1,34,35
 163 702 163 702 191 704 c 0,36,37
 215 706 215 706 243.5 706.5 c 128,-1,38
 272 707 272 707 298 707 c 0,39,40
 341 707 341 707 376 697.5 c 128,-1,41
 411 688 411 688 435.5 661.5 c 128,-1,42
 460 635 460 635 473.5 587.5 c 128,-1,43
 487 540 487 540 487 463 c 0,44,45
 487 440 487 440 485.5 415 c 128,-1,46
 484 390 484 390 482 361 c 0,23,24
EndSplineSet
Position2: "'cpsp' Capital Spacing in Latin lookup 0 subtable" dx=5 dy=0 dh=10 dv=0
EndChar

StartChar: E
Encoding: 69 69 38
Width: 468
Flags: W
LayerCount: 2
Fore
SplineSet
75 0 m 1,0,-1
 136 700 l 1,1,-1
 464 700 l 1,2,-1
 457 627 l 1,3,-1
 216 627 l 1,4,-1
 196 398 l 1,5,-1
 412 398 l 1,6,-1
 406 325 l 1,7,-1
 190 325 l 1,8,-1
 168 73 l 1,9,-1
 409 73 l 1,10,-1
 403 0 l 1,11,-1
 75 0 l 1,0,-1
EndSplineSet
Position2: "'cpsp' Capital Spacing in Latin lookup 0 subtable" dx=5 dy=0 dh=10 dv=0
EndChar

StartChar: F
Encoding: 70 70 39
Width: 458
Flags: W
LayerCount: 2
Fore
SplineSet
216 627 m 1,0,-1
 195 388 l 1,1,-1
 411 388 l 1,2,-1
 405 315 l 1,3,-1
 189 315 l 1,4,-1
 162 0 l 1,5,-1
 75 0 l 1,6,-1
 136 700 l 1,7,-1
 464 700 l 1,8,-1
 457 627 l 1,9,-1
 216 627 l 1,0,-1
EndSplineSet
Position2: "'cpsp' Capital Spacing in Latin lookup 0 subtable" dx=5 dy=0 dh=10 dv=0
EndChar

StartChar: G
Encoding: 71 71 40
Width: 495
Flags: W
LayerCount: 2
Fore
SplineSet
420 10 m 1,0,1
 380 2 380 2 341.5 -2.5 c 128,-1,2
 303 -7 303 -7 262 -7 c 0,3,4
 216 -7 216 -7 181.5 4 c 128,-1,5
 147 15 147 15 124.5 42.5 c 128,-1,6
 102 70 102 70 91 117 c 128,-1,7
 80 164 80 164 80 237 c 0,8,9
 80 291 80 291 86 361 c 0,10,11
 96 472 96 472 115 539.5 c 128,-1,12
 134 607 134 607 165.5 644.5 c 128,-1,13
 197 682 197 682 242 694.5 c 128,-1,14
 287 707 287 707 348 707 c 0,15,16
 360 707 360 707 375.5 705.5 c 128,-1,17
 391 704 391 704 406.5 701.5 c 128,-1,18
 422 699 422 699 436 696 c 128,-1,19
 450 693 450 693 459 691 c 1,20,-1
 453 619 l 1,21,22
 421 625 421 625 388.5 629.5 c 128,-1,23
 356 634 356 634 324 634 c 256,24,25
 292 634 292 634 267.5 624.5 c 128,-1,26
 243 615 243 615 225 585 c 128,-1,27
 207 555 207 555 194.5 500 c 128,-1,28
 182 445 182 445 174 354 c 0,29,30
 174 348 174 348 172.5 328.5 c 128,-1,31
 171 309 171 309 170 287 c 128,-1,32
 169 265 169 265 168 246.5 c 128,-1,33
 167 228 167 228 167 224 c 0,34,35
 167 173 167 173 173 142 c 128,-1,36
 179 111 179 111 191 94 c 128,-1,37
 203 77 203 77 221 71.5 c 128,-1,38
 239 66 239 66 263 66 c 0,39,40
 280 66 280 66 301 68 c 128,-1,41
 322 70 322 70 342 73 c 1,42,-1
 362 295 l 1,43,-1
 273 295 l 1,44,-1
 280 368 l 1,45,-1
 452 368 l 1,46,-1
 420 10 l 1,0,1
EndSplineSet
Position2: "'cpsp' Capital Spacing in Latin lookup 0 subtable" dx=5 dy=0 dh=10 dv=0
EndChar

StartChar: H
Encoding: 72 72 41
Width: 550
Flags: W
LayerCount: 2
Fore
SplineSet
368 0 m 1,0,-1
 396 322 l 1,1,-1
 190 322 l 1,2,-1
 162 0 l 1,3,-1
 75 0 l 1,4,-1
 136 700 l 1,5,-1
 223 700 l 1,6,-1
 196 396 l 1,7,-1
 402 396 l 1,8,-1
 429 700 l 1,9,-1
 516 700 l 1,10,-1
 455 0 l 1,11,-1
 368 0 l 1,0,-1
EndSplineSet
Position2: "'cpsp' Capital Spacing in Latin lookup 0 subtable" dx=5 dy=0 dh=10 dv=0
EndChar

StartChar: I
Encoding: 73 73 42
Width: 317
Flags: W
LayerCount: 2
Fore
SplineSet
35 0 m 1,0,-1
 41 73 l 1,1,-1
 111 73 l 1,2,-1
 159 627 l 1,3,-1
 89 627 l 1,4,-1
 96 700 l 1,5,-1
 323 700 l 1,6,-1
 316 627 l 1,7,-1
 246 627 l 1,8,-1
 198 73 l 1,9,-1
 268 73 l 1,10,-1
 262 0 l 1,11,-1
 35 0 l 1,0,-1
EndSplineSet
Position2: "'cpsp' Capital Spacing in Latin lookup 0 subtable" dx=5 dy=0 dh=10 dv=0
EndChar

StartChar: J
Encoding: 74 74 43
Width: 400
Flags: W
LayerCount: 2
Fore
SplineSet
331 251 m 1,0,1
 324 170 324 170 310.5 119.5 c 128,-1,2
 297 69 297 69 273.5 41 c 128,-1,3
 250 13 250 13 215.5 3 c 128,-1,4
 181 -7 181 -7 131 -7 c 0,5,6
 122 -7 122 -7 109 -6 c 128,-1,7
 96 -5 96 -5 81.5 -3 c 128,-1,8
 67 -1 67 -1 52 1 c 128,-1,9
 37 3 37 3 25 5 c 1,10,-1
 31 78 l 1,11,12
 42 76 42 76 56.5 74.5 c 128,-1,13
 71 73 71 73 86 71.5 c 128,-1,14
 101 70 101 70 113.5 69 c 128,-1,15
 126 68 126 68 132 68 c 0,16,17
 159 68 159 68 178 74 c 128,-1,18
 197 80 197 80 210 98.5 c 128,-1,19
 223 117 223 117 231 152 c 128,-1,20
 239 187 239 187 244 244 c 2,21,-1
 277 627 l 1,22,-1
 116 627 l 1,23,-1
 123 700 l 1,24,-1
 371 700 l 1,25,-1
 331 251 l 1,26,-1
 331 251 l 1,0,1
EndSplineSet
Position2: "'cpsp' Capital Spacing in Latin lookup 0 subtable" dx=5 dy=0 dh=10 dv=0
EndChar

StartChar: K
Encoding: 75 75 44
Width: 492
Flags: W
LayerCount: 2
Fore
SplineSet
356 0 m 1,0,-1
 226 321 l 1,1,-1
 184 261 l 1,2,-1
 162 0 l 1,3,-1
 75 0 l 1,4,-1
 136 700 l 1,5,-1
 223 700 l 1,6,-1
 196 393 l 1,7,-1
 410 700 l 1,8,-1
 503 700 l 1,9,-1
 286 394 l 1,10,-1
 452 0 l 1,11,-1
 356 0 l 1,0,-1
EndSplineSet
Position2: "'cpsp' Capital Spacing in Latin lookup 0 subtable" dx=5 dy=0 dh=10 dv=0
EndChar

StartChar: L
Encoding: 76 76 45
Width: 410
Flags: W
LayerCount: 2
Fore
SplineSet
75 0 m 1,0,-1
 136 700 l 1,1,-1
 223 700 l 1,2,-1
 168 76 l 1,3,-1
 391 76 l 1,4,-1
 385 0 l 1,5,-1
 75 0 l 1,0,-1
EndSplineSet
Position2: "'cpsp' Capital Spacing in Latin lookup 0 subtable" dx=5 dy=0 dh=10 dv=0
EndChar

StartChar: M
Encoding: 77 77 46
Width: 630
Flags: W
LayerCount: 2
Fore
SplineSet
454 0 m 1,0,-1
 508 628 l 1,1,-1
 365 235 l 1,2,-1
 282 235 l 1,3,-1
 209 628 l 1,4,-1
 155 0 l 1,5,-1
 75 0 l 1,6,-1
 136 700 l 1,7,-1
 277 700 l 1,8,-1
 336 342 l 1,9,-1
 460 700 l 1,10,-1
 596 700 l 1,11,-1
 535 0 l 1,12,-1
 454 0 l 1,0,-1
EndSplineSet
Position2: "'cpsp' Capital Spacing in Latin lookup 0 subtable" dx=5 dy=0 dh=10 dv=0
EndChar

StartChar: N
Encoding: 78 78 47
Width: 547
Flags: W
LayerCount: 2
Fore
SplineSet
309 0 m 1,0,-1
 210 626 l 1,1,-1
 156 0 l 1,2,-1
 75 0 l 1,3,-1
 136 700 l 1,4,-1
 278 700 l 1,5,-1
 377 74 l 1,6,-1
 432 700 l 1,7,-1
 513 700 l 1,8,-1
 452 0 l 1,9,-1
 309 0 l 1,0,-1
EndSplineSet
Position2: "'cpsp' Capital Spacing in Latin lookup 0 subtable" dx=5 dy=0 dh=10 dv=0
EndChar

StartChar: O
Encoding: 79 79 48
Width: 548
Flags: W
LayerCount: 2
Fore
SplineSet
414 353 m 0,0,1
 417 388 417 388 419 417.5 c 128,-1,2
 421 447 421 447 421 473 c 0,3,4
 421 519 421 519 415 550 c 128,-1,5
 409 581 409 581 396.5 599.5 c 128,-1,6
 384 618 384 618 365 626 c 128,-1,7
 346 634 346 634 319 634 c 0,8,9
 286 634 286 634 262 621 c 128,-1,10
 238 608 238 608 221 576 c 128,-1,11
 204 544 204 544 193 490 c 128,-1,12
 182 436 182 436 174 353 c 0,13,14
 174 347 174 347 173 330 c 128,-1,15
 172 313 172 313 171 294 c 128,-1,16
 170 275 170 275 169 259 c 128,-1,17
 168 243 168 243 168 238 c 0,18,19
 168 144 168 144 192 105 c 128,-1,20
 216 66 216 66 269 66 c 0,21,22
 303 66 303 66 327 80.5 c 128,-1,23
 351 95 351 95 368.5 129 c 128,-1,24
 386 163 386 163 396.5 217.5 c 128,-1,25
 407 272 407 272 414 353 c 0,0,1
504 358 m 0,26,27
 496 266 496 266 481 197.5 c 128,-1,28
 466 129 466 129 439 83.5 c 128,-1,29
 412 38 412 38 369.5 15.5 c 128,-1,30
 327 -7 327 -7 263 -7 c 0,31,32
 211 -7 211 -7 176 9.5 c 128,-1,33
 141 26 141 26 120 59.5 c 128,-1,34
 99 93 99 93 90 143.5 c 128,-1,35
 81 194 81 194 81 261 c 0,36,37
 81 266 81 266 81.5 279.5 c 128,-1,38
 82 293 82 293 83 309 c 128,-1,39
 84 325 84 325 85 339 c 128,-1,40
 86 353 86 353 86 358 c 0,41,42
 94 446 94 446 108 511.5 c 128,-1,43
 122 577 122 577 149 620.5 c 128,-1,44
 176 664 176 664 218.5 685.5 c 128,-1,45
 261 707 261 707 325 707 c 0,46,47
 427 707 427 707 468 646 c 128,-1,48
 509 585 509 585 509 461 c 0,49,50
 509 437 509 437 507.5 411.5 c 128,-1,51
 506 386 506 386 504 358 c 0,26,27
EndSplineSet
Substitution2: "'ordn' Ordinals in Latin lookup 4 subtable" ordmasculine
Substitution2: "'aalt' Access All Alternates in Latin lookup 0 subtable" ordmasculine
Position2: "'cpsp' Capital Spacing in Latin lookup 0 subtable" dx=5 dy=0 dh=10 dv=0
EndChar

StartChar: P
Encoding: 80 80 49
Width: 500
Flags: W
LayerCount: 2
Fore
SplineSet
393 488 m 0,0,1
 394 499 394 499 394.5 509 c 128,-1,2
 395 519 395 519 395 529 c 0,3,4
 395 583 395 583 376 609 c 128,-1,5
 357 635 357 635 311 635 c 0,6,7
 269 635 269 635 243 632 c 0,8,9
 228 630 228 630 217 629 c 1,10,-1
 192 347 l 1,11,-1
 286 347 l 2,12,13
 307 347 307 347 325 353.5 c 128,-1,14
 343 360 343 360 357 376.5 c 128,-1,15
 371 393 371 393 380.5 420 c 128,-1,16
 390 447 390 447 393 488 c 0,0,1
485 529 m 0,17,18
 485 521 485 521 484 506 c 128,-1,19
 483 491 483 491 482 482 c 0,20,21
 478 430 478 430 464.5 390.5 c 128,-1,22
 451 351 451 351 425.5 325.5 c 128,-1,23
 400 300 400 300 361.5 287 c 128,-1,24
 323 274 323 274 269 274 c 2,25,-1
 185 274 l 1,26,-1
 162 0 l 1,27,-1
 75 0 l 1,28,-1
 136 700 l 1,29,30
 161 702 161 702 189 704 c 0,31,32
 213 706 213 706 243.5 706.5 c 128,-1,33
 274 707 274 707 305 707 c 0,34,35
 354 707 354 707 388 694 c 128,-1,36
 422 681 422 681 443.5 657.5 c 128,-1,37
 465 634 465 634 475 601 c 128,-1,38
 485 568 485 568 485 529 c 0,17,18
EndSplineSet
Position2: "'cpsp' Capital Spacing in Latin lookup 0 subtable" dx=5 dy=0 dh=10 dv=0
EndChar

StartChar: Q
Encoding: 81 81 50
Width: 548
Flags: W
LayerCount: 2
Fore
SplineSet
504 358 m 0,0,1
 492 226 492 226 464 143 c 128,-1,2
 436 60 436 60 378 22 c 1,3,-1
 493 0 l 1,4,-1
 485 -84 l 1,5,-1
 263 -7 l 1,6,7
 211 -7 211 -7 176 9.5 c 128,-1,8
 141 26 141 26 120 59.5 c 128,-1,9
 99 93 99 93 90 143.5 c 128,-1,10
 81 194 81 194 81 261 c 0,11,12
 81 266 81 266 81.5 279.5 c 128,-1,13
 82 293 82 293 83 309 c 128,-1,14
 84 325 84 325 85 339 c 128,-1,15
 86 353 86 353 86 358 c 0,16,17
 94 446 94 446 108 511.5 c 128,-1,18
 122 577 122 577 149 620.5 c 128,-1,19
 176 664 176 664 218.5 685.5 c 128,-1,20
 261 707 261 707 325 707 c 0,21,22
 427 707 427 707 468 646 c 128,-1,23
 509 585 509 585 509 461 c 0,24,25
 509 437 509 437 507.5 411.5 c 128,-1,26
 506 386 506 386 504 358 c 0,0,1
414 353 m 0,27,28
 417 388 417 388 419 417.5 c 128,-1,29
 421 447 421 447 421 473 c 0,30,31
 421 519 421 519 415 550 c 128,-1,32
 409 581 409 581 396.5 599.5 c 128,-1,33
 384 618 384 618 365 626 c 128,-1,34
 346 634 346 634 319 634 c 0,35,36
 286 634 286 634 262 621 c 128,-1,37
 238 608 238 608 221 576 c 128,-1,38
 204 544 204 544 193 490 c 128,-1,39
 182 436 182 436 174 353 c 0,40,41
 174 347 174 347 173 330 c 128,-1,42
 172 313 172 313 171 294 c 128,-1,43
 170 275 170 275 169 259 c 128,-1,44
 168 243 168 243 168 238 c 0,45,46
 168 144 168 144 192 105 c 128,-1,47
 216 66 216 66 269 66 c 0,48,49
 303 66 303 66 327 80.5 c 128,-1,50
 351 95 351 95 368.5 129 c 128,-1,51
 386 163 386 163 396.5 217.5 c 128,-1,52
 407 272 407 272 414 353 c 0,27,28
EndSplineSet
Position2: "'cpsp' Capital Spacing in Latin lookup 0 subtable" dx=5 dy=0 dh=10 dv=0
EndChar

StartChar: R
Encoding: 82 82 51
Width: 520
Flags: W
LayerCount: 2
Fore
SplineSet
482 503 m 0,0,1
 474 425 474 425 448 374 c 128,-1,2
 422 323 422 323 365 303 c 1,3,-1
 475 0 l 1,4,-1
 381 0 l 1,5,-1
 280 290 l 1,6,-1
 187 290 l 1,7,-1
 162 0 l 1,8,-1
 75 0 l 1,9,-1
 136 700 l 1,10,11
 161 702 161 702 189 704 c 0,12,13
 213 706 213 706 243.5 706.5 c 128,-1,14
 274 707 274 707 305 707 c 0,15,16
 354 707 354 707 388 695 c 128,-1,17
 422 683 422 683 443.5 660.5 c 128,-1,18
 465 638 465 638 474.5 606.5 c 128,-1,19
 484 575 484 575 484 536 c 0,20,21
 484 528 484 528 483.5 519.5 c 128,-1,22
 483 511 483 511 482 503 c 0,0,1
392 496 m 0,23,24
 393 507 393 507 393.5 516.5 c 128,-1,25
 394 526 394 526 394 534 c 0,26,27
 394 587 394 587 375.5 611 c 128,-1,28
 357 635 357 635 311 635 c 0,29,30
 269 635 269 635 243 632 c 0,31,32
 228 630 228 630 217 629 c 1,33,-1
 193 363 l 1,34,-1
 287 363 l 2,35,36
 308 363 308 363 325.5 368.5 c 128,-1,37
 343 374 343 374 356.5 388.5 c 128,-1,38
 370 403 370 403 379 429 c 128,-1,39
 388 455 388 455 392 496 c 0,23,24
EndSplineSet
Position2: "'cpsp' Capital Spacing in Latin lookup 0 subtable" dx=5 dy=0 dh=10 dv=0
EndChar

StartChar: S
Encoding: 83 83 52
Width: 434
Flags: W
LayerCount: 2
Fore
SplineSet
390 237 m 0,0,1
 390 170 390 170 377 123 c 128,-1,2
 364 76 364 76 337.5 47.5 c 128,-1,3
 311 19 311 19 270.5 6 c 128,-1,4
 230 -7 230 -7 175 -7 c 0,5,6
 145 -7 145 -7 114 -2.5 c 128,-1,7
 83 2 83 2 57 9 c 1,8,-1
 64 83 l 1,9,10
 87 77 87 77 117 71.5 c 128,-1,11
 147 66 147 66 188 66 c 0,12,13
 247 66 247 66 273.5 105 c 128,-1,14
 300 144 300 144 300 225 c 0,15,16
 300 251 300 251 295.5 268.5 c 128,-1,17
 291 286 291 286 282 297 c 128,-1,18
 273 308 273 308 259.5 314.5 c 128,-1,19
 246 321 246 321 229 325 c 0,20,21
 159 340 159 340 125 376 c 128,-1,22
 91 412 91 412 91 484 c 0,23,24
 91 546 91 546 106.5 589 c 128,-1,25
 122 632 122 632 150 658 c 128,-1,26
 178 684 178 684 217 695.5 c 128,-1,27
 256 707 256 707 303 707 c 0,28,29
 332 707 332 707 361 701.5 c 128,-1,30
 390 696 390 696 411 690 c 1,31,-1
 404 617 l 1,32,33
 379 623 379 623 349.5 628.5 c 128,-1,34
 320 634 320 634 290 634 c 0,35,36
 268 634 268 634 248 626.5 c 128,-1,37
 228 619 228 619 213 601.5 c 128,-1,38
 198 584 198 584 189 556.5 c 128,-1,39
 180 529 180 529 180 490 c 0,40,41
 180 450 180 450 195 433 c 128,-1,42
 210 416 210 416 249 408 c 0,43,44
 281 401 281 401 307 389.5 c 128,-1,45
 333 378 333 378 351.5 358.5 c 128,-1,46
 370 339 370 339 380 309.5 c 128,-1,47
 390 280 390 280 390 237 c 0,0,1
EndSplineSet
Position2: "'cpsp' Capital Spacing in Latin lookup 0 subtable" dx=5 dy=0 dh=10 dv=0
EndChar

StartChar: T
Encoding: 84 84 53
Width: 425
Flags: W
LayerCount: 2
Fore
SplineSet
300 624 m 1,0,-1
 246 0 l 1,1,-1
 159 0 l 1,2,-1
 213 624 l 1,3,-1
 59 624 l 1,4,-1
 66 700 l 1,5,-1
 461 700 l 1,6,-1
 454 624 l 1,7,-1
 300 624 l 1,0,-1
EndSplineSet
Position2: "'cpsp' Capital Spacing in Latin lookup 0 subtable" dx=5 dy=0 dh=10 dv=0
EndChar

StartChar: U
Encoding: 85 85 54
Width: 535
Flags: W
LayerCount: 2
Fore
SplineSet
461 185 m 2,0,1
 452 83 452 83 400 38 c 128,-1,2
 348 -7 348 -7 257 -7 c 0,3,4
 220 -7 220 -7 188.5 2.5 c 128,-1,5
 157 12 157 12 134 32.5 c 128,-1,6
 111 53 111 53 98 84 c 128,-1,7
 85 115 85 115 85 158 c 0,8,9
 85 166 85 166 85.5 177 c 128,-1,10
 86 188 86 188 87 195 c 2,11,-1
 131 700 l 1,12,-1
 218 700 l 1,13,-1
 173 187 l 2,14,15
 172 175 172 175 171.5 165.5 c 128,-1,16
 171 156 171 156 171 152 c 0,17,18
 171 107 171 107 196 86.5 c 128,-1,19
 221 66 221 66 263 66 c 0,20,21
 308 66 308 66 337.5 89.5 c 128,-1,22
 367 113 367 113 372 166 c 2,23,-1
 419 700 l 1,24,-1
 506 700 l 1,25,-1
 461 185 l 2,0,1
EndSplineSet
Position2: "'cpsp' Capital Spacing in Latin lookup 0 subtable" dx=5 dy=0 dh=10 dv=0
EndChar

StartChar: V
Encoding: 86 86 55
Width: 473
Flags: W
LayerCount: 2
Fore
SplineSet
281 0 m 1,0,-1
 162 0 l 1,1,-1
 86 700 l 1,2,-1
 174 700 l 1,3,-1
 230 88 l 1,4,-1
 403 700 l 1,5,-1
 489 700 l 1,6,-1
 281 0 l 1,0,-1
EndSplineSet
Position2: "'cpsp' Capital Spacing in Latin lookup 0 subtable" dx=5 dy=0 dh=10 dv=0
EndChar

StartChar: W
Encoding: 87 87 56
Width: 604
Flags: W
LayerCount: 2
Fore
SplineSet
495 0 m 1,0,-1
 359 0 l 1,1,-1
 318 304 l 1,2,-1
 219 0 l 1,3,-1
 89 0 l 1,4,-1
 116 700 l 1,5,-1
 193 700 l 1,6,-1
 166 55 l 1,7,-1
 285 405 l 1,8,-1
 367 405 l 1,9,-1
 429 55 l 1,10,-1
 517 700 l 1,11,-1
 590 700 l 1,12,-1
 495 0 l 1,0,-1
EndSplineSet
Position2: "'cpsp' Capital Spacing in Latin lookup 0 subtable" dx=5 dy=0 dh=10 dv=0
EndChar

StartChar: X
Encoding: 88 88 57
Width: 496
Flags: W
LayerCount: 2
Fore
SplineSet
355 0 m 1,0,-1
 263 270 l 1,1,-1
 121 0 l 1,2,-1
 25 0 l 1,3,-1
 226 362 l 1,4,-1
 101 700 l 1,5,-1
 194 700 l 1,6,-1
 279 457 l 1,7,-1
 407 700 l 1,8,-1
 502 700 l 1,9,-1
 314 363 l 1,10,-1
 451 0 l 1,11,-1
 355 0 l 1,0,-1
EndSplineSet
Position2: "'cpsp' Capital Spacing in Latin lookup 0 subtable" dx=5 dy=0 dh=10 dv=0
EndChar

StartChar: Y
Encoding: 89 89 58
Width: 491
Flags: W
LayerCount: 2
Fore
SplineSet
307 325 m 1,0,-1
 279 0 l 1,1,-1
 189 0 l 1,2,-1
 217 325 l 1,3,-1
 71 700 l 1,4,-1
 165 700 l 1,5,-1
 271 409 l 1,6,-1
 429 700 l 1,7,-1
 522 700 l 1,8,-1
 307 325 l 1,0,-1
EndSplineSet
Position2: "'cpsp' Capital Spacing in Latin lookup 0 subtable" dx=5 dy=0 dh=10 dv=0
EndChar

StartChar: Z
Encoding: 90 90 59
Width: 436
Flags: W
LayerCount: 2
Fore
SplineSet
131 74 m 1,0,-1
 377 74 l 1,1,-1
 371 0 l 1,2,-1
 35 0 l 1,3,-1
 42 88 l 1,4,-1
 346 626 l 1,5,-1
 112 626 l 1,6,-1
 119 700 l 1,7,-1
 442 700 l 1,8,-1
 434 612 l 1,9,-1
 131 74 l 1,0,-1
EndSplineSet
Position2: "'cpsp' Capital Spacing in Latin lookup 0 subtable" dx=5 dy=0 dh=10 dv=0
EndChar

StartChar: bracketleft
Encoding: 91 91 60
Width: 325
Flags: W
LayerCount: 2
Fore
SplineSet
64 -120 m 1,0,-1
 146 820 l 1,1,-1
 336 820 l 1,2,-1
 330 745 l 1,3,-1
 220 745 l 1,4,-1
 151 -45 l 1,5,-1
 261 -45 l 1,6,-1
 254 -120 l 1,7,-1
 64 -120 l 1,0,-1
EndSplineSet
EndChar

StartChar: backslash
Encoding: 92 92 61
Width: 325
Flags: W
LayerCount: 2
Fore
SplineSet
65 810 m 1,0,-1
 144 810 l 1,1,-1
 300 -110 l 1,2,-1
 221 -110 l 1,3,-1
 65 810 l 1,0,-1
EndSplineSet
EndChar

StartChar: bracketright
Encoding: 93 93 62
Width: 325
Flags: W
LayerCount: 2
Fore
SplineSet
29 -120 m 1,0,-1
 36 -45 l 1,1,-1
 146 -45 l 1,2,-1
 215 745 l 1,3,-1
 105 745 l 1,4,-1
 111 820 l 1,5,-1
 301 820 l 1,6,-1
 219 -120 l 1,7,-1
 29 -120 l 1,0,-1
EndSplineSet
EndChar

StartChar: asciicircum
Encoding: 94 94 63
Width: 487
Flags: W
LayerCount: 2
Fore
SplineSet
379 420 m 1,0,-1
 300 700 l 1,1,-1
 161 420 l 1,2,-1
 71 420 l 1,3,-1
 245 760 l 1,4,-1
 359 760 l 1,5,-1
 468 420 l 1,6,-1
 379 420 l 1,0,-1
EndSplineSet
EndChar

StartChar: underscore
Encoding: 95 95 64
Width: 510
Flags: W
LayerCount: 2
Fore
SplineSet
-21 -170 m 1,0,-1
 -15 -95 l 1,1,-1
 488 -95 l 1,2,-1
 482 -170 l 1,3,-1
 -21 -170 l 1,0,-1
EndSplineSet
EndChar

StartChar: quoteleft
Encoding: 8216 8216 65
Width: 205
Flags: W
LayerCount: 2
Fore
SplineSet
136 699 m 1,0,-1
 201 699 l 1,1,-1
 157 542 l 1,2,-1
 149 452 l 1,3,-1
 54 452 l 1,4,-1
 62 542 l 1,5,-1
 136 699 l 1,0,-1
EndSplineSet
EndChar

StartChar: a
Encoding: 97 97 66
Width: 498
Flags: W
LayerCount: 2
Fore
SplineSet
74 228 m 0,0,1
 81 302 81 302 98 355 c 128,-1,2
 115 408 115 408 144 441.5 c 128,-1,3
 173 475 173 475 215 491 c 128,-1,4
 257 507 257 507 314 507 c 0,5,6
 328 507 328 507 345.5 505 c 128,-1,7
 363 503 363 503 380.5 500 c 128,-1,8
 398 497 398 497 414 493 c 128,-1,9
 430 489 430 489 442 485 c 1,10,-1
 410 136 l 2,11,12
 410 134 410 134 409 125.5 c 128,-1,13
 408 117 408 117 408 103 c 0,14,15
 408 65 408 65 447 65 c 1,16,-1
 442 0 l 1,17,-1
 423 0 l 2,18,19
 391 0 391 0 368.5 15 c 128,-1,20
 346 30 346 30 337 62 c 1,21,22
 317 32 317 32 284 12.5 c 128,-1,23
 251 -7 251 -7 199 -7 c 0,24,25
 129 -7 129 -7 100 39 c 128,-1,26
 71 85 71 85 71 170 c 0,27,28
 71 198 71 198 74 228 c 0,0,1
221 65 m 0,29,30
 247 65 247 65 266 74.5 c 128,-1,31
 285 84 285 84 298.5 99 c 128,-1,32
 312 114 312 114 319 133 c 128,-1,33
 326 152 326 152 328 172 c 2,34,-1
 351 431 l 1,35,36
 341 433 341 433 328 434 c 128,-1,37
 315 435 315 435 297 435 c 0,38,39
 158 435 158 435 158 163 c 0,40,41
 158 113 158 113 172 89 c 128,-1,42
 186 65 186 65 221 65 c 0,29,30
EndSplineSet
Substitution2: "'ordn' Ordinals in Latin lookup 4 subtable" ordfeminine
Substitution2: "'aalt' Access All Alternates in Latin lookup 0 subtable" ordfeminine
EndChar

StartChar: b
Encoding: 98 98 67
Width: 499
Flags: W
LayerCount: 2
Fore
SplineSet
448 282 m 0,0,1
 441 201 441 201 426 146 c 128,-1,2
 411 91 411 91 383.5 57 c 128,-1,3
 356 23 356 23 314 8 c 128,-1,4
 272 -7 272 -7 210 -7 c 0,5,6
 175 -7 175 -7 138.5 -3.5 c 128,-1,7
 102 0 102 0 70 5 c 1,8,-1
 131 700 l 1,9,-1
 216 700 l 1,10,-1
 194 455 l 1,11,12
 214 478 214 478 243 492.5 c 128,-1,13
 272 507 272 507 314 507 c 0,14,15
 389 507 389 507 419.5 461 c 128,-1,16
 450 415 450 415 450 334 c 0,17,18
 450 322 450 322 450 309 c 128,-1,19
 450 296 450 296 448 282 c 0,0,1
294 435 m 0,20,21
 265 435 265 435 244.5 422 c 128,-1,22
 224 409 224 409 210.5 389 c 128,-1,23
 197 369 197 369 190 345.5 c 128,-1,24
 183 322 183 322 181 300 c 2,25,-1
 160 68 l 1,26,27
 184 65 184 65 227 65 c 0,28,29
 263 65 263 65 286.5 79.5 c 128,-1,30
 310 94 310 94 325 121.5 c 128,-1,31
 340 149 340 149 348.5 189.5 c 128,-1,32
 357 230 357 230 361 282 c 0,33,34
 363 296 363 296 363 308.5 c 128,-1,35
 363 321 363 321 363 332 c 0,36,37
 363 384 363 384 347.5 409.5 c 128,-1,38
 332 435 332 435 294 435 c 0,20,21
EndSplineSet
EndChar

StartChar: c
Encoding: 99 99 68
Width: 404
Flags: W
LayerCount: 2
Fore
SplineSet
339 10 m 1,0,1
 315 3 315 3 285.5 -2 c 128,-1,2
 256 -7 256 -7 229 -7 c 0,3,4
 192 -7 192 -7 162.5 0 c 128,-1,5
 133 7 133 7 113.5 27 c 128,-1,6
 94 47 94 47 83.5 83.5 c 128,-1,7
 73 120 73 120 73 179 c 0,8,9
 73 269 73 269 85.5 331.5 c 128,-1,10
 98 394 98 394 122.5 433 c 128,-1,11
 147 472 147 472 184.5 489.5 c 128,-1,12
 222 507 222 507 273 507 c 0,13,14
 298 507 298 507 329 501.5 c 128,-1,15
 360 496 360 496 381 491 c 1,16,-1
 375 416 l 1,17,18
 349 423 349 423 323 427.5 c 128,-1,19
 297 432 297 432 260 432 c 0,20,21
 238 432 238 432 222 423 c 128,-1,22
 206 414 206 414 194 391.5 c 128,-1,23
 182 369 182 369 174.5 332.5 c 128,-1,24
 167 296 167 296 162 240 c 0,25,26
 159 204 159 204 159 178 c 0,27,28
 159 142 159 142 164 120.5 c 128,-1,29
 169 99 169 99 178 87.5 c 128,-1,30
 187 76 187 76 200 72 c 128,-1,31
 213 68 213 68 229 68 c 0,32,33
 267 68 267 68 295 74 c 128,-1,34
 323 80 323 80 346 85 c 1,35,-1
 339 10 l 1,0,1
EndSplineSet
EndChar

StartChar: d
Encoding: 100 100 69
Width: 504
Flags: W
LayerCount: 2
Fore
SplineSet
74 228 m 0,0,1
 81 302 81 302 97 355 c 128,-1,2
 113 408 113 408 142 441.5 c 128,-1,3
 171 475 171 475 214 491 c 128,-1,4
 257 507 257 507 317 507 c 0,5,6
 344 507 344 507 372 502 c 1,7,-1
 390 700 l 1,8,-1
 475 700 l 1,9,-1
 414 0 l 1,10,-1
 344 0 l 1,11,-1
 339 60 l 1,12,13
 316 31 316 31 283.5 12 c 128,-1,14
 251 -7 251 -7 204 -7 c 0,15,16
 135 -7 135 -7 103.5 38 c 128,-1,17
 72 83 72 83 72 174 c 0,18,19
 72 187 72 187 72 200.5 c 128,-1,20
 72 214 72 214 74 228 c 0,0,1
226 65 m 0,21,22
 255 65 255 65 276.5 77.5 c 128,-1,23
 298 90 298 90 312.5 109.5 c 128,-1,24
 327 129 327 129 335 153 c 128,-1,25
 343 177 343 177 345 199 c 2,26,-1
 366 431 l 1,27,28
 355 433 355 433 339 434 c 128,-1,29
 323 435 323 435 300 435 c 0,30,31
 264 435 264 435 240 420.5 c 128,-1,32
 216 406 216 406 200 378.5 c 128,-1,33
 184 351 184 351 175 310.5 c 128,-1,34
 166 270 166 270 161 218 c 0,35,36
 160 205 160 205 159.5 193 c 128,-1,37
 159 181 159 181 159 170 c 0,38,39
 159 117 159 117 174.5 91 c 128,-1,40
 190 65 190 65 226 65 c 0,21,22
EndSplineSet
EndChar

StartChar: e
Encoding: 101 101 70
Width: 456
Flags: W
LayerCount: 2
Fore
SplineSet
426 370 m 0,0,1
 426 282 426 282 373 243 c 128,-1,2
 320 204 320 204 231 204 c 0,3,4
 211 204 211 204 194.5 205 c 128,-1,5
 178 206 178 206 157 208 c 1,6,-1
 157 172 l 2,7,8
 157 138 157 138 163.5 116.5 c 128,-1,9
 170 95 170 95 180.5 84 c 128,-1,10
 191 73 191 73 204 69 c 128,-1,11
 217 65 217 65 231 65 c 0,12,13
 280 65 280 65 312 71 c 128,-1,14
 344 77 344 77 367 82 c 1,15,-1
 360 10 l 1,16,17
 348 7 348 7 332 3.5 c 128,-1,18
 316 0 316 0 299 -2 c 128,-1,19
 282 -4 282 -4 265.5 -5.5 c 128,-1,20
 249 -7 249 -7 235 -7 c 0,21,22
 199 -7 199 -7 169.5 0 c 128,-1,23
 140 7 140 7 118.5 27 c 128,-1,24
 97 47 97 47 85 83.5 c 128,-1,25
 73 120 73 120 73 179 c 0,26,27
 73 269 73 269 86.5 331.5 c 128,-1,28
 100 394 100 394 126 433 c 128,-1,29
 152 472 152 472 189.5 489.5 c 128,-1,30
 227 507 227 507 274 507 c 0,31,32
 316 507 316 507 345 495.5 c 128,-1,33
 374 484 374 484 392 464.5 c 128,-1,34
 410 445 410 445 418 420.5 c 128,-1,35
 426 396 426 396 426 370 c 0,0,1
273 436 m 0,36,37
 251 436 251 436 232.5 428 c 128,-1,38
 214 420 214 420 200 401.5 c 128,-1,39
 186 383 186 383 176.5 352.5 c 128,-1,40
 167 322 167 322 162 277 c 1,41,42
 177 275 177 275 189.5 274.5 c 128,-1,43
 202 274 202 274 216 274 c 0,44,45
 286 274 286 274 316 295 c 128,-1,46
 346 316 346 316 346 366 c 0,47,48
 346 380 346 380 343 393 c 128,-1,49
 340 406 340 406 332 415.5 c 128,-1,50
 324 425 324 425 310 430.5 c 128,-1,51
 296 436 296 436 273 436 c 0,36,37
EndSplineSet
EndChar

StartChar: f
Encoding: 102 102 71
Width: 306
Flags: W
LayerCount: 2
Fore
SplineSet
202 427 m 1,0,-1
 161 -43 l 2,1,2
 159 -71 159 -71 150.5 -95 c 128,-1,3
 142 -119 142 -119 126 -137 c 128,-1,4
 110 -155 110 -155 85.5 -165 c 128,-1,5
 61 -175 61 -175 25 -175 c 0,6,7
 1 -175 1 -175 -19.5 -173.5 c 128,-1,8
 -40 -172 -40 -172 -60 -170 c 1,9,-1
 -54 -99 l 1,10,11
 -38 -101 -38 -101 -16 -102 c 128,-1,12
 6 -103 6 -103 18 -103 c 0,13,14
 70 -103 70 -103 75 -48 c 2,15,-1
 117 427 l 1,16,-1
 52 427 l 1,17,-1
 58 500 l 1,18,-1
 123 500 l 1,19,-1
 130 578 l 2,20,21
 142 707 142 707 268 707 c 0,22,23
 300 707 300 707 323.5 703 c 128,-1,24
 347 699 347 699 361 696 c 1,25,-1
 355 624 l 1,26,27
 340 628 340 628 321 631.5 c 128,-1,28
 302 635 302 635 275 635 c 256,29,30
 248 635 248 635 233 621 c 128,-1,31
 218 607 218 607 216 585 c 2,32,-1
 208 500 l 1,33,-1
 329 500 l 1,34,-1
 323 427 l 1,35,-1
 202 427 l 1,0,-1
EndSplineSet
EndChar

StartChar: g
Encoding: 103 103 72
Width: 504
Flags: W
LayerCount: 2
Fore
SplineSet
74 233 m 0,0,1
 81 307 81 307 97.5 359 c 128,-1,2
 114 411 114 411 143.5 444 c 128,-1,3
 173 477 173 477 215.5 492 c 128,-1,4
 258 507 258 507 317 507 c 0,5,6
 355 507 355 507 390.5 500 c 128,-1,7
 426 493 426 493 456 485 c 1,8,-1
 416 40 l 2,9,10
 409 -37 409 -37 395 -82 c 128,-1,11
 381 -127 381 -127 357 -150 c 128,-1,12
 333 -173 333 -173 297.5 -180 c 128,-1,13
 262 -187 262 -187 212 -187 c 0,14,15
 189 -187 189 -187 156 -182.5 c 128,-1,16
 123 -178 123 -178 98 -173 c 1,17,-1
 105 -99 l 1,18,19
 116 -101 116 -101 130.5 -104 c 128,-1,20
 145 -107 145 -107 161 -109 c 128,-1,21
 177 -111 177 -111 193.5 -112.5 c 128,-1,22
 210 -114 210 -114 223 -114 c 0,23,24
 248 -114 248 -114 266.5 -109.5 c 128,-1,25
 285 -105 285 -105 297.5 -91 c 128,-1,26
 310 -77 310 -77 318 -50.5 c 128,-1,27
 326 -24 326 -24 330 20 c 2,28,-1
 333 59 l 1,29,30
 311 34 311 34 280 18.5 c 128,-1,31
 249 3 249 3 204 3 c 0,32,33
 135 3 135 3 103.5 45.5 c 128,-1,34
 72 88 72 88 72 178 c 0,35,36
 72 191 72 191 72 204.5 c 128,-1,37
 72 218 72 218 74 233 c 0,0,1
226 75 m 0,38,39
 256 75 256 75 277.5 87 c 128,-1,40
 299 99 299 99 313.5 118 c 128,-1,41
 328 137 328 137 336 159.5 c 128,-1,42
 344 182 344 182 346 203 c 2,43,-1
 366 430 l 1,44,45
 355 432 355 432 339 433.5 c 128,-1,46
 323 435 323 435 300 435 c 0,47,48
 264 435 264 435 240 421.5 c 128,-1,49
 216 408 216 408 200 381 c 128,-1,50
 184 354 184 354 175 314.5 c 128,-1,51
 166 275 166 275 161 223 c 0,52,53
 160 210 160 210 159.5 198.5 c 128,-1,54
 159 187 159 187 159 176 c 0,55,56
 159 124 159 124 174.5 99.5 c 128,-1,57
 190 75 190 75 226 75 c 0,38,39
EndSplineSet
EndChar

StartChar: h
Encoding: 104 104 73
Width: 506
Flags: W
LayerCount: 2
Fore
SplineSet
70 0 m 1,0,-1
 131 700 l 1,1,-1
 216 700 l 1,2,-1
 195 455 l 1,3,4
 216 479 216 479 244.5 493 c 128,-1,5
 273 507 273 507 314 507 c 0,6,7
 392 507 392 507 421 469.5 c 128,-1,8
 450 432 450 432 450 363 c 0,9,10
 450 353 450 353 449.5 342 c 128,-1,11
 449 331 449 331 448 320 c 2,12,-1
 421 0 l 1,13,-1
 336 0 l 1,14,-1
 363 320 l 2,15,16
 364 328 364 328 365 339.5 c 128,-1,17
 366 351 366 351 366 358 c 0,18,19
 366 392 366 392 351 413.5 c 128,-1,20
 336 435 336 435 292 435 c 0,21,22
 264 435 264 435 244 422 c 128,-1,23
 224 409 224 409 210.5 389 c 128,-1,24
 197 369 197 369 190 344 c 128,-1,25
 183 319 183 319 181 296 c 2,26,-1
 155 0 l 1,27,-1
 70 0 l 1,0,-1
EndSplineSet
EndChar

StartChar: i
Encoding: 105 105 74
Width: 245
Flags: W
LayerCount: 2
Fore
SplineSet
118 610 m 1,0,-1
 126 700 l 1,1,-1
 221 700 l 1,2,-1
 213 610 l 1,3,-1
 118 610 l 1,0,-1
70 0 m 1,4,-1
 113 500 l 1,5,-1
 198 500 l 1,6,-1
 155 0 l 1,7,-1
 70 0 l 1,4,-1
EndSplineSet
EndChar

StartChar: j
Encoding: 106 106 75
Width: 245
Flags: W
LayerCount: 2
Fore
SplineSet
151 -43 m 2,0,1
 148 -71 148 -71 139.5 -95 c 128,-1,2
 131 -119 131 -119 115 -137 c 128,-1,3
 99 -155 99 -155 74.5 -165 c 128,-1,4
 50 -175 50 -175 15 -175 c 0,5,6
 -8 -175 -8 -175 -29 -173.5 c 128,-1,7
 -50 -172 -50 -172 -70 -170 c 1,8,-1
 -64 -99 l 1,9,10
 -48 -101 -48 -101 -26 -102 c 128,-1,11
 -4 -103 -4 -103 8 -103 c 0,12,13
 60 -103 60 -103 65 -48 c 2,14,-1
 113 500 l 1,15,-1
 198 500 l 1,16,-1
 151 -43 l 2,0,1
118 610 m 1,17,-1
 126 700 l 1,18,-1
 221 700 l 1,19,-1
 213 610 l 1,20,-1
 118 610 l 1,17,-1
EndSplineSet
EndChar

StartChar: k
Encoding: 107 107 76
Width: 464
Flags: W
LayerCount: 2
Fore
SplineSet
322 0 m 1,0,-1
 206 248 l 1,1,-1
 173 214 l 1,2,-1
 155 0 l 1,3,-1
 70 0 l 1,4,-1
 131 700 l 1,5,-1
 216 700 l 1,6,-1
 183 328 l 1,7,-1
 346 500 l 1,8,-1
 455 500 l 1,9,-1
 269 307 l 1,10,-1
 419 0 l 1,11,-1
 322 0 l 1,0,-1
EndSplineSet
EndChar

StartChar: l
Encoding: 108 108 77
Width: 270
Flags: W
LayerCount: 2
Fore
SplineSet
215 5 m 1,0,1
 204 3 204 3 189 0 c 128,-1,2
 174 -3 174 -3 154 -3 c 0,3,4
 140 -3 140 -3 126 1.5 c 128,-1,5
 112 6 112 6 101.5 16.5 c 128,-1,6
 91 27 91 27 84.5 45 c 128,-1,7
 78 63 78 63 78 90 c 0,8,9
 78 95 78 95 78.5 105.5 c 128,-1,10
 79 116 79 116 80 122 c 2,11,-1
 131 700 l 1,12,-1
 216 700 l 1,13,-1
 167 137 l 2,14,15
 166 127 166 127 165 116.5 c 128,-1,16
 164 106 164 106 164 103 c 0,17,18
 164 85 164 85 170.5 77.5 c 128,-1,19
 177 70 177 70 194 70 c 0,20,21
 202 70 202 70 209.5 72 c 128,-1,22
 217 74 217 74 221 75 c 1,23,-1
 215 5 l 1,0,1
EndSplineSet
EndChar

StartChar: m
Encoding: 109 109 78
Width: 730
Flags: W
LayerCount: 2
Fore
SplineSet
70 0 m 1,0,-1
 113 500 l 1,1,-1
 183 500 l 1,2,-1
 184 446 l 1,3,4
 204 475 204 475 232.5 491 c 128,-1,5
 261 507 261 507 304 507 c 0,6,7
 354 507 354 507 381.5 489.5 c 128,-1,8
 409 472 409 472 420 440 c 1,9,10
 440 472 440 472 470.5 489.5 c 128,-1,11
 501 507 501 507 549 507 c 0,12,13
 586 507 586 507 610 497.5 c 128,-1,14
 634 488 634 488 648.5 470 c 128,-1,15
 663 452 663 452 669 426 c 128,-1,16
 675 400 675 400 675 367 c 0,17,18
 675 343 675 343 672 310 c 2,19,-1
 646 0 l 1,20,-1
 561 0 l 1,21,-1
 588 320 l 2,22,23
 589 329 589 329 590 343 c 128,-1,24
 591 357 591 357 591 365 c 0,25,26
 591 396 591 396 578.5 415.5 c 128,-1,27
 566 435 566 435 527 435 c 0,28,29
 499 435 499 435 480.5 422 c 128,-1,30
 462 409 462 409 450.5 389.5 c 128,-1,31
 439 370 439 370 433.5 346 c 128,-1,32
 428 322 428 322 426 299 c 2,33,-1
 401 0 l 1,34,-1
 316 0 l 1,35,-1
 343 320 l 2,36,37
 344 329 344 329 345 343 c 128,-1,38
 346 357 346 357 346 365 c 0,39,40
 346 396 346 396 333.5 415.5 c 128,-1,41
 321 435 321 435 282 435 c 0,42,43
 254 435 254 435 235 422 c 128,-1,44
 216 409 216 409 204.5 388.5 c 128,-1,45
 193 368 193 368 187.5 343.5 c 128,-1,46
 182 319 182 319 180 296 c 2,47,-1
 155 0 l 1,48,-1
 70 0 l 1,0,-1
EndSplineSet
EndChar

StartChar: n
Encoding: 110 110 79
Width: 506
Flags: W
LayerCount: 2
Fore
SplineSet
70 0 m 1,0,-1
 113 500 l 1,1,-1
 183 500 l 1,2,-1
 184 442 l 1,3,4
 206 472 206 472 237 489.5 c 128,-1,5
 268 507 268 507 314 507 c 0,6,7
 392 507 392 507 421 469.5 c 128,-1,8
 450 432 450 432 450 363 c 0,9,10
 450 353 450 353 449.5 342 c 128,-1,11
 449 331 449 331 448 320 c 2,12,-1
 421 0 l 1,13,-1
 336 0 l 1,14,-1
 363 320 l 2,15,16
 364 328 364 328 365 339.5 c 128,-1,17
 366 351 366 351 366 358 c 0,18,19
 366 392 366 392 351 413.5 c 128,-1,20
 336 435 336 435 292 435 c 0,21,22
 264 435 264 435 243.5 422 c 128,-1,23
 223 409 223 409 209.5 389 c 128,-1,24
 196 369 196 369 189 344 c 128,-1,25
 182 319 182 319 180 296 c 2,26,-1
 155 0 l 1,27,-1
 70 0 l 1,0,-1
EndSplineSet
EndChar

StartChar: o
Encoding: 111 111 80
Width: 510
Flags: W
LayerCount: 2
Fore
SplineSet
459 316 m 0,0,1
 459 150 459 150 408 71.5 c 128,-1,2
 357 -7 357 -7 244 -7 c 0,3,4
 204 -7 204 -7 172.5 2.5 c 128,-1,5
 141 12 141 12 119 35.5 c 128,-1,6
 97 59 97 59 85.5 98 c 128,-1,7
 74 137 74 137 74 196 c 0,8,9
 74 358 74 358 124.5 432.5 c 128,-1,10
 175 507 175 507 289 507 c 0,11,12
 459 507 459 507 459 316 c 0,0,1
369 245 m 0,13,14
 372 284 372 284 372 314 c 0,15,16
 372 382 372 382 352 409.5 c 128,-1,17
 332 437 332 437 283 437 c 0,18,19
 253 437 253 437 232 427 c 128,-1,20
 211 417 211 417 197.5 394.5 c 128,-1,21
 184 372 184 372 176 335 c 128,-1,22
 168 298 168 298 163 245 c 0,23,24
 160 215 160 215 160 190 c 0,25,26
 160 122 160 122 181 92.5 c 128,-1,27
 202 63 202 63 250 63 c 0,28,29
 306 63 306 63 333.5 105.5 c 128,-1,30
 361 148 361 148 369 245 c 0,13,14
EndSplineSet
Substitution2: "'ordn' Ordinals in Latin lookup 4 subtable" ordmasculine
Substitution2: "'aalt' Access All Alternates in Latin lookup 0 subtable" ordmasculine
EndChar

StartChar: p
Encoding: 112 112 81
Width: 499
Flags: W
LayerCount: 2
Fore
SplineSet
55 -170 m 1,0,-1
 113 500 l 1,1,-1
 183 500 l 1,2,-1
 185 444 l 1,3,4
 206 471 206 471 237 489 c 128,-1,5
 268 507 268 507 314 507 c 0,6,7
 389 507 389 507 419.5 461 c 128,-1,8
 450 415 450 415 450 334 c 0,9,10
 450 322 450 322 449.5 304 c 128,-1,11
 449 286 449 286 447 272 c 0,12,13
 440 196 440 196 425.5 142.5 c 128,-1,14
 411 89 411 89 383.5 56 c 128,-1,15
 356 23 356 23 314 8 c 128,-1,16
 272 -7 272 -7 210 -7 c 0,17,18
 196 -7 196 -7 182 -6 c 128,-1,19
 168 -5 168 -5 154 -3 c 1,20,-1
 140 -170 l 1,21,-1
 55 -170 l 1,0,-1
294 435 m 0,22,23
 261 435 261 435 239 418.5 c 128,-1,24
 217 402 217 402 204.5 377.5 c 128,-1,25
 192 353 192 353 186 325.5 c 128,-1,26
 180 298 180 298 178 276 c 2,27,-1
 160 68 l 1,28,29
 183 65 183 65 227 65 c 0,30,31
 261 65 261 65 284 78 c 128,-1,32
 307 91 307 91 322.5 116.5 c 128,-1,33
 338 142 338 142 347 181 c 128,-1,34
 356 220 356 220 360 272 c 0,35,36
 362 286 362 286 362.5 303.5 c 128,-1,37
 363 321 363 321 363 332 c 0,38,39
 363 384 363 384 347.5 409.5 c 128,-1,40
 332 435 332 435 294 435 c 0,22,23
EndSplineSet
EndChar

StartChar: q
Encoding: 113 113 82
Width: 504
Flags: W
LayerCount: 2
Fore
SplineSet
74 228 m 0,0,1
 81 302 81 302 97.5 355 c 128,-1,2
 114 408 114 408 143 441.5 c 128,-1,3
 172 475 172 475 214.5 491 c 128,-1,4
 257 507 257 507 317 507 c 0,5,6
 357 507 357 507 395 500 c 128,-1,7
 433 493 433 493 456 485 c 1,8,-1
 399 -170 l 1,9,-1
 314 -170 l 1,10,-1
 333 53 l 1,11,12
 311 27 311 27 280 10 c 128,-1,13
 249 -7 249 -7 204 -7 c 0,14,15
 133 -7 133 -7 102 37.5 c 128,-1,16
 71 82 71 82 71 171 c 0,17,18
 71 198 71 198 74 228 c 0,0,1
226 65 m 0,19,20
 256 65 256 65 277 78.5 c 128,-1,21
 298 92 298 92 312.5 112 c 128,-1,22
 327 132 327 132 335 156.5 c 128,-1,23
 343 181 343 181 346 203 c 1,24,-1
 366 430 l 1,25,26
 355 432 355 432 339 433.5 c 128,-1,27
 323 435 323 435 300 435 c 0,28,29
 264 435 264 435 240 420.5 c 128,-1,30
 216 406 216 406 200 378.5 c 128,-1,31
 184 351 184 351 175 310.5 c 128,-1,32
 166 270 166 270 161 218 c 0,33,34
 160 205 160 205 159.5 193 c 128,-1,35
 159 181 159 181 159 170 c 0,36,37
 159 117 159 117 174.5 91 c 128,-1,38
 190 65 190 65 226 65 c 0,19,20
EndSplineSet
EndChar

StartChar: r
Encoding: 114 114 83
Width: 338
Flags: W
LayerCount: 2
Fore
SplineSet
339 414 m 1,0,1
 326 417 326 417 309.5 419.5 c 128,-1,2
 293 422 293 422 279 422 c 0,3,4
 254 422 254 422 236 408.5 c 128,-1,5
 218 395 218 395 206 374 c 128,-1,6
 194 353 194 353 187.5 327 c 128,-1,7
 181 301 181 301 179 276 c 2,8,-1
 155 0 l 1,9,-1
 70 0 l 1,10,-1
 113 500 l 1,11,-1
 183 500 l 1,12,-1
 185 438 l 1,13,14
 205 468 205 468 231.5 487.5 c 128,-1,15
 258 507 258 507 294 507 c 0,16,17
 312 507 312 507 323.5 505 c 128,-1,18
 335 503 335 503 346 501 c 1,19,-1
 339 414 l 1,0,1
EndSplineSet
EndChar

StartChar: s
Encoding: 115 115 84
Width: 402
Flags: W
LayerCount: 2
Fore
SplineSet
355 165 m 0,0,1
 355 76 355 76 312 34.5 c 128,-1,2
 269 -7 269 -7 173 -7 c 0,3,4
 130 -7 130 -7 100.5 -2 c 128,-1,5
 71 3 71 3 54 8 c 1,6,-1
 61 81 l 1,7,8
 70 79 70 79 84 76.5 c 128,-1,9
 98 74 98 74 114.5 71.5 c 128,-1,10
 131 69 131 69 149.5 67 c 128,-1,11
 168 65 168 65 186 65 c 0,12,13
 210 65 210 65 225.5 74 c 128,-1,14
 241 83 241 83 250 96.5 c 128,-1,15
 259 110 259 110 262.5 125.5 c 128,-1,16
 266 141 266 141 266 155 c 0,17,18
 266 182 266 182 253.5 195.5 c 128,-1,19
 241 209 241 209 209 217 c 0,20,21
 140 233 140 233 110 265.5 c 128,-1,22
 80 298 80 298 80 343 c 0,23,24
 80 433 80 433 127.5 470 c 128,-1,25
 175 507 175 507 259 507 c 0,26,27
 296 507 296 507 324.5 501.5 c 128,-1,28
 353 496 353 496 367 492 c 1,29,-1
 361 419 l 1,30,31
 349 422 349 422 337 425 c 128,-1,32
 325 428 325 428 312 430 c 128,-1,33
 299 432 299 432 283.5 433.5 c 128,-1,34
 268 435 268 435 248 435 c 0,35,36
 224 435 224 435 208.5 428 c 128,-1,37
 193 421 193 421 184 409.5 c 128,-1,38
 175 398 175 398 171.5 383.5 c 128,-1,39
 168 369 168 369 168 354 c 0,40,41
 168 330 168 330 182 316.5 c 128,-1,42
 196 303 196 303 227 297 c 0,43,44
 297 283 297 283 326 249.5 c 128,-1,45
 355 216 355 216 355 165 c 0,0,1
EndSplineSet
EndChar

StartChar: t
Encoding: 116 116 85
Width: 321
Flags: W
LayerCount: 2
Fore
SplineSet
202 425 m 1,0,-1
 177 142 l 2,1,2
 176 134 176 134 175.5 124.5 c 128,-1,3
 175 115 175 115 175 113 c 0,4,5
 175 106 175 106 177 97.5 c 128,-1,6
 179 89 179 89 184 82 c 128,-1,7
 189 75 189 75 197.5 70.5 c 128,-1,8
 206 66 206 66 220 66 c 0,9,10
 241 66 241 66 258.5 69 c 128,-1,11
 276 72 276 72 287 75 c 1,12,-1
 281 5 l 1,13,14
 271 2 271 2 246 -2 c 128,-1,15
 221 -6 221 -6 194 -6 c 0,16,17
 137 -6 137 -6 113 25.5 c 128,-1,18
 89 57 89 57 89 106 c 0,19,20
 89 113 89 113 90 124.5 c 128,-1,21
 91 136 91 136 92 145 c 2,22,-1
 117 425 l 1,23,-1
 52 425 l 1,24,-1
 58 500 l 1,25,-1
 123 500 l 1,26,-1
 134 620 l 1,27,-1
 219 620 l 1,28,-1
 208 500 l 1,29,-1
 324 500 l 1,30,-1
 318 425 l 1,31,-1
 202 425 l 1,0,-1
EndSplineSet
EndChar

StartChar: u
Encoding: 117 117 86
Width: 491
Flags: W
LayerCount: 2
Fore
SplineSet
193 500 m 1,0,-1
 165 170 l 2,1,2
 164 159 164 159 163.5 149.5 c 128,-1,3
 163 140 163 140 163 131 c 0,4,5
 163 102 163 102 175 83.5 c 128,-1,6
 187 65 187 65 227 65 c 0,7,8
 256 65 256 65 276 79 c 128,-1,9
 296 93 296 93 308.5 115 c 128,-1,10
 321 137 321 137 327 162.5 c 128,-1,11
 333 188 333 188 335 211 c 2,12,-1
 359 500 l 1,13,-1
 444 500 l 1,14,-1
 401 0 l 1,15,-1
 331 0 l 1,16,-1
 329 53 l 1,17,18
 309 25 309 25 280 9 c 128,-1,19
 251 -7 251 -7 207 -7 c 0,20,21
 169 -7 169 -7 144.5 2.5 c 128,-1,22
 120 12 120 12 105.5 29.5 c 128,-1,23
 91 47 91 47 85 72.5 c 128,-1,24
 79 98 79 98 79 130 c 0,25,26
 79 142 79 142 79.5 154 c 128,-1,27
 80 166 80 166 81 180 c 2,28,-1
 108 500 l 1,29,-1
 193 500 l 1,0,-1
EndSplineSet
EndChar

StartChar: v
Encoding: 118 118 87
Width: 462
Flags: W
LayerCount: 2
Fore
SplineSet
283 0 m 1,0,-1
 160 0 l 1,1,-1
 68 500 l 1,2,-1
 157 500 l 1,3,-1
 228 69 l 1,4,-1
 371 500 l 1,5,-1
 460 500 l 1,6,-1
 283 0 l 1,0,-1
EndSplineSet
EndChar

StartChar: w
Encoding: 119 119 88
Width: 670
Flags: W
LayerCount: 2
Fore
SplineSet
521 0 m 1,0,-1
 390 0 l 1,1,-1
 350 271 l 1,2,-1
 258 0 l 1,3,-1
 130 0 l 1,4,-1
 73 500 l 1,5,-1
 160 500 l 1,6,-1
 202 64 l 1,7,-1
 322 410 l 1,8,-1
 407 410 l 1,9,-1
 460 64 l 1,10,-1
 579 500 l 1,11,-1
 663 500 l 1,12,-1
 521 0 l 1,0,-1
EndSplineSet
EndChar

StartChar: x
Encoding: 120 120 89
Width: 464
Flags: W
LayerCount: 2
Fore
SplineSet
320 0 m 1,0,-1
 241 183 l 1,1,-1
 125 0 l 1,2,-1
 30 0 l 1,3,-1
 197 258 l 1,4,-1
 85 500 l 1,5,-1
 183 500 l 1,6,-1
 253 337 l 1,7,-1
 355 500 l 1,8,-1
 449 500 l 1,9,-1
 293 262 l 1,10,-1
 419 0 l 1,11,-1
 320 0 l 1,0,-1
EndSplineSet
EndChar

StartChar: y
Encoding: 121 121 90
Width: 463
Flags: W
LayerCount: 2
Fore
SplineSet
269 -44 m 2,0,1
 259 -73 259 -73 247.5 -97.5 c 128,-1,2
 236 -122 236 -122 221 -139 c 128,-1,3
 206 -156 206 -156 184.5 -165.5 c 128,-1,4
 163 -175 163 -175 133 -175 c 0,5,6
 117 -175 117 -175 101.5 -173 c 128,-1,7
 86 -171 86 -171 77 -169 c 1,8,-1
 83 -96 l 1,9,10
 94 -98 94 -98 107 -99 c 128,-1,11
 120 -100 120 -100 135 -100 c 256,12,13
 150 -100 150 -100 160.5 -88.5 c 128,-1,14
 171 -77 171 -77 179 -55 c 2,15,-1
 200 0 l 1,16,-1
 180 0 l 1,17,-1
 68 500 l 1,18,-1
 158 500 l 1,19,-1
 239 87 l 1,20,-1
 372 500 l 1,21,-1
 461 500 l 1,22,-1
 269 -44 l 2,0,1
EndSplineSet
EndChar

StartChar: z
Encoding: 122 122 91
Width: 403
Flags: W
LayerCount: 2
Fore
SplineSet
135 74 m 1,0,-1
 339 74 l 1,1,-1
 333 0 l 1,2,-1
 35 0 l 1,3,-1
 41 80 l 1,4,-1
 287 426 l 1,5,-1
 92 426 l 1,6,-1
 98 500 l 1,7,-1
 386 500 l 1,8,-1
 378 411 l 1,9,-1
 135 74 l 1,0,-1
EndSplineSet
EndChar

StartChar: braceleft
Encoding: 123 123 92
Width: 325
Flags: W
LayerCount: 2
Fore
SplineSet
182 -19 m 0,0,1
 182 -39 182 -39 192 -47 c 128,-1,2
 202 -55 202 -55 224 -55 c 0,3,4
 234 -55 234 -55 242 -54 c 128,-1,5
 250 -53 250 -53 255 -52 c 1,6,-1
 249 -120 l 1,7,8
 241 -122 241 -122 227.5 -123.5 c 128,-1,9
 214 -125 214 -125 204 -125 c 0,10,11
 150 -125 150 -125 127.5 -99 c 128,-1,12
 105 -73 105 -73 105 -22 c 0,13,14
 105 -17 105 -17 105.5 -6 c 128,-1,15
 106 5 106 5 107 12 c 2,16,-1
 121 181 l 2,17,18
 122 189 122 189 123 201.5 c 128,-1,19
 124 214 124 214 124 218 c 0,20,21
 124 244 124 244 117 259 c 128,-1,22
 110 274 110 274 99.5 282 c 128,-1,23
 89 290 89 290 76 292.5 c 128,-1,24
 63 295 63 295 50 295 c 1,25,-1
 60 405 l 1,26,27
 74 405 74 405 89 408 c 128,-1,28
 104 411 104 411 116.5 421 c 128,-1,29
 129 431 129 431 137.5 449.5 c 128,-1,30
 146 468 146 468 149 499 c 2,31,-1
 167 698 l 2,32,33
 170 731 170 731 177 755 c 128,-1,34
 184 779 184 779 197.5 794.5 c 128,-1,35
 211 810 211 810 232.5 817.5 c 128,-1,36
 254 825 254 825 287 825 c 0,37,38
 297 825 297 825 310 823.5 c 128,-1,39
 323 822 323 822 331 820 c 1,40,-1
 325 752 l 1,41,42
 320 753 320 753 312.5 754 c 128,-1,43
 305 755 305 755 295 755 c 0,44,45
 272 755 272 755 260 745.5 c 128,-1,46
 248 736 248 736 246 713 c 2,47,-1
 225 469 l 2,48,49
 222 436 222 436 210 414 c 128,-1,50
 198 392 198 392 181.5 378 c 128,-1,51
 165 364 165 364 145.5 357 c 128,-1,52
 126 350 126 350 109 347 c 1,53,54
 125 345 125 345 142 337.5 c 128,-1,55
 159 330 159 330 173 316.5 c 128,-1,56
 187 303 187 303 196 284 c 128,-1,57
 205 265 205 265 205 241 c 0,58,59
 205 239 205 239 204 228.5 c 128,-1,60
 203 218 203 218 202 211 c 2,61,-1
 185 17 l 2,62,63
 184 6 184 6 183 -5.5 c 128,-1,64
 182 -17 182 -17 182 -19 c 0,0,1
EndSplineSet
EndChar

StartChar: bar
Encoding: 124 124 93
Width: 290
Flags: W
LayerCount: 2
Fore
SplineSet
85 -110 m 1,0,-1
 165 810 l 1,1,-1
 245 810 l 1,2,-1
 165 -110 l 1,3,-1
 85 -110 l 1,0,-1
EndSplineSet
EndChar

StartChar: braceright
Encoding: 125 125 94
Width: 325
Flags: W
LayerCount: 2
Fore
SplineSet
305 295 m 1,0,1
 291 295 291 295 276.5 292 c 128,-1,2
 262 289 262 289 249.5 279 c 128,-1,3
 237 269 237 269 228 250.5 c 128,-1,4
 219 232 219 232 216 201 c 2,5,-1
 199 2 l 2,6,7
 196 -34 196 -34 188 -58.5 c 128,-1,8
 180 -83 180 -83 165.5 -97.5 c 128,-1,9
 151 -112 151 -112 129.5 -118.5 c 128,-1,10
 108 -125 108 -125 79 -125 c 0,11,12
 69 -125 69 -125 55.5 -123.5 c 128,-1,13
 42 -122 42 -122 34 -120 c 1,14,-1
 40 -52 l 1,15,16
 45 -53 45 -53 53 -54 c 128,-1,17
 61 -55 61 -55 71 -55 c 0,18,19
 95 -55 95 -55 106 -45.5 c 128,-1,20
 117 -36 117 -36 119 -13 c 2,21,-1
 141 231 l 2,22,23
 144 263 144 263 156 285 c 128,-1,24
 168 307 168 307 184.5 321.5 c 128,-1,25
 201 336 201 336 220 343.5 c 128,-1,26
 239 351 239 351 256 353 c 1,27,28
 241 356 241 356 224 363.5 c 128,-1,29
 207 371 207 371 193.5 383.5 c 128,-1,30
 180 396 180 396 171 414.5 c 128,-1,31
 162 433 162 433 162 457 c 0,32,33
 162 460 162 460 162.5 470 c 128,-1,34
 163 480 163 480 164 489 c 2,35,-1
 181 689 l 2,36,37
 182 700 182 700 183 709.5 c 128,-1,38
 184 719 184 719 184 721 c 0,39,40
 184 755 184 755 142 755 c 0,41,42
 132 755 132 755 123.5 754 c 128,-1,43
 115 753 115 753 110 752 c 1,44,-1
 116 820 l 1,45,46
 124 822 124 822 138 823.5 c 128,-1,47
 152 825 152 825 162 825 c 0,48,49
 216 825 216 825 238.5 799 c 128,-1,50
 261 773 261 773 261 722 c 0,51,52
 261 719 261 719 260.5 713.5 c 128,-1,53
 260 708 260 708 259.5 701 c 128,-1,54
 259 694 259 694 258.5 687.5 c 128,-1,55
 258 681 258 681 258 678 c 2,56,-1
 244 519 l 2,57,58
 243 511 243 511 242 499 c 128,-1,59
 241 487 241 487 241 482 c 0,60,61
 241 457 241 457 248 442 c 128,-1,62
 255 427 255 427 265.5 418.5 c 128,-1,63
 276 410 276 410 289 407.5 c 128,-1,64
 302 405 302 405 315 405 c 1,65,-1
 305 295 l 1,0,1
EndSplineSet
EndChar

StartChar: asciitilde
Encoding: 126 126 95
Width: 510
Flags: W
LayerCount: 2
Fore
SplineSet
105 344 m 1,0,1
 141 365 141 365 164 371 c 128,-1,2
 187 377 187 377 209 377 c 0,3,4
 229 377 229 377 246.5 371 c 128,-1,5
 264 365 264 365 280.5 357.5 c 128,-1,6
 297 350 297 350 314.5 344 c 128,-1,7
 332 338 332 338 351 338 c 0,8,9
 377 338 377 338 401 349 c 128,-1,10
 425 360 425 360 447 374 c 1,11,-1
 440 296 l 1,12,13
 417 281 417 281 390.5 272 c 128,-1,14
 364 263 364 263 336 263 c 0,15,16
 315 263 315 263 298 269 c 128,-1,17
 281 275 281 275 265 282.5 c 128,-1,18
 249 290 249 290 232 296 c 128,-1,19
 215 302 215 302 194 302 c 0,20,21
 168 302 168 302 144 291 c 128,-1,22
 120 280 120 280 98 266 c 1,23,-1
 105 344 l 1,0,1
EndSplineSet
EndChar

StartChar: exclamdown
Encoding: 161 161 96
Width: 250
Flags: W
LayerCount: 2
Fore
SplineSet
208 500 m 1,0,-1
 199 400 l 1,1,-1
 99 400 l 1,2,-1
 108 500 l 1,3,-1
 208 500 l 1,0,-1
183 292 m 1,4,-1
 140 -200 l 1,5,-1
 55 -200 l 1,6,-1
 98 292 l 1,7,-1
 183 292 l 1,4,-1
EndSplineSet
EndChar

StartChar: cent
Encoding: 162 162 97
Width: 470
Flags: W
LayerCount: 2
Fore
SplineSet
218 -100 m 1,0,-1
 226 -6 l 1,1,2
 197 -3 197 -3 174.5 6.5 c 128,-1,3
 152 16 152 16 137 37 c 128,-1,4
 122 58 122 58 114 92.5 c 128,-1,5
 106 127 106 127 106 178 c 0,6,7
 106 259 106 259 116 318 c 128,-1,8
 126 377 126 377 146.5 416.5 c 128,-1,9
 167 456 167 456 197.5 477 c 128,-1,10
 228 498 228 498 270 504 c 1,11,-1
 279 600 l 1,12,-1
 359 600 l 1,13,-1
 350 502 l 1,14,15
 367 500 367 500 384 496.5 c 128,-1,16
 401 493 401 493 414 490 c 1,17,-1
 408 415 l 1,18,19
 382 422 382 422 356 426.5 c 128,-1,20
 330 431 330 431 293 431 c 0,21,22
 271 431 271 431 255 422 c 128,-1,23
 239 413 239 413 227 390.5 c 128,-1,24
 215 368 215 368 207.5 331.5 c 128,-1,25
 200 295 200 295 195 239 c 0,26,27
 192 203 192 203 192 177 c 0,28,29
 192 141 192 141 197 119.5 c 128,-1,30
 202 98 202 98 211 86.5 c 128,-1,31
 220 75 220 75 233 71 c 128,-1,32
 246 67 246 67 262 67 c 0,33,34
 300 67 300 67 328 73 c 128,-1,35
 356 79 356 79 379 84 c 1,36,-1
 372 9 l 1,37,38
 340 -1 340 -1 306 -5 c 1,39,-1
 298 -100 l 1,40,-1
 218 -100 l 1,0,-1
EndSplineSet
EndChar

StartChar: sterling
Encoding: 163 163 98
Width: 470
Flags: W
LayerCount: 2
Fore
SplineSet
248 413 m 1,0,-1
 377 413 l 1,1,-1
 370 340 l 1,2,-1
 242 340 l 1,3,-1
 218 73 l 1,4,-1
 417 73 l 1,5,-1
 411 0 l 1,6,-1
 56 0 l 1,7,-1
 62 73 l 1,8,-1
 131 73 l 1,9,-1
 155 340 l 1,10,-1
 85 340 l 1,11,-1
 92 413 l 1,12,-1
 162 413 l 1,13,-1
 167 469 l 2,14,15
 174 543 174 543 187 589.5 c 128,-1,16
 200 636 200 636 223.5 662 c 128,-1,17
 247 688 247 688 281.5 697.5 c 128,-1,18
 316 707 316 707 366 707 c 0,19,20
 383 707 383 707 410.5 703 c 128,-1,21
 438 699 438 699 461 694 c 1,22,-1
 455 620 l 1,23,24
 445 622 445 622 432 624.5 c 128,-1,25
 419 627 419 627 406 628.5 c 128,-1,26
 393 630 393 630 382.5 631 c 128,-1,27
 372 632 372 632 366 632 c 0,28,29
 336 632 336 632 316.5 627 c 128,-1,30
 297 622 297 622 284.5 605.5 c 128,-1,31
 272 589 272 589 265.5 558 c 128,-1,32
 259 527 259 527 254 476 c 2,33,-1
 248 413 l 1,0,-1
EndSplineSet
EndChar

StartChar: fraction
Encoding: 8260 8260 99
Width: 230
Flags: W
LayerCount: 2
Fore
SplineSet
-23 -100 m 1,0,-1
 -103 -100 l 1,1,-1
 295 810 l 1,2,-1
 375 810 l 1,3,-1
 -23 -100 l 1,0,-1
EndSplineSet
EndChar

StartChar: yen
Encoding: 165 165 100
Width: 470
Flags: W
LayerCount: 2
Fore
SplineSet
279 115 m 1,0,-1
 269 0 l 1,1,-1
 179 0 l 1,2,-1
 189 115 l 1,3,-1
 59 115 l 1,4,-1
 65 190 l 1,5,-1
 195 190 l 1,6,-1
 202 265 l 1,7,-1
 72 265 l 1,8,-1
 78 340 l 1,9,-1
 206 340 l 1,10,-1
 71 700 l 1,11,-1
 165 700 l 1,12,-1
 263 427 l 1,13,-1
 408 700 l 1,14,-1
 501 700 l 1,15,-1
 301 340 l 1,16,-1
 428 340 l 1,17,-1
 422 265 l 1,18,-1
 292 265 l 1,19,-1
 285 190 l 1,20,-1
 415 190 l 1,21,-1
 409 115 l 1,22,-1
 279 115 l 1,0,-1
EndSplineSet
EndChar

StartChar: florin
Encoding: 402 402 101
Width: 306
Flags: W
LayerCount: 2
Fore
SplineSet
202 427 m 1,0,-1
 161 -43 l 2,1,2
 159 -71 159 -71 150.5 -95 c 128,-1,3
 142 -119 142 -119 126 -137 c 128,-1,4
 110 -155 110 -155 85.5 -165 c 128,-1,5
 61 -175 61 -175 25 -175 c 0,6,7
 1 -175 1 -175 -19.5 -173.5 c 128,-1,8
 -40 -172 -40 -172 -60 -170 c 1,9,-1
 -54 -99 l 1,10,11
 -38 -101 -38 -101 -16 -102 c 128,-1,12
 6 -103 6 -103 18 -103 c 0,13,14
 70 -103 70 -103 75 -48 c 2,15,-1
 117 427 l 1,16,-1
 52 427 l 1,17,-1
 58 500 l 1,18,-1
 123 500 l 1,19,-1
 130 578 l 2,20,21
 142 707 142 707 268 707 c 0,22,23
 300 707 300 707 323.5 703 c 128,-1,24
 347 699 347 699 361 696 c 1,25,-1
 355 624 l 1,26,27
 340 628 340 628 321 631.5 c 128,-1,28
 302 635 302 635 275 635 c 256,29,30
 248 635 248 635 233 621 c 128,-1,31
 218 607 218 607 216 585 c 2,32,-1
 208 500 l 1,33,-1
 329 500 l 1,34,-1
 323 427 l 1,35,-1
 202 427 l 1,0,-1
EndSplineSet
EndChar

StartChar: section
Encoding: 167 167 102
Width: 470
Flags: W
LayerCount: 2
Fore
SplineSet
102 328 m 0,0,1
 102 373 102 373 122 408 c 128,-1,2
 142 443 142 443 176 461 c 1,3,4
 157 475 157 475 148 500 c 128,-1,5
 139 525 139 525 139 549 c 0,6,7
 139 593 139 593 153 623 c 128,-1,8
 167 653 167 653 191.5 672 c 128,-1,9
 216 691 216 691 249 699 c 128,-1,10
 282 707 282 707 320 707 c 0,11,12
 359 707 359 707 385 700.5 c 128,-1,13
 411 694 411 694 426 690 c 1,14,-1
 420 618 l 1,15,16
 407 621 407 621 395.5 624.5 c 128,-1,17
 384 628 384 628 370.5 630.5 c 128,-1,18
 357 633 357 633 341.5 634.5 c 128,-1,19
 326 636 326 636 306 636 c 0,20,21
 281 636 281 636 265 627.5 c 128,-1,22
 249 619 249 619 239.5 606.5 c 128,-1,23
 230 594 230 594 226.5 580 c 128,-1,24
 223 566 223 566 223 555 c 0,25,26
 223 504 223 504 281 494 c 0,27,28
 316 488 316 488 340.5 476 c 128,-1,29
 365 464 365 464 380 447 c 128,-1,30
 395 430 395 430 401.5 410 c 128,-1,31
 408 390 408 390 408 368 c 0,32,33
 408 319 408 319 385.5 287.5 c 128,-1,34
 363 256 363 256 331 238 c 1,35,36
 353 224 353 224 362.5 200.5 c 128,-1,37
 372 177 372 177 372 151 c 0,38,39
 372 108 372 108 359 78 c 128,-1,40
 346 48 346 48 322.5 29 c 128,-1,41
 299 10 299 10 265.5 1.5 c 128,-1,42
 232 -7 232 -7 190 -7 c 0,43,44
 151 -7 151 -7 125 -1 c 128,-1,45
 99 5 99 5 84 9 c 1,46,-1
 91 82 l 1,47,48
 116 75 116 75 140 69.5 c 128,-1,49
 164 64 164 64 204 64 c 0,50,51
 241 64 241 64 264.5 88 c 128,-1,52
 288 112 288 112 288 144 c 0,53,54
 288 197 288 197 230 206 c 0,55,56
 159 218 159 218 130.5 248.5 c 128,-1,57
 102 279 102 279 102 328 c 0,0,1
322 364 m 0,58,59
 322 390 322 390 306.5 407.5 c 128,-1,60
 291 425 291 425 242 433 c 1,61,62
 230 429 230 429 220.5 419 c 128,-1,63
 211 409 211 409 203.5 395.5 c 128,-1,64
 196 382 196 382 192 366.5 c 128,-1,65
 188 351 188 351 188 335 c 0,66,67
 188 309 188 309 203 292.5 c 128,-1,68
 218 276 218 276 264 268 c 1,69,70
 273 272 273 272 283.5 282 c 128,-1,71
 294 292 294 292 302.5 305.5 c 128,-1,72
 311 319 311 319 316.5 334 c 128,-1,73
 322 349 322 349 322 364 c 0,58,59
EndSplineSet
EndChar

StartChar: currency
Encoding: 164 164 103
Width: 570
Flags: W
LayerCount: 2
Fore
SplineSet
442 106 m 1,0,1
 414 85 414 85 379 75 c 128,-1,2
 344 65 344 65 305 65 c 0,3,4
 223 65 223 65 167 106 c 1,5,-1
 108 47 l 1,6,-1
 52 103 l 1,7,-1
 115 166 l 1,8,9
 101 192 101 192 93 225.5 c 128,-1,10
 85 259 85 259 85 300 c 256,11,12
 85 341 85 341 93 374 c 128,-1,13
 101 407 101 407 115 433 c 1,14,-1
 52 497 l 1,15,-1
 108 553 l 1,16,-1
 167 494 l 1,17,18
 225 535 225 535 305 535 c 0,19,20
 344 535 344 535 379 524.5 c 128,-1,21
 414 514 414 514 442 494 c 1,22,-1
 502 553 l 1,23,-1
 558 497 l 1,24,-1
 495 433 l 1,25,26
 509 407 509 407 517 374 c 128,-1,27
 525 341 525 341 525 300 c 256,28,29
 525 259 525 259 517 225.5 c 128,-1,30
 509 192 509 192 495 166 c 1,31,-1
 558 103 l 1,32,-1
 502 47 l 1,33,-1
 442 106 l 1,0,1
438 300 m 0,34,35
 438 341 438 341 428 371.5 c 128,-1,36
 418 402 418 402 400 423 c 128,-1,37
 382 444 382 444 357.5 454.5 c 128,-1,38
 333 465 333 465 305 465 c 256,39,40
 277 465 277 465 252.5 454.5 c 128,-1,41
 228 444 228 444 210 423 c 128,-1,42
 192 402 192 402 182 371.5 c 128,-1,43
 172 341 172 341 172 300 c 0,44,45
 172 260 172 260 182 229 c 128,-1,46
 192 198 192 198 210 177 c 128,-1,47
 228 156 228 156 252.5 145.5 c 128,-1,48
 277 135 277 135 305 135 c 256,49,50
 333 135 333 135 357.5 145.5 c 128,-1,51
 382 156 382 156 400 177 c 128,-1,52
 418 198 418 198 428 229 c 128,-1,53
 438 260 438 260 438 300 c 0,34,35
EndSplineSet
EndChar

StartChar: quotesingle
Encoding: 39 39 104
Width: 205
Flags: W
LayerCount: 2
Fore
SplineSet
159 453 m 1,0,-1
 104 453 l 1,1,-1
 98 610 l 1,2,-1
 106 700 l 1,3,-1
 201 700 l 1,4,-1
 193 610 l 1,5,-1
 159 453 l 1,0,-1
EndSplineSet
EndChar

StartChar: quotedblleft
Encoding: 8220 8220 105
Width: 360
Flags: W
LayerCount: 2
Fore
SplineSet
136 699 m 1,0,-1
 201 699 l 1,1,-1
 157 542 l 1,2,-1
 149 452 l 1,3,-1
 54 452 l 1,4,-1
 62 542 l 1,5,-1
 136 699 l 1,0,-1
291 699 m 1,6,-1
 356 699 l 1,7,-1
 312 542 l 1,8,-1
 304 452 l 1,9,-1
 209 452 l 1,10,-1
 217 542 l 1,11,-1
 291 699 l 1,6,-1
EndSplineSet
EndChar

StartChar: guillemotleft
Encoding: 171 171 106
Width: 465
Flags: W
LayerCount: 2
Fore
SplineSet
162 92 m 1,0,-1
 91 299 l 1,1,-1
 198 506 l 1,2,-1
 265 506 l 1,3,-1
 183 299 l 1,4,-1
 228 92 l 1,5,-1
 162 92 l 1,0,-1
322 92 m 1,6,-1
 251 299 l 1,7,-1
 358 506 l 1,8,-1
 425 506 l 1,9,-1
 343 299 l 1,10,-1
 388 92 l 1,11,-1
 322 92 l 1,6,-1
EndSplineSet
EndChar

StartChar: guilsinglleft
Encoding: 8249 8249 107
Width: 305
Flags: W
LayerCount: 2
Fore
SplineSet
162 92 m 1,0,-1
 91 299 l 1,1,-1
 198 506 l 1,2,-1
 265 506 l 1,3,-1
 183 299 l 1,4,-1
 227 92 l 1,5,-1
 162 92 l 1,0,-1
EndSplineSet
EndChar

StartChar: guilsinglright
Encoding: 8250 8250 108
Width: 305
Flags: W
LayerCount: 2
Fore
SplineSet
72 92 m 1,0,-1
 154 299 l 1,1,-1
 110 506 l 1,2,-1
 175 506 l 1,3,-1
 246 299 l 1,4,-1
 139 92 l 1,5,-1
 72 92 l 1,0,-1
EndSplineSet
EndChar

StartChar: fi
Encoding: 64257 64257 109
Width: 510
Flags: W
LayerCount: 2
Fore
SplineSet
335 0 m 1,0,-1
 371 427 l 1,1,-1
 202 427 l 1,2,-1
 161 -43 l 2,3,4
 159 -71 159 -71 150.5 -95 c 128,-1,5
 142 -119 142 -119 126 -137 c 128,-1,6
 110 -155 110 -155 85.5 -165 c 128,-1,7
 61 -175 61 -175 25 -175 c 0,8,9
 1 -175 1 -175 -19.5 -173.5 c 128,-1,10
 -40 -172 -40 -172 -60 -170 c 1,11,-1
 -54 -99 l 1,12,13
 -38 -101 -38 -101 -16 -102 c 128,-1,14
 6 -103 6 -103 18 -103 c 0,15,16
 70 -103 70 -103 75 -48 c 2,17,-1
 117 427 l 1,18,-1
 52 427 l 1,19,-1
 58 500 l 1,20,-1
 123 500 l 1,21,-1
 128 558 l 2,22,23
 131 593 131 593 140.5 621 c 128,-1,24
 150 649 150 649 170.5 668 c 128,-1,25
 191 687 191 687 224.5 697 c 128,-1,26
 258 707 258 707 308 707 c 0,27,28
 340 707 340 707 380 701.5 c 128,-1,29
 420 696 420 696 459 687 c 1,30,-1
 452 617 l 1,31,32
 417 628 417 628 379.5 632.5 c 128,-1,33
 342 637 342 637 315 637 c 0,34,35
 284 637 284 637 265 632 c 128,-1,36
 246 627 246 627 235 618 c 128,-1,37
 224 609 224 609 220 595.5 c 128,-1,38
 216 582 216 582 214 565 c 2,39,-1
 208 500 l 1,40,-1
 463 500 l 1,41,-1
 420 0 l 1,42,-1
 335 0 l 1,0,-1
EndSplineSet
Ligature2: "'liga' Standard Ligatures in Latin lookup 3 subtable" f i
EndChar

StartChar: fl
Encoding: 64258 64258 110
Width: 525
Flags: W
LayerCount: 2
Fore
SplineSet
480 5 m 1,0,1
 469 3 469 3 454 0 c 128,-1,2
 439 -3 439 -3 419 -3 c 0,3,4
 405 -3 405 -3 391 1.5 c 128,-1,5
 377 6 377 6 366.5 16.5 c 128,-1,6
 356 27 356 27 349.5 45 c 128,-1,7
 343 63 343 63 343 90 c 0,8,9
 343 95 343 95 343.5 105.5 c 128,-1,10
 344 116 344 116 345 122 c 2,11,-1
 390 632 l 1,12,13
 369 635 369 635 349.5 636.5 c 128,-1,14
 330 638 330 638 315 638 c 0,15,16
 284 638 284 638 265 633 c 128,-1,17
 246 628 246 628 235 618.5 c 128,-1,18
 224 609 224 609 220 595.5 c 128,-1,19
 216 582 216 582 214 565 c 2,20,-1
 208 500 l 1,21,-1
 302 500 l 1,22,-1
 296 427 l 1,23,-1
 202 427 l 1,24,-1
 161 -43 l 2,25,26
 159 -71 159 -71 150.5 -95 c 128,-1,27
 142 -119 142 -119 126 -137 c 128,-1,28
 110 -155 110 -155 85.5 -165 c 128,-1,29
 61 -175 61 -175 25 -175 c 0,30,31
 1 -175 1 -175 -19.5 -173.5 c 128,-1,32
 -40 -172 -40 -172 -60 -170 c 1,33,-1
 -54 -99 l 1,34,35
 -38 -101 -38 -101 -16 -102 c 128,-1,36
 6 -103 6 -103 18 -103 c 0,37,38
 70 -103 70 -103 75 -48 c 2,39,-1
 117 427 l 1,40,-1
 52 427 l 1,41,-1
 58 500 l 1,42,-1
 123 500 l 1,43,-1
 128 558 l 2,44,45
 131 593 131 593 140.5 621 c 128,-1,46
 150 649 150 649 170.5 668 c 128,-1,47
 191 687 191 687 224.5 697 c 128,-1,48
 258 707 258 707 308 707 c 0,49,50
 333 707 333 707 356.5 704.5 c 128,-1,51
 380 702 380 702 396 700 c 1,52,-1
 481 700 l 1,53,-1
 432 137 l 2,54,55
 431 127 431 127 430 116.5 c 128,-1,56
 429 106 429 106 429 103 c 0,57,58
 429 85 429 85 435.5 77.5 c 128,-1,59
 442 70 442 70 459 70 c 0,60,61
 467 70 467 70 474.5 72 c 128,-1,62
 482 74 482 74 486 75 c 1,63,-1
 480 5 l 1,0,1
EndSplineSet
Ligature2: "'liga' Standard Ligatures in Latin lookup 3 subtable" f l
EndChar

StartChar: endash
Encoding: 8211 8211 111
Width: 550
Flags: W
LayerCount: 2
Fore
SplineSet
99 275 m 1,0,-1
 105 350 l 1,1,-1
 485 350 l 1,2,-1
 479 275 l 1,3,-1
 99 275 l 1,0,-1
EndSplineSet
EndChar

StartChar: dagger
Encoding: 8224 8224 112
Width: 451
Flags: W
LayerCount: 2
Fore
SplineSet
176 0 m 1,0,-1
 213 425 l 1,1,-1
 72 425 l 1,2,-1
 78 500 l 1,3,-1
 219 500 l 1,4,-1
 237 700 l 1,5,-1
 317 700 l 1,6,-1
 299 500 l 1,7,-1
 439 500 l 1,8,-1
 433 425 l 1,9,-1
 293 425 l 1,10,-1
 256 0 l 1,11,-1
 176 0 l 1,0,-1
EndSplineSet
EndChar

StartChar: daggerdbl
Encoding: 8225 8225 113
Width: 451
Flags: W
LayerCount: 2
Fore
SplineSet
176 0 m 1,0,-1
 194 210 l 1,1,-1
 53 210 l 1,2,-1
 59 285 l 1,3,-1
 201 285 l 1,4,-1
 213 425 l 1,5,-1
 72 425 l 1,6,-1
 78 500 l 1,7,-1
 219 500 l 1,8,-1
 237 700 l 1,9,-1
 317 700 l 1,10,-1
 299 500 l 1,11,-1
 439 500 l 1,12,-1
 433 425 l 1,13,-1
 293 425 l 1,14,-1
 281 285 l 1,15,-1
 420 285 l 1,16,-1
 414 210 l 1,17,-1
 274 210 l 1,18,-1
 256 0 l 1,19,-1
 176 0 l 1,0,-1
EndSplineSet
EndChar

StartChar: periodcentered
Encoding: 183 183 114
Width: 230
Flags: W
LayerCount: 2
Fore
SplineSet
77 260 m 1,0,-1
 86 360 l 1,1,-1
 186 360 l 1,2,-1
 177 260 l 1,3,-1
 77 260 l 1,0,-1
EndSplineSet
EndChar

StartChar: paragraph
Encoding: 182 182 115
Width: 510
Flags: W
LayerCount: 2
Fore
SplineSet
425 -43 m 2,0,1
 422 -71 422 -71 413.5 -95 c 128,-1,2
 405 -119 405 -119 389.5 -137 c 128,-1,3
 374 -155 374 -155 350.5 -165 c 128,-1,4
 327 -175 327 -175 293 -175 c 0,5,6
 270 -175 270 -175 249 -173.5 c 128,-1,7
 228 -172 228 -172 208 -170 c 1,8,-1
 214 -99 l 1,9,10
 230 -101 230 -101 252 -102 c 128,-1,11
 274 -103 274 -103 286 -103 c 0,12,13
 311 -103 311 -103 326.5 -88.5 c 128,-1,14
 342 -74 342 -74 345 -48 c 2,15,-1
 411 700 l 1,16,-1
 491 700 l 1,17,-1
 425 -43 l 2,0,1
295 0 m 1,18,-1
 213 0 l 1,19,-1
 245 374 l 1,20,-1
 221 374 l 2,21,22
 196 374 196 374 172.5 379.5 c 128,-1,23
 149 385 149 385 131 400.5 c 128,-1,24
 113 416 113 416 102 443.5 c 128,-1,25
 91 471 91 471 91 514 c 0,26,27
 91 566 91 566 105 602.5 c 128,-1,28
 119 639 119 639 142 662.5 c 128,-1,29
 165 686 165 686 194 696.5 c 128,-1,30
 223 707 223 707 254 707 c 0,31,32
 274 707 274 707 293 706.5 c 128,-1,33
 312 706 312 706 326 704 c 0,34,35
 343 702 343 702 358 700 c 1,36,-1
 352 630 l 1,37,38
 332 632 332 632 313.5 634 c 128,-1,39
 295 636 295 636 280 636 c 0,40,41
 217 636 217 636 192 608.5 c 128,-1,42
 167 581 167 581 167 511 c 0,43,44
 167 483 167 483 183.5 463.5 c 128,-1,45
 200 444 200 444 232 444 c 2,46,-1
 333 444 l 1,47,-1
 295 0 l 1,18,-1
EndSplineSet
EndChar

StartChar: bullet
Encoding: 8226 8226 116
Width: 290
Flags: W
LayerCount: 2
Fore
SplineSet
80 235 m 1,0,-1
 94 390 l 1,1,-1
 244 390 l 1,2,-1
 230 235 l 1,3,-1
 80 235 l 1,0,-1
EndSplineSet
EndChar

StartChar: quotesinglbase
Encoding: 8218 8218 117
Width: 205
Flags: W
LayerCount: 2
Fore
SplineSet
66 -157 m 1,0,-1
 1 -157 l 1,1,-1
 45 0 l 1,2,-1
 52 90 l 1,3,-1
 147 90 l 1,4,-1
 140 0 l 1,5,-1
 66 -157 l 1,0,-1
EndSplineSet
EndChar

StartChar: quotedblbase
Encoding: 8222 8222 118
Width: 360
Flags: W
LayerCount: 2
Fore
SplineSet
221 -157 m 1,0,-1
 156 -157 l 1,1,-1
 200 0 l 1,2,-1
 207 90 l 1,3,-1
 302 90 l 1,4,-1
 295 0 l 1,5,-1
 221 -157 l 1,0,-1
66 -157 m 1,6,-1
 1 -157 l 1,7,-1
 45 0 l 1,8,-1
 52 90 l 1,9,-1
 147 90 l 1,10,-1
 140 0 l 1,11,-1
 66 -157 l 1,6,-1
EndSplineSet
EndChar

StartChar: quotedblright
Encoding: 8221 8221 119
Width: 360
Flags: W
LayerCount: 2
Fore
SplineSet
274 453 m 1,0,-1
 209 453 l 1,1,-1
 253 610 l 1,2,-1
 261 700 l 1,3,-1
 356 700 l 1,4,-1
 348 610 l 1,5,-1
 274 453 l 1,0,-1
119 453 m 1,6,-1
 54 453 l 1,7,-1
 98 610 l 1,8,-1
 106 700 l 1,9,-1
 201 700 l 1,10,-1
 193 610 l 1,11,-1
 119 453 l 1,6,-1
EndSplineSet
EndChar

StartChar: guillemotright
Encoding: 187 187 120
Width: 465
Flags: W
LayerCount: 2
Fore
SplineSet
232 92 m 1,0,-1
 314 299 l 1,1,-1
 270 506 l 1,2,-1
 335 506 l 1,3,-1
 406 299 l 1,4,-1
 299 92 l 1,5,-1
 232 92 l 1,0,-1
72 92 m 1,6,-1
 154 299 l 1,7,-1
 110 506 l 1,8,-1
 175 506 l 1,9,-1
 246 299 l 1,10,-1
 139 92 l 1,11,-1
 72 92 l 1,6,-1
EndSplineSet
EndChar

StartChar: ellipsis
Encoding: 8230 8230 121
Width: 670
Flags: W
LayerCount: 2
Fore
SplineSet
55 0 m 1,0,-1
 63 100 l 1,1,-1
 163 100 l 1,2,-1
 155 0 l 1,3,-1
 55 0 l 1,0,-1
275 0 m 1,4,-1
 283 100 l 1,5,-1
 383 100 l 1,6,-1
 375 0 l 1,7,-1
 275 0 l 1,4,-1
495 0 m 1,8,-1
 503 100 l 1,9,-1
 603 100 l 1,10,-1
 595 0 l 1,11,-1
 495 0 l 1,8,-1
EndSplineSet
EndChar

StartChar: perthousand
Encoding: 8240 8240 122
Width: 1178
Flags: W
LayerCount: 2
Fore
SplineSet
323 496 m 0,0,1
 326 526 326 526 326 551 c 0,2,3
 326 602 326 602 312.5 625 c 128,-1,4
 299 648 299 648 268 648 c 0,5,6
 226 648 226 648 205 599.5 c 128,-1,7
 184 551 184 551 184 438 c 0,8,9
 184 388 184 388 197 366 c 128,-1,10
 210 344 210 344 241 344 c 0,11,12
 279 344 279 344 297.5 380 c 128,-1,13
 316 416 316 416 323 496 c 0,0,1
335 0 m 1,14,-1
 257 0 l 1,15,-1
 563 700 l 1,16,-1
 641 700 l 1,17,-1
 335 0 l 1,14,-1
710 204 m 0,18,19
 713 234 713 234 713 259 c 0,20,21
 713 310 713 310 699.5 333 c 128,-1,22
 686 356 686 356 655 356 c 0,23,24
 613 356 613 356 592 307.5 c 128,-1,25
 571 259 571 259 571 146 c 0,26,27
 571 96 571 96 584 74 c 128,-1,28
 597 52 597 52 628 52 c 0,29,30
 666 52 666 52 684.5 88 c 128,-1,31
 703 124 703 124 710 204 c 0,18,19
1032 204 m 0,32,33
 1035 234 1035 234 1035 259 c 0,34,35
 1035 310 1035 310 1021.5 333 c 128,-1,36
 1008 356 1008 356 977 356 c 0,37,38
 935 356 935 356 914 307.5 c 128,-1,39
 893 259 893 259 893 146 c 0,40,41
 893 96 893 96 906 74 c 128,-1,42
 919 52 919 52 950 52 c 0,43,44
 988 52 988 52 1006.5 88 c 128,-1,45
 1025 124 1025 124 1032 204 c 0,32,33
392 500 m 0,46,47
 388 453 388 453 380 413.5 c 128,-1,48
 372 374 372 374 355 345.5 c 128,-1,49
 338 317 338 317 309.5 301 c 128,-1,50
 281 285 281 285 236 285 c 0,51,52
 201 285 201 285 177.5 296 c 128,-1,53
 154 307 154 307 140 327.5 c 128,-1,54
 126 348 126 348 120.5 376.5 c 128,-1,55
 115 405 115 405 115 440 c 0,56,57
 115 469 115 469 118 500 c 0,58,59
 122 547 122 547 130 585 c 128,-1,60
 138 623 138 623 154.5 650 c 128,-1,61
 171 677 171 677 199.5 692 c 128,-1,62
 228 707 228 707 273 707 c 0,63,64
 309 707 309 707 332.5 696.5 c 128,-1,65
 356 686 356 686 370 667 c 128,-1,66
 384 648 384 648 389.5 620.5 c 128,-1,67
 395 593 395 593 395 559 c 0,68,69
 395 532 395 532 392 500 c 0,46,47
779 208 m 0,70,71
 775 161 775 161 767 121.5 c 128,-1,72
 759 82 759 82 742 53.5 c 128,-1,73
 725 25 725 25 696.5 9 c 128,-1,74
 668 -7 668 -7 623 -7 c 0,75,76
 588 -7 588 -7 564.5 4 c 128,-1,77
 541 15 541 15 527 35.5 c 128,-1,78
 513 56 513 56 507.5 84.5 c 128,-1,79
 502 113 502 113 502 148 c 0,80,81
 502 177 502 177 505 208 c 0,82,83
 509 255 509 255 517 293 c 128,-1,84
 525 331 525 331 541.5 358 c 128,-1,85
 558 385 558 385 586.5 400 c 128,-1,86
 615 415 615 415 660 415 c 0,87,88
 696 415 696 415 719.5 404.5 c 128,-1,89
 743 394 743 394 757 375 c 128,-1,90
 771 356 771 356 776.5 328.5 c 128,-1,91
 782 301 782 301 782 267 c 0,92,93
 782 240 782 240 779 208 c 0,70,71
1101 208 m 0,94,95
 1097 161 1097 161 1089 121.5 c 128,-1,96
 1081 82 1081 82 1064 53.5 c 128,-1,97
 1047 25 1047 25 1018.5 9 c 128,-1,98
 990 -7 990 -7 945 -7 c 0,99,100
 910 -7 910 -7 886.5 4 c 128,-1,101
 863 15 863 15 849 35.5 c 128,-1,102
 835 56 835 56 829.5 84.5 c 128,-1,103
 824 113 824 113 824 148 c 0,104,105
 824 177 824 177 827 208 c 0,106,107
 831 255 831 255 839 293 c 128,-1,108
 847 331 847 331 863.5 358 c 128,-1,109
 880 385 880 385 908.5 400 c 128,-1,110
 937 415 937 415 982 415 c 0,111,112
 1018 415 1018 415 1041.5 404.5 c 128,-1,113
 1065 394 1065 394 1079 375 c 128,-1,114
 1093 356 1093 356 1098.5 328.5 c 128,-1,115
 1104 301 1104 301 1104 267 c 0,116,117
 1104 240 1104 240 1101 208 c 0,94,95
EndSplineSet
Ligature2: "'frac' Diagonal Fractions in Latin lookup 1 subtable" zero fraction zero zero
Ligature2: "'frac' Diagonal Fractions in Latin lookup 1 subtable" zero slash zero zero
EndChar

StartChar: questiondown
Encoding: 191 191 123
Width: 360
Flags: W
LayerCount: 2
Fore
SplineSet
289 500 m 1,0,-1
 281 400 l 1,1,-1
 181 400 l 1,2,-1
 189 500 l 1,3,-1
 289 500 l 1,0,-1
21 -37 m 2,4,5
 21 -18 21 -18 24.5 0.5 c 128,-1,6
 28 19 28 19 38 39.5 c 128,-1,7
 48 60 48 60 65.5 84 c 128,-1,8
 83 108 83 108 111 137 c 2,9,-1
 172 200 l 1,10,-1
 179 292 l 1,11,-1
 264 292 l 1,12,-1
 254 171 l 1,13,-1
 188 101 l 2,14,15
 161 72 161 72 144.5 53.5 c 128,-1,16
 128 35 128 35 119 18.5 c 128,-1,17
 110 2 110 2 107 -16.5 c 128,-1,18
 104 -35 104 -35 104 -63 c 0,19,20
 104 -103 104 -103 125.5 -118 c 128,-1,21
 147 -133 147 -133 182 -133 c 0,22,23
 213 -133 213 -133 246.5 -127.5 c 128,-1,24
 280 -122 280 -122 305 -118 c 1,25,-1
 299 -191 l 1,26,27
 278 -196 278 -196 245.5 -201.5 c 128,-1,28
 213 -207 213 -207 184 -207 c 0,29,30
 146 -207 146 -207 116 -200.5 c 128,-1,31
 86 -194 86 -194 65 -178 c 128,-1,32
 44 -162 44 -162 32.5 -134.5 c 128,-1,33
 21 -107 21 -107 21 -66 c 2,34,-1
 21 -37 l 2,4,5
EndSplineSet
EndChar

StartChar: grave
Encoding: 96 96 124
Width: 303
Flags: W
LayerCount: 2
Fore
SplineSet
224 580 m 1,0,-1
 99 715 l 1,1,-1
 208 715 l 1,2,-1
 300 580 l 1,3,-1
 224 580 l 1,0,-1
EndSplineSet
EndChar

StartChar: acute
Encoding: 180 180 125
Width: 303
Flags: W
LayerCount: 2
Fore
SplineSet
85 580 m 1,0,-1
 201 715 l 1,1,-1
 310 715 l 1,2,-1
 171 580 l 1,3,-1
 85 580 l 1,0,-1
EndSplineSet
EndChar

StartChar: circumflex
Encoding: 710 710 126
Width: 383
Flags: W
LayerCount: 2
Fore
SplineSet
291 580 m 1,0,-1
 239 664 l 1,1,-1
 171 580 l 1,2,-1
 75 580 l 1,3,-1
 199 715 l 1,4,-1
 287 715 l 1,5,-1
 388 580 l 1,6,-1
 291 580 l 1,0,-1
EndSplineSet
EndChar

StartChar: tilde
Encoding: 732 732 127
Width: 350
Flags: W
LayerCount: 2
Fore
SplineSet
83 667 m 1,0,1
 107 686 107 686 129.5 693 c 128,-1,2
 152 700 152 700 172 700 c 0,3,4
 190 700 190 700 203.5 694 c 128,-1,5
 217 688 217 688 230 680.5 c 128,-1,6
 243 673 243 673 255 667 c 128,-1,7
 267 661 267 661 282 661 c 0,8,9
 308 661 308 661 326 670.5 c 128,-1,10
 344 680 344 680 365 697 c 1,11,-1
 359 624 l 1,12,13
 338 605 338 605 317 598 c 128,-1,14
 296 591 296 591 270 591 c 0,15,16
 251 591 251 591 237.5 597 c 128,-1,17
 224 603 224 603 212 610.5 c 128,-1,18
 200 618 200 618 188 624 c 128,-1,19
 176 630 176 630 160 630 c 0,20,21
 134 630 134 630 113.5 619 c 128,-1,22
 93 608 93 608 76 594 c 1,23,-1
 83 667 l 1,0,1
EndSplineSet
EndChar

StartChar: macron
Encoding: 175 175 128
Width: 325
Flags: W
LayerCount: 2
Fore
SplineSet
77 605 m 1,0,-1
 84 675 l 1,1,-1
 339 675 l 1,2,-1
 332 605 l 1,3,-1
 77 605 l 1,0,-1
EndSplineSet
EndChar

StartChar: breve
Encoding: 728 728 129
Width: 354
Flags: W
LayerCount: 2
Fore
SplineSet
372 725 m 1,0,1
 367 704 367 704 358.5 681.5 c 128,-1,2
 350 659 350 659 333.5 639.5 c 128,-1,3
 317 620 317 620 290 607.5 c 128,-1,4
 263 595 263 595 219 595 c 0,5,6
 183 595 183 595 158.5 607.5 c 128,-1,7
 134 620 134 620 119 639.5 c 128,-1,8
 104 659 104 659 97 681.5 c 128,-1,9
 90 704 90 704 88 725 c 1,10,-1
 170 725 l 1,11,12
 170 698 170 698 180.5 677 c 128,-1,13
 191 656 191 656 224 656 c 0,14,15
 241 656 241 656 253 661.5 c 128,-1,16
 265 667 265 667 272.5 677 c 128,-1,17
 280 687 280 687 284 699.5 c 128,-1,18
 288 712 288 712 291 725 c 1,19,-1
 372 725 l 1,0,1
EndSplineSet
EndChar

StartChar: dotaccent
Encoding: 729 729 130
Width: 164
Flags: W
LayerCount: 2
Fore
SplineSet
78 615 m 1,0,-1
 86 700 l 1,1,-1
 171 700 l 1,2,-1
 163 615 l 1,3,-1
 78 615 l 1,0,-1
EndSplineSet
EndChar

StartChar: dieresis
Encoding: 168 168 131
Width: 355
Flags: W
LayerCount: 2
Fore
SplineSet
277 595 m 1,0,-1
 284 675 l 1,1,-1
 369 675 l 1,2,-1
 362 595 l 1,3,-1
 277 595 l 1,0,-1
77 595 m 1,4,-1
 84 675 l 1,5,-1
 169 675 l 1,6,-1
 162 595 l 1,7,-1
 77 595 l 1,4,-1
EndSplineSet
EndChar

StartChar: ring
Encoding: 730 730 132
Width: 260
Flags: W
LayerCount: 2
Fore
SplineSet
271 645 m 0,0,1
 267 601 267 601 240.5 572 c 128,-1,2
 214 543 214 543 166 543 c 0,3,4
 128 543 128 543 104.5 569.5 c 128,-1,5
 81 596 81 596 81 634 c 0,6,7
 81 682 81 682 108 714.5 c 128,-1,8
 135 747 135 747 184 747 c 0,9,10
 225 747 225 747 248.5 722 c 128,-1,11
 272 697 272 697 272 657 c 0,12,13
 272 654 272 654 271.5 651 c 128,-1,14
 271 648 271 648 271 645 c 0,0,1
213 655 m 2,15,16
 213 672 213 672 206 683.5 c 128,-1,17
 199 695 199 695 179 695 c 0,18,19
 155 695 155 695 146.5 677 c 128,-1,20
 138 659 138 659 138 639 c 0,21,22
 138 623 138 623 144.5 610 c 128,-1,23
 151 597 151 597 171 597 c 0,24,25
 196 597 196 597 203.5 612 c 128,-1,26
 211 627 211 627 213 646 c 1,27,-1
 213 655 l 2,15,16
EndSplineSet
EndChar

StartChar: cedilla
Encoding: 184 184 133
Width: 302
Flags: W
LayerCount: 2
Fore
SplineSet
44 -131 m 1,0,1
 58 -134 58 -134 72.5 -135.5 c 128,-1,2
 87 -137 87 -137 98 -137 c 0,3,4
 119 -137 119 -137 130 -130.5 c 128,-1,5
 141 -124 141 -124 141 -103 c 0,6,7
 141 -89 141 -89 125.5 -82.5 c 128,-1,8
 110 -76 110 -76 63 -76 c 1,9,-1
 94 50 l 1,10,-1
 159 50 l 1,11,-1
 141 -27 l 1,12,13
 183 -32 183 -32 200.5 -48.5 c 128,-1,14
 218 -65 218 -65 218 -97 c 0,15,16
 218 -151 218 -151 185 -175.5 c 128,-1,17
 152 -200 152 -200 101 -200 c 0,18,19
 83 -200 83 -200 68 -198 c 128,-1,20
 53 -196 53 -196 38 -193 c 1,21,-1
 44 -131 l 1,0,1
EndSplineSet
EndChar

StartChar: hungarumlaut
Encoding: 733 733 134
Width: 463
Flags: W
LayerCount: 2
Fore
SplineSet
153 598 m 1,0,-1
 77 598 l 1,1,-1
 193 745 l 1,2,-1
 313 745 l 1,3,-1
 153 598 l 1,0,-1
323 598 m 1,4,-1
 247 598 l 1,5,-1
 363 745 l 1,6,-1
 483 745 l 1,7,-1
 323 598 l 1,4,-1
EndSplineSet
EndChar

StartChar: ogonek
Encoding: 731 731 135
Width: 318
Flags: W
LayerCount: 2
Fore
SplineSet
228 -170 m 1,0,1
 213 -174 213 -174 192 -177 c 128,-1,2
 171 -180 171 -180 153 -180 c 0,3,4
 96 -180 96 -180 71.5 -161 c 128,-1,5
 47 -142 47 -142 47 -93 c 0,6,7
 47 -71 47 -71 52.5 -49.5 c 128,-1,8
 58 -28 58 -28 67.5 -8 c 128,-1,9
 77 12 77 12 89 29.5 c 128,-1,10
 101 47 101 47 114 60 c 1,11,-1
 183 60 l 1,12,13
 171 44 171 44 160.5 24.5 c 128,-1,14
 150 5 150 5 142.5 -14 c 128,-1,15
 135 -33 135 -33 131 -50 c 128,-1,16
 127 -67 127 -67 127 -78 c 0,17,18
 127 -99 127 -99 137.5 -105.5 c 128,-1,19
 148 -112 148 -112 168 -112 c 0,20,21
 179 -112 179 -112 198.5 -109.5 c 128,-1,22
 218 -107 218 -107 232 -105 c 1,23,-1
 228 -170 l 1,0,1
EndSplineSet
EndChar

StartChar: caron
Encoding: 711 711 136
Width: 383
Flags: W
LayerCount: 2
Fore
SplineSet
184 714 m 1,0,-1
 237 630 l 1,1,-1
 304 714 l 1,2,-1
 400 714 l 1,3,-1
 278 579 l 1,4,-1
 190 579 l 1,5,-1
 87 714 l 1,6,-1
 184 714 l 1,0,-1
EndSplineSet
EndChar

StartChar: emdash
Encoding: 8212 8212 137
Width: 605
Flags: W
LayerCount: 2
Fore
SplineSet
79 275 m 1,0,-1
 85 350 l 1,1,-1
 560 350 l 1,2,-1
 554 275 l 1,3,-1
 79 275 l 1,0,-1
EndSplineSet
EndChar

StartChar: AE
Encoding: 198 198 138
Width: 743
Flags: W
LayerCount: 2
Fore
SplineSet
380 0 m 1,0,-1
 375 177 l 1,1,-1
 177 177 l 1,2,-1
 105 0 l 1,3,-1
 15 0 l 1,4,-1
 313 700 l 1,5,-1
 719 700 l 1,6,-1
 712 627 l 1,7,-1
 443 627 l 1,8,-1
 450 398 l 1,9,-1
 687 398 l 1,10,-1
 681 325 l 1,11,-1
 453 325 l 1,12,-1
 461 73 l 1,13,-1
 684 73 l 1,14,-1
 678 0 l 1,15,-1
 380 0 l 1,0,-1
208 254 m 1,16,-1
 373 254 l 1,17,-1
 364 627 l 1,18,-1
 208 254 l 1,16,-1
EndSplineSet
Position2: "'cpsp' Capital Spacing in Latin lookup 0 subtable" dx=5 dy=0 dh=10 dv=0
EndChar

StartChar: ordfeminine
Encoding: 170 170 139
Width: 395
Flags: W
LayerCount: 2
Fore
SplineSet
90 497 m 0,0,1
 101 608 101 608 143 657.5 c 128,-1,2
 185 707 185 707 270 707 c 0,3,4
 281 707 281 707 294 705.5 c 128,-1,5
 307 704 307 704 320 701.5 c 128,-1,6
 333 699 333 699 345 696 c 128,-1,7
 357 693 357 693 366 690 c 1,8,-1
 342 412 l 1,9,-1
 342 407 l 2,10,11
 342 379 342 379 371 379 c 1,12,-1
 367 326 l 1,13,-1
 352 326 l 2,14,15
 300 326 300 326 285 367 c 1,16,17
 271 347 271 347 248 334 c 128,-1,18
 225 321 225 321 189 321 c 0,19,20
 135 321 135 321 111.5 354 c 128,-1,21
 88 387 88 387 88 453 c 0,22,23
 88 464 88 464 88.5 474.5 c 128,-1,24
 89 485 89 485 90 497 c 0,0,1
205 379 m 0,25,26
 239 379 239 379 256.5 401.5 c 128,-1,27
 274 424 274 424 276 453 c 2,28,-1
 293 647 l 1,29,30
 286 648 286 648 277.5 648.5 c 128,-1,31
 269 649 269 649 258 649 c 0,32,33
 208 649 208 649 183 599.5 c 128,-1,34
 158 550 158 550 158 446 c 0,35,36
 158 408 158 408 168.5 393.5 c 128,-1,37
 179 379 179 379 205 379 c 0,25,26
57 0 m 1,38,-1
 63 75 l 1,39,-1
 314 75 l 1,40,-1
 308 0 l 1,41,-1
 57 0 l 1,38,-1
EndSplineSet
EndChar

StartChar: Lslash
Encoding: 321 321 140
Width: 420
Flags: W
LayerCount: 2
Fore
SplineSet
75 0 m 1,0,-1
 103 329 l 1,1,-1
 41 300 l 1,2,-1
 48 380 l 1,3,-1
 110 409 l 1,4,-1
 136 700 l 1,5,-1
 223 700 l 1,6,-1
 201 451 l 1,7,-1
 329 510 l 1,8,-1
 322 430 l 1,9,-1
 194 371 l 1,10,-1
 168 76 l 1,11,-1
 391 76 l 1,12,-1
 385 0 l 1,13,-1
 75 0 l 1,0,-1
EndSplineSet
Position2: "'cpsp' Capital Spacing in Latin lookup 0 subtable" dx=5 dy=0 dh=10 dv=0
EndChar

StartChar: Oslash
Encoding: 216 216 141
Width: 548
Flags: W
LayerCount: 2
Fore
SplineSet
504 358 m 0,0,1
 496 266 496 266 481 197.5 c 128,-1,2
 466 129 466 129 439 83.5 c 128,-1,3
 412 38 412 38 369.5 15.5 c 128,-1,4
 327 -7 327 -7 263 -7 c 0,5,6
 228 -7 228 -7 198 1 c 1,7,-1
 162 -91 l 1,8,-1
 87 -91 l 1,9,-1
 137 38 l 1,10,11
 106 70 106 70 93.5 125.5 c 128,-1,12
 81 181 81 181 81 261 c 0,13,14
 81 266 81 266 81.5 279.5 c 128,-1,15
 82 293 82 293 83 309 c 128,-1,16
 84 325 84 325 85 339 c 128,-1,17
 86 353 86 353 86 358 c 0,18,19
 94 446 94 446 108 511.5 c 128,-1,20
 122 577 122 577 149 620.5 c 128,-1,21
 176 664 176 664 218.5 685.5 c 128,-1,22
 261 707 261 707 325 707 c 0,23,24
 362 707 362 707 392 698 c 1,25,-1
 428 791 l 1,26,-1
 504 791 l 1,27,-1
 454 662 l 1,28,29
 483 632 483 632 496 582 c 128,-1,30
 509 532 509 532 509 461 c 0,31,32
 509 437 509 437 507.5 411.5 c 128,-1,33
 506 386 506 386 504 358 c 0,0,1
168 238 m 0,34,35
 168 180 168 180 177 142 c 1,36,-1
 364 626 l 1,37,38
 343 634 343 634 319 634 c 0,39,40
 286 634 286 634 262 621 c 128,-1,41
 238 608 238 608 221 576 c 128,-1,42
 204 544 204 544 193 490 c 128,-1,43
 182 436 182 436 174 353 c 0,44,45
 174 347 174 347 173 330 c 128,-1,46
 172 313 172 313 171 294 c 128,-1,47
 170 275 170 275 169 259 c 128,-1,48
 168 243 168 243 168 238 c 0,34,35
414 353 m 0,49,50
 417 388 417 388 419 417.5 c 128,-1,51
 421 447 421 447 421 473 c 0,52,53
 421 522 421 522 413 557 c 1,54,-1
 226 74 l 1,55,56
 242 66 242 66 269 66 c 0,57,58
 303 66 303 66 327 80.5 c 128,-1,59
 351 95 351 95 368.5 129 c 128,-1,60
 386 163 386 163 396.5 217.5 c 128,-1,61
 407 272 407 272 414 353 c 0,49,50
EndSplineSet
Position2: "'cpsp' Capital Spacing in Latin lookup 0 subtable" dx=5 dy=0 dh=10 dv=0
EndChar

StartChar: OE
Encoding: 338 338 142
Width: 761
Flags: W
LayerCount: 2
Fore
SplineSet
317 0 m 1,0,1
 304 -2 304 -2 290.5 -4.5 c 128,-1,2
 277 -7 277 -7 263 -7 c 0,3,4
 165 -7 165 -7 123 57 c 128,-1,5
 81 121 81 121 81 250 c 0,6,7
 81 275 81 275 82.5 302 c 128,-1,8
 84 329 84 329 86 358 c 0,9,10
 94 446 94 446 108 511.5 c 128,-1,11
 122 577 122 577 149 620.5 c 128,-1,12
 176 664 176 664 218.5 685.5 c 128,-1,13
 261 707 261 707 325 707 c 0,14,15
 339 707 339 707 352.5 704.5 c 128,-1,16
 366 702 366 702 378 700 c 1,17,-1
 757 700 l 1,18,-1
 750 627 l 1,19,-1
 473 627 l 1,20,21
 502 570 502 570 502 467 c 0,22,23
 502 434 502 434 499 398 c 1,24,-1
 705 398 l 1,25,-1
 699 325 l 1,26,-1
 494 325 l 1,27,28
 485 239 485 239 470 176.5 c 128,-1,29
 455 114 455 114 427 73 c 1,30,-1
 702 73 l 1,31,-1
 696 0 l 1,32,-1
 317 0 l 1,0,1
409 353 m 0,33,34
 413 391 413 391 414.5 423 c 128,-1,35
 416 455 416 455 416 481 c 0,36,37
 416 525 416 525 410.5 554.5 c 128,-1,38
 405 584 405 584 393.5 601.5 c 128,-1,39
 382 619 382 619 363.5 626.5 c 128,-1,40
 345 634 345 634 319 634 c 0,41,42
 285 634 285 634 261 621 c 128,-1,43
 237 608 237 608 220 576 c 128,-1,44
 203 544 203 544 192.5 490 c 128,-1,45
 182 436 182 436 174 353 c 0,46,47
 168 287 168 287 168 238 c 0,48,49
 168 144 168 144 192 105 c 128,-1,50
 216 66 216 66 269 66 c 0,51,52
 303 66 303 66 326.5 80.5 c 128,-1,53
 350 95 350 95 366 129 c 128,-1,54
 382 163 382 163 392 217.5 c 128,-1,55
 402 272 402 272 409 353 c 0,33,34
EndSplineSet
Position2: "'cpsp' Capital Spacing in Latin lookup 0 subtable" dx=5 dy=0 dh=10 dv=0
EndChar

StartChar: ordmasculine
Encoding: 186 186 143
Width: 416
Flags: W
LayerCount: 2
Fore
SplineSet
313 508 m 0,0,1
 316 537 316 537 316 560 c 0,2,3
 316 602 316 602 303 625.5 c 128,-1,4
 290 649 290 649 254 649 c 0,5,6
 205 649 205 649 186.5 597.5 c 128,-1,7
 168 546 168 546 168 459 c 0,8,9
 168 418 168 418 181.5 398.5 c 128,-1,10
 195 379 195 379 231 379 c 0,11,12
 254 379 254 379 268.5 387 c 128,-1,13
 283 395 283 395 292 410.5 c 128,-1,14
 301 426 301 426 305.5 450.5 c 128,-1,15
 310 475 310 475 313 508 c 0,0,1
388 558 m 0,16,17
 388 550 388 550 387 536 c 128,-1,18
 386 522 386 522 385 512 c 0,19,20
 380 455 380 455 369 418.5 c 128,-1,21
 358 382 358 382 339 360 c 128,-1,22
 320 338 320 338 292 329.5 c 128,-1,23
 264 321 264 321 226 321 c 0,24,25
 196 321 196 321 172.5 328 c 128,-1,26
 149 335 149 335 132.5 352.5 c 128,-1,27
 116 370 116 370 107 399.5 c 128,-1,28
 98 429 98 429 98 474 c 0,29,30
 98 595 98 595 135 651 c 128,-1,31
 172 707 172 707 259 707 c 0,32,33
 322 707 322 707 355 671 c 128,-1,34
 388 635 388 635 388 558 c 0,16,17
58 0 m 1,35,-1
 64 75 l 1,36,-1
 340 75 l 1,37,-1
 334 0 l 1,38,-1
 58 0 l 1,35,-1
EndSplineSet
EndChar

StartChar: ae
Encoding: 230 230 144
Width: 715
Flags: W
LayerCount: 2
Fore
SplineSet
668 370 m 0,0,1
 668 324 668 324 653.5 293.5 c 128,-1,2
 639 263 639 263 613 244 c 128,-1,3
 587 225 587 225 551 217 c 128,-1,4
 515 209 515 209 473 209 c 0,5,6
 453 209 453 209 436 210 c 128,-1,7
 419 211 419 211 397 213 c 1,8,-1
 397 177 l 2,9,10
 397 143 397 143 403.5 121 c 128,-1,11
 410 99 410 99 421 86.5 c 128,-1,12
 432 74 432 74 445.5 69.5 c 128,-1,13
 459 65 459 65 473 65 c 0,14,15
 522 65 522 65 554 71 c 128,-1,16
 586 77 586 77 609 82 c 1,17,-1
 602 10 l 1,18,19
 590 7 590 7 574 3.5 c 128,-1,20
 558 0 558 0 541 -2 c 128,-1,21
 524 -4 524 -4 507.5 -5.5 c 128,-1,22
 491 -7 491 -7 477 -7 c 0,23,24
 429 -7 429 -7 393 6 c 128,-1,25
 357 19 357 19 338 62 c 1,26,27
 317 30 317 30 282 11.5 c 128,-1,28
 247 -7 247 -7 188 -7 c 0,29,30
 166 -7 166 -7 142 -1 c 128,-1,31
 118 5 118 5 97.5 19.5 c 128,-1,32
 77 34 77 34 64 59 c 128,-1,33
 51 84 51 84 51 122 c 0,34,35
 51 169 51 169 64.5 202.5 c 128,-1,36
 78 236 78 236 102.5 257 c 128,-1,37
 127 278 127 278 163 288 c 128,-1,38
 199 298 199 298 244 298 c 0,39,40
 263 298 263 298 283 296.5 c 128,-1,41
 303 295 303 295 323 293 c 1,42,43
 324 312 324 312 326 328 c 0,44,45
 328 342 328 342 328.5 354.5 c 128,-1,46
 329 367 329 367 329 371 c 0,47,48
 329 398 329 398 311.5 416.5 c 128,-1,49
 294 435 294 435 259 435 c 0,50,51
 216 435 216 435 183.5 429.5 c 128,-1,52
 151 424 151 424 113 413 c 1,53,-1
 119 487 l 1,54,55
 148 495 148 495 183.5 501 c 128,-1,56
 219 507 219 507 256 507 c 0,57,58
 307 507 307 507 338 492.5 c 128,-1,59
 369 478 369 478 385 454 c 1,60,61
 410 482 410 482 442 494.5 c 128,-1,62
 474 507 474 507 516 507 c 256,63,64
 558 507 558 507 587 495.5 c 128,-1,65
 616 484 616 484 634 465 c 128,-1,66
 652 446 652 446 660 421 c 128,-1,67
 668 396 668 396 668 370 c 0,0,1
214 65 m 0,68,69
 238 65 238 65 255.5 72.5 c 128,-1,70
 273 80 273 80 284.5 90.5 c 128,-1,71
 296 101 296 101 301.5 112.5 c 128,-1,72
 307 124 307 124 308 132 c 2,73,-1
 317 225 l 1,74,75
 297 227 297 227 275.5 228.5 c 128,-1,76
 254 230 254 230 233 230 c 0,77,78
 216 230 216 230 199 225.5 c 128,-1,79
 182 221 182 221 168.5 209.5 c 128,-1,80
 155 198 155 198 147 179.5 c 128,-1,81
 139 161 139 161 139 133 c 0,82,83
 139 95 139 95 158 80 c 128,-1,84
 177 65 177 65 214 65 c 0,68,69
515 436 m 0,85,86
 493 436 493 436 474.5 428.5 c 128,-1,87
 456 421 456 421 441.5 403.5 c 128,-1,88
 427 386 427 386 417 356.5 c 128,-1,89
 407 327 407 327 402 282 c 1,90,91
 418 280 418 280 430.5 279.5 c 128,-1,92
 443 279 443 279 458 279 c 0,93,94
 529 279 529 279 558.5 297.5 c 128,-1,95
 588 316 588 316 588 366 c 0,96,97
 588 380 588 380 585 393 c 128,-1,98
 582 406 582 406 574 415.5 c 128,-1,99
 566 425 566 425 552 430.5 c 128,-1,100
 538 436 538 436 515 436 c 0,85,86
EndSplineSet
EndChar

StartChar: dotlessi
Encoding: 305 305 145
Width: 245
Flags: W
LayerCount: 2
Fore
SplineSet
70 0 m 1,0,-1
 113 500 l 1,1,-1
 198 500 l 1,2,-1
 155 0 l 1,3,-1
 70 0 l 1,0,-1
EndSplineSet
EndChar

StartChar: lslash
Encoding: 322 322 146
Width: 280
Flags: W
LayerCount: 2
Fore
SplineSet
225 5 m 1,0,1
 214 3 214 3 199 0 c 128,-1,2
 184 -3 184 -3 164 -3 c 0,3,4
 150 -3 150 -3 136 1.5 c 128,-1,5
 122 6 122 6 111.5 16.5 c 128,-1,6
 101 27 101 27 94.5 45 c 128,-1,7
 88 63 88 63 88 90 c 0,8,9
 88 95 88 95 88.5 105.5 c 128,-1,10
 89 116 89 116 90 122 c 2,11,-1
 109 335 l 1,12,-1
 51 300 l 1,13,-1
 58 378 l 1,14,-1
 116 413 l 1,15,-1
 141 700 l 1,16,-1
 226 700 l 1,17,-1
 206 468 l 1,18,-1
 274 510 l 1,19,-1
 267 430 l 1,20,-1
 199 389 l 1,21,-1
 177 137 l 2,22,23
 176 127 176 127 175 116.5 c 128,-1,24
 174 106 174 106 174 103 c 0,25,26
 174 85 174 85 180.5 77.5 c 128,-1,27
 187 70 187 70 204 70 c 0,28,29
 212 70 212 70 219.5 72 c 128,-1,30
 227 74 227 74 231 75 c 1,31,-1
 225 5 l 1,0,1
EndSplineSet
EndChar

StartChar: oslash
Encoding: 248 248 147
Width: 510
Flags: W
LayerCount: 2
Fore
SplineSet
459 316 m 0,0,1
 459 150 459 150 408 71.5 c 128,-1,2
 357 -7 357 -7 244 -7 c 0,3,4
 220 -7 220 -7 199 -4 c 1,5,-1
 164 -89 l 1,6,-1
 86 -89 l 1,7,-1
 133 23 l 1,8,9
 104 45 104 45 89 86 c 128,-1,10
 74 127 74 127 74 196 c 0,11,12
 74 358 74 358 124.5 432.5 c 128,-1,13
 175 507 175 507 289 507 c 0,14,15
 312 507 312 507 335 502 c 1,16,-1
 371 589 l 1,17,-1
 448 589 l 1,18,-1
 400 474 l 1,19,20
 459 427 459 427 459 316 c 0,0,1
160 190 m 0,21,22
 160 141 160 141 171 113 c 1,23,-1
 306 435 l 1,24,25
 301 436 301 436 295 436.5 c 128,-1,26
 289 437 289 437 283 437 c 0,27,28
 253 437 253 437 232 427 c 128,-1,29
 211 417 211 417 197.5 394.5 c 128,-1,30
 184 372 184 372 176 335 c 128,-1,31
 168 298 168 298 163 245 c 0,32,33
 160 215 160 215 160 190 c 0,21,22
369 245 m 0,34,35
 372 284 372 284 372 314 c 0,36,37
 372 359 372 359 363 386 c 1,38,-1
 228 64 l 1,39,40
 233 63 233 63 238.5 63 c 128,-1,41
 244 63 244 63 250 63 c 0,42,43
 306 63 306 63 333.5 105.5 c 128,-1,44
 361 148 361 148 369 245 c 0,34,35
EndSplineSet
EndChar

StartChar: oe
Encoding: 339 339 148
Width: 748
Flags: W
LayerCount: 2
Fore
SplineSet
718 370 m 0,0,1
 718 282 718 282 665 243 c 128,-1,2
 612 204 612 204 523 204 c 0,3,4
 503 204 503 204 486.5 205 c 128,-1,5
 470 206 470 206 449 208 c 1,6,-1
 449 172 l 2,7,8
 449 138 449 138 455.5 116.5 c 128,-1,9
 462 95 462 95 472.5 84 c 128,-1,10
 483 73 483 73 496 69 c 128,-1,11
 509 65 509 65 523 65 c 0,12,13
 572 65 572 65 604 71 c 128,-1,14
 636 77 636 77 659 82 c 1,15,-1
 652 10 l 1,16,17
 640 7 640 7 624 3.5 c 128,-1,18
 608 0 608 0 591 -2 c 128,-1,19
 574 -4 574 -4 557.5 -5.5 c 128,-1,20
 541 -7 541 -7 527 -7 c 0,21,22
 482 -7 482 -7 447.5 4.5 c 128,-1,23
 413 16 413 16 393 52 c 1,24,25
 367 20 367 20 329.5 6.5 c 128,-1,26
 292 -7 292 -7 244 -7 c 0,27,28
 205 -7 205 -7 173.5 2.5 c 128,-1,29
 142 12 142 12 120 35.5 c 128,-1,30
 98 59 98 59 86 98 c 128,-1,31
 74 137 74 137 74 197 c 0,32,33
 74 358 74 358 126 432.5 c 128,-1,34
 178 507 178 507 289 507 c 0,35,36
 339 507 339 507 372.5 490 c 128,-1,37
 406 473 406 473 426 442 c 1,38,39
 451 477 451 477 486 492 c 128,-1,40
 521 507 521 507 566 507 c 0,41,42
 608 507 608 507 637 495.5 c 128,-1,43
 666 484 666 484 684 464.5 c 128,-1,44
 702 445 702 445 710 420.5 c 128,-1,45
 718 396 718 396 718 370 c 0,0,1
369 245 m 0,46,47
 372 284 372 284 372 314 c 0,48,49
 372 382 372 382 352 409.5 c 128,-1,50
 332 437 332 437 283 437 c 0,51,52
 253 437 253 437 232 427 c 128,-1,53
 211 417 211 417 197.5 394.5 c 128,-1,54
 184 372 184 372 176 335 c 128,-1,55
 168 298 168 298 163 245 c 0,56,57
 160 215 160 215 160 190 c 0,58,59
 160 122 160 122 181 92.5 c 128,-1,60
 202 63 202 63 250 63 c 0,61,62
 306 63 306 63 333.5 105.5 c 128,-1,63
 361 148 361 148 369 245 c 0,46,47
565 436 m 0,64,65
 543 436 543 436 524.5 428 c 128,-1,66
 506 420 506 420 492 401.5 c 128,-1,67
 478 383 478 383 468.5 352.5 c 128,-1,68
 459 322 459 322 454 277 c 1,69,70
 469 275 469 275 481.5 274.5 c 128,-1,71
 494 274 494 274 508 274 c 0,72,73
 578 274 578 274 608 295 c 128,-1,74
 638 316 638 316 638 366 c 0,75,76
 638 380 638 380 635 393 c 128,-1,77
 632 406 632 406 624 415.5 c 128,-1,78
 616 425 616 425 602 430.5 c 128,-1,79
 588 436 588 436 565 436 c 0,64,65
EndSplineSet
EndChar

StartChar: germandbls
Encoding: 223 223 149
Width: 519
Flags: W
LayerCount: 2
Fore
SplineSet
463 175 m 0,0,1
 463 81 463 81 418.5 37 c 128,-1,2
 374 -7 374 -7 279 -7 c 0,3,4
 274 -7 274 -7 265 -6 c 128,-1,5
 256 -5 256 -5 245.5 -3.5 c 128,-1,6
 235 -2 235 -2 225 -0.5 c 128,-1,7
 215 1 215 1 208 3 c 1,8,-1
 214 76 l 1,9,10
 231 71 231 71 251 68 c 128,-1,11
 271 65 271 65 288 65 c 0,12,13
 313 65 313 65 329.5 74 c 128,-1,14
 346 83 346 83 356 97 c 128,-1,15
 366 111 366 111 370 129 c 128,-1,16
 374 147 374 147 374 166 c 0,17,18
 374 199 374 199 359.5 219 c 128,-1,19
 345 239 345 239 307 256 c 0,20,21
 269 274 269 274 252 298 c 128,-1,22
 235 322 235 322 235 360 c 0,23,24
 235 394 235 394 244.5 418 c 128,-1,25
 254 442 254 442 271.5 457.5 c 128,-1,26
 289 473 289 473 313 482.5 c 128,-1,27
 337 492 337 492 365 496 c 1,28,29
 371 510 371 510 375.5 528.5 c 128,-1,30
 380 547 380 547 380 568 c 0,31,32
 380 594 380 594 360.5 614.5 c 128,-1,33
 341 635 341 635 294 635 c 0,34,35
 256 635 256 635 231.5 612 c 128,-1,36
 207 589 207 589 202 540 c 2,37,-1
 155 0 l 1,38,-1
 70 0 l 1,39,-1
 116 533 l 2,40,41
 124 617 124 617 169.5 662 c 128,-1,42
 215 707 215 707 302 707 c 0,43,44
 377 707 377 707 415.5 669.5 c 128,-1,45
 454 632 454 632 454 574 c 0,46,47
 454 552 454 552 452 534.5 c 128,-1,48
 450 517 450 517 446 501.5 c 128,-1,49
 442 486 442 486 437 469.5 c 128,-1,50
 432 453 432 453 426 432 c 1,51,52
 365 432 365 432 340.5 417.5 c 128,-1,53
 316 403 316 403 316 369 c 0,54,55
 316 356 316 356 324.5 343.5 c 128,-1,56
 333 331 333 331 346 326 c 0,57,58
 369 317 369 317 390 303.5 c 128,-1,59
 411 290 411 290 427 272 c 128,-1,60
 443 254 443 254 453 230 c 128,-1,61
 463 206 463 206 463 175 c 0,0,1
EndSplineSet
EndChar

StartChar: onesuperior
Encoding: 185 185 150
Width: 410
Flags: W
LayerCount: 2
Fore
SplineSet
101 205 m 1,0,-1
 107 271 l 1,1,-1
 195 271 l 1,2,-1
 227 629 l 1,3,-1
 127 591 l 1,4,-1
 133 662 l 1,5,-1
 225 700 l 1,6,-1
 308 700 l 1,7,-1
 270 271 l 1,8,-1
 342 271 l 1,9,-1
 336 205 l 1,10,-1
 101 205 l 1,0,-1
EndSplineSet
EndChar

StartChar: logicalnot
Encoding: 172 172 151
Width: 605
Flags: W
LayerCount: 2
Fore
SplineSet
454 106 m 1,0,-1
 468 275 l 1,1,-1
 79 275 l 1,2,-1
 85 350 l 1,3,-1
 560 350 l 1,4,-1
 539 106 l 1,5,-1
 454 106 l 1,0,-1
EndSplineSet
EndChar

StartChar: mu
Encoding: 181 181 152
Width: 491
Flags: W
LayerCount: 2
Fore
SplineSet
162 132 m 0,0,1
 162 103 162 103 174.5 84 c 128,-1,2
 187 65 187 65 227 65 c 0,3,4
 256 65 256 65 276 79 c 128,-1,5
 296 93 296 93 308.5 115 c 128,-1,6
 321 137 321 137 327 162.5 c 128,-1,7
 333 188 333 188 335 211 c 2,8,-1
 359 500 l 1,9,-1
 444 500 l 1,10,-1
 401 0 l 1,11,-1
 331 0 l 1,12,-1
 329 53 l 1,13,14
 309 25 309 25 280 9 c 128,-1,15
 251 -7 251 -7 207 -7 c 0,16,17
 190 -7 190 -7 175.5 -4.5 c 128,-1,18
 161 -2 161 -2 150 1 c 1,19,-1
 135 -170 l 1,20,-1
 50 -170 l 1,21,-1
 108 500 l 1,22,-1
 193 500 l 1,23,-1
 165 172 l 2,24,25
 164 163 164 163 163 149 c 128,-1,26
 162 135 162 135 162 132 c 0,0,1
EndSplineSet
EndChar

StartChar: trademark
Encoding: 8482 8482 153
Width: 740
Flags: W
LayerCount: 2
Fore
SplineSet
615 194 m 1,0,-1
 655 644 l 1,1,-1
 552 361 l 1,2,-1
 489 361 l 1,3,-1
 435 644 l 1,4,-1
 395 194 l 1,5,-1
 330 194 l 1,6,-1
 370 641 l 1,7,-1
 270 641 l 1,8,-1
 230 194 l 1,9,-1
 162 194 l 1,10,-1
 202 641 l 1,11,-1
 86 641 l 1,12,-1
 91 700 l 1,13,-1
 491 700 l 1,14,-1
 532 463 l 1,15,-1
 613 700 l 1,16,-1
 726 700 l 1,17,-1
 681 194 l 1,18,-1
 615 194 l 1,0,-1
EndSplineSet
EndChar

StartChar: Eth
Encoding: 208 208 154
Width: 536
Flags: W
LayerCount: 2
Fore
SplineSet
492 361 m 0,0,1
 482 249 482 249 464 177.5 c 128,-1,2
 446 106 446 106 417.5 65 c 128,-1,3
 389 24 389 24 349.5 8.5 c 128,-1,4
 310 -7 310 -7 258 -7 c 0,5,6
 229 -7 229 -7 198.5 -6.5 c 128,-1,7
 168 -6 168 -6 142 -4 c 0,8,9
 112 -2 112 -2 85 0 c 1,10,-1
 113 325 l 1,11,-1
 43 325 l 1,12,-1
 49 400 l 1,13,-1
 120 400 l 1,14,-1
 146 700 l 1,15,16
 173 702 173 702 201 704 c 0,17,18
 225 706 225 706 253.5 706.5 c 128,-1,19
 282 707 282 707 308 707 c 0,20,21
 351 707 351 707 386 697.5 c 128,-1,22
 421 688 421 688 445.5 661.5 c 128,-1,23
 470 635 470 635 483.5 587.5 c 128,-1,24
 497 540 497 540 497 463 c 0,25,26
 497 440 497 440 495.5 415 c 128,-1,27
 494 390 494 390 492 361 c 0,0,1
402 354 m 0,28,29
 408 422 408 422 408 468 c 0,30,31
 408 520 408 520 402 552.5 c 128,-1,32
 396 585 396 585 384.5 603 c 128,-1,33
 373 621 373 621 357.5 627.5 c 128,-1,34
 342 634 342 634 324 634 c 0,35,36
 310 634 310 634 293.5 633.5 c 128,-1,37
 277 633 277 633 262 632 c 0,38,39
 244 631 244 631 227 630 c 1,40,-1
 207 400 l 1,41,-1
 319 400 l 1,42,-1
 313 325 l 1,43,-1
 200 325 l 1,44,-1
 178 70 l 1,45,46
 193 69 193 69 210 68 c 0,47,48
 224 67 224 67 240.5 66.5 c 128,-1,49
 257 66 257 66 273 66 c 0,50,51
 296 66 296 66 316.5 80 c 128,-1,52
 337 94 337 94 353.5 127.5 c 128,-1,53
 370 161 370 161 382.5 216.5 c 128,-1,54
 395 272 395 272 402 354 c 0,28,29
EndSplineSet
Position2: "'cpsp' Capital Spacing in Latin lookup 0 subtable" dx=5 dy=0 dh=10 dv=0
EndChar

StartChar: onehalf
Encoding: 189 189 155
Width: 875
Flags: W
LayerCount: 2
Fore
SplineSet
91 205 m 1,0,-1
 97 271 l 1,1,-1
 185 271 l 1,2,-1
 217 629 l 1,3,-1
 117 591 l 1,4,-1
 123 662 l 1,5,-1
 215 700 l 1,6,-1
 298 700 l 1,7,-1
 260 271 l 1,8,-1
 332 271 l 1,9,-1
 326 205 l 1,10,-1
 91 205 l 1,0,-1
557 0 m 1,11,-1
 564 71 l 1,12,-1
 689 228 l 2,13,14
 709 254 709 254 722 273 c 128,-1,15
 735 292 735 292 742.5 309 c 128,-1,16
 750 326 750 326 753 344.5 c 128,-1,17
 756 363 756 363 756 388 c 0,18,19
 756 411 756 411 744 423.5 c 128,-1,20
 732 436 732 436 701 436 c 0,21,22
 677 436 677 436 651.5 432 c 128,-1,23
 626 428 626 428 608 424 c 1,24,-1
 613 489 l 1,25,26
 616 489 616 489 625.5 491 c 128,-1,27
 635 493 635 493 648 495 c 128,-1,28
 661 497 661 497 676 498.5 c 128,-1,29
 691 500 691 500 706 500 c 0,30,31
 769 500 769 500 799.5 468.5 c 128,-1,32
 830 437 830 437 830 383 c 0,33,34
 830 356 830 356 826 335 c 128,-1,35
 822 314 822 314 813.5 294.5 c 128,-1,36
 805 275 805 275 791 253.5 c 128,-1,37
 777 232 777 232 757 205 c 1,38,-1
 645 65 l 1,39,-1
 809 65 l 1,40,-1
 803 0 l 1,41,-1
 557 0 l 1,11,-1
313 -100 m 1,42,-1
 233 -100 l 1,43,-1
 631 810 l 1,44,-1
 711 810 l 1,45,-1
 313 -100 l 1,42,-1
EndSplineSet
Ligature2: "'frac' Diagonal Fractions in Latin lookup 1 subtable" onesuperior fraction twosuperior
Ligature2: "'frac' Diagonal Fractions in Latin lookup 1 subtable" onesuperior fraction two
Ligature2: "'frac' Diagonal Fractions in Latin lookup 1 subtable" onesuperior slash twosuperior
Ligature2: "'frac' Diagonal Fractions in Latin lookup 1 subtable" onesuperior slash two
Ligature2: "'frac' Diagonal Fractions in Latin lookup 1 subtable" one fraction twosuperior
Ligature2: "'frac' Diagonal Fractions in Latin lookup 1 subtable" one fraction two
Ligature2: "'frac' Diagonal Fractions in Latin lookup 1 subtable" one slash twosuperior
Ligature2: "'frac' Diagonal Fractions in Latin lookup 1 subtable" one slash two
EndChar

StartChar: plusminus
Encoding: 177 177 156
Width: 550
Flags: W
LayerCount: 2
Fore
SplineSet
329 275 m 1,0,-1
 317 143 l 1,1,-1
 237 143 l 1,2,-1
 249 275 l 1,3,-1
 99 275 l 1,4,-1
 105 350 l 1,5,-1
 255 350 l 1,6,-1
 269 508 l 1,7,-1
 349 508 l 1,8,-1
 335 350 l 1,9,-1
 485 350 l 1,10,-1
 479 275 l 1,11,-1
 329 275 l 1,0,-1
75 0 m 1,12,-1
 81 75 l 1,13,-1
 461 75 l 1,14,-1
 455 0 l 1,15,-1
 75 0 l 1,12,-1
EndSplineSet
EndChar

StartChar: Thorn
Encoding: 222 222 157
Width: 510
Flags: W
LayerCount: 2
Fore
SplineSet
470 350 m 0,0,1
 466 299 466 299 453.5 260 c 128,-1,2
 441 221 441 221 416 194.5 c 128,-1,3
 391 168 391 168 352.5 154.5 c 128,-1,4
 314 141 314 141 258 141 c 2,5,-1
 174 141 l 1,6,-1
 162 0 l 1,7,-1
 75 0 l 1,8,-1
 136 700 l 1,9,-1
 223 700 l 1,10,-1
 211 570 l 1,11,12
 230 571 230 571 250.5 572.5 c 128,-1,13
 271 574 271 574 294 574 c 0,14,15
 344 574 344 574 378 561 c 128,-1,16
 412 548 412 548 433 524.5 c 128,-1,17
 454 501 454 501 463.5 468.5 c 128,-1,18
 473 436 473 436 473 397 c 0,19,20
 473 389 473 389 472 374 c 128,-1,21
 471 359 471 359 470 350 c 0,0,1
382 355 m 0,22,23
 383 366 383 366 383.5 375 c 128,-1,24
 384 384 384 384 384 393 c 0,25,26
 384 449 384 449 364.5 475.5 c 128,-1,27
 345 502 345 502 299 502 c 0,28,29
 257 502 257 502 231 499 c 0,30,31
 216 497 216 497 205 496 c 1,32,-1
 180 214 l 1,33,-1
 274 214 l 2,34,35
 295 214 295 214 313 220.5 c 128,-1,36
 331 227 331 227 345 243.5 c 128,-1,37
 359 260 359 260 368.5 287 c 128,-1,38
 378 314 378 314 382 355 c 0,22,23
EndSplineSet
Position2: "'cpsp' Capital Spacing in Latin lookup 0 subtable" dx=5 dy=0 dh=10 dv=0
EndChar

StartChar: onequarter
Encoding: 188 188 158
Width: 875
Flags: W
LayerCount: 2
Fore
SplineSet
91 205 m 1,0,-1
 97 271 l 1,1,-1
 185 271 l 1,2,-1
 217 629 l 1,3,-1
 117 591 l 1,4,-1
 123 662 l 1,5,-1
 215 700 l 1,6,-1
 298 700 l 1,7,-1
 260 271 l 1,8,-1
 332 271 l 1,9,-1
 326 205 l 1,10,-1
 91 205 l 1,0,-1
745 117 m 1,11,-1
 734 0 l 1,12,-1
 660 0 l 1,13,-1
 671 117 l 1,14,-1
 524 117 l 1,15,-1
 530 191 l 1,16,-1
 631 495 l 1,17,-1
 700 495 l 1,18,-1
 599 181 l 1,19,-1
 676 181 l 1,20,-1
 689 324 l 1,21,-1
 763 324 l 1,22,-1
 750 181 l 1,23,-1
 800 181 l 1,24,-1
 795 117 l 1,25,-1
 745 117 l 1,11,-1
308 -100 m 1,26,-1
 228 -100 l 1,27,-1
 626 810 l 1,28,-1
 706 810 l 1,29,-1
 308 -100 l 1,26,-1
EndSplineSet
Ligature2: "'frac' Diagonal Fractions in Latin lookup 1 subtable" onesuperior fraction four
Ligature2: "'frac' Diagonal Fractions in Latin lookup 1 subtable" onesuperior slash four
Ligature2: "'frac' Diagonal Fractions in Latin lookup 1 subtable" one fraction four
Ligature2: "'frac' Diagonal Fractions in Latin lookup 1 subtable" one slash four
EndChar

StartChar: divide
Encoding: 247 247 159
Width: 550
Flags: W
LayerCount: 2
Fore
SplineSet
99 275 m 1,0,-1
 105 350 l 1,1,-1
 485 350 l 1,2,-1
 479 275 l 1,3,-1
 99 275 l 1,0,-1
220 65 m 1,4,-1
 229 165 l 1,5,-1
 329 165 l 1,6,-1
 320 65 l 1,7,-1
 220 65 l 1,4,-1
255 460 m 1,8,-1
 263 560 l 1,9,-1
 363 560 l 1,10,-1
 355 460 l 1,11,-1
 255 460 l 1,8,-1
EndSplineSet
EndChar

StartChar: brokenbar
Encoding: 166 166 160
Width: 290
Flags: W
LayerCount: 2
Fore
SplineSet
85 -110 m 1,0,-1
 116 250 l 1,1,-1
 196 250 l 1,2,-1
 165 -110 l 1,3,-1
 85 -110 l 1,0,-1
134 450 m 1,4,-1
 165 810 l 1,5,-1
 245 810 l 1,6,-1
 214 450 l 1,7,-1
 134 450 l 1,4,-1
EndSplineSet
EndChar

StartChar: degree
Encoding: 176 176 161
Width: 363
Flags: W
LayerCount: 2
Fore
SplineSet
298 567 m 0,0,1
 298 597 298 597 283 620 c 128,-1,2
 268 643 268 643 227 643 c 0,3,4
 202 643 202 643 185 633.5 c 128,-1,5
 168 624 168 624 158 608.5 c 128,-1,6
 148 593 148 593 144 574 c 128,-1,7
 140 555 140 555 140 537 c 0,8,9
 140 506 140 506 155 481 c 128,-1,10
 170 456 170 456 210 456 c 0,11,12
 236 456 236 456 252.5 466.5 c 128,-1,13
 269 477 269 477 279 493 c 128,-1,14
 289 509 289 509 293.5 528.5 c 128,-1,15
 298 548 298 548 298 567 c 0,0,1
372 571 m 0,16,17
 372 535 372 535 362.5 503 c 128,-1,18
 353 471 353 471 333 446 c 128,-1,19
 313 421 313 421 281.5 406.5 c 128,-1,20
 250 392 250 392 205 392 c 0,21,22
 168 392 168 392 141.5 402.5 c 128,-1,23
 115 413 115 413 98.5 432 c 128,-1,24
 82 451 82 451 74.5 476 c 128,-1,25
 67 501 67 501 67 529 c 0,26,27
 67 565 67 565 76 597 c 128,-1,28
 85 629 85 629 105 653 c 128,-1,29
 125 677 125 677 156.5 691 c 128,-1,30
 188 705 188 705 232 705 c 0,31,32
 270 705 270 705 296.5 695 c 128,-1,33
 323 685 323 685 340 667 c 128,-1,34
 357 649 357 649 364.5 624.5 c 128,-1,35
 372 600 372 600 372 571 c 0,16,17
EndSplineSet
EndChar

StartChar: thorn
Encoding: 254 254 162
Width: 499
Flags: W
LayerCount: 2
Fore
SplineSet
55 -170 m 1,0,-1
 131 700 l 1,1,-1
 216 700 l 1,2,-1
 194 455 l 1,3,4
 214 478 214 478 243 492.5 c 128,-1,5
 272 507 272 507 314 507 c 0,6,7
 389 507 389 507 419.5 461 c 128,-1,8
 450 415 450 415 450 334 c 0,9,10
 450 322 450 322 449.5 304 c 128,-1,11
 449 286 449 286 447 272 c 0,12,13
 440 196 440 196 425.5 142.5 c 128,-1,14
 411 89 411 89 383.5 56 c 128,-1,15
 356 23 356 23 314 8 c 128,-1,16
 272 -7 272 -7 210 -7 c 0,17,18
 196 -7 196 -7 182 -6 c 128,-1,19
 168 -5 168 -5 154 -3 c 1,20,-1
 140 -170 l 1,21,-1
 55 -170 l 1,0,-1
294 435 m 0,22,23
 265 435 265 435 244.5 422 c 128,-1,24
 224 409 224 409 210.5 389 c 128,-1,25
 197 369 197 369 190 345.5 c 128,-1,26
 183 322 183 322 181 300 c 2,27,-1
 160 68 l 1,28,29
 184 65 184 65 227 65 c 0,30,31
 261 65 261 65 284 78 c 128,-1,32
 307 91 307 91 322.5 116.5 c 128,-1,33
 338 142 338 142 347 181 c 128,-1,34
 356 220 356 220 360 272 c 0,35,36
 362 286 362 286 362.5 303.5 c 128,-1,37
 363 321 363 321 363 332 c 0,38,39
 363 384 363 384 347.5 409.5 c 128,-1,40
 332 435 332 435 294 435 c 0,22,23
EndSplineSet
EndChar

StartChar: threequarters
Encoding: 190 190 163
Width: 875
Flags: W
LayerCount: 2
Fore
SplineSet
338 341 m 0,0,1
 331 261 331 261 293 230.5 c 128,-1,2
 255 200 255 200 193 200 c 0,3,4
 179 200 179 200 163 201.5 c 128,-1,5
 147 203 147 203 133 205 c 128,-1,6
 119 207 119 207 108.5 208.5 c 128,-1,7
 98 210 98 210 95 211 c 1,8,-1
 101 275 l 1,9,10
 114 272 114 272 141.5 267.5 c 128,-1,11
 169 263 169 263 194 263 c 0,12,13
 265 263 265 263 265 371 c 0,14,15
 265 404 265 404 253 421 c 128,-1,16
 241 438 241 438 207 438 c 2,17,-1
 150 438 l 1,18,-1
 155 501 l 1,19,-1
 205 501 l 2,20,21
 232 501 232 501 246.5 512.5 c 128,-1,22
 261 524 261 524 268 539 c 128,-1,23
 275 554 275 554 276 570 c 128,-1,24
 277 586 277 586 277 595 c 0,25,26
 277 624 277 624 264 633 c 128,-1,27
 251 642 251 642 225 642 c 0,28,29
 200 642 200 642 176.5 638 c 128,-1,30
 153 634 153 634 136 630 c 1,31,-1
 141 694 l 1,32,33
 144 695 144 695 153.5 696.5 c 128,-1,34
 163 698 163 698 176 700 c 128,-1,35
 189 702 189 702 204 703.5 c 128,-1,36
 219 705 219 705 233 705 c 0,37,38
 257 705 257 705 278.5 700 c 128,-1,39
 300 695 300 695 316 682.5 c 128,-1,40
 332 670 332 670 341.5 648.5 c 128,-1,41
 351 627 351 627 351 594 c 0,42,43
 351 538 351 538 334 510.5 c 128,-1,44
 317 483 317 483 283 472 c 1,45,46
 311 466 311 466 325.5 438.5 c 128,-1,47
 340 411 340 411 340 370 c 0,48,49
 340 365 340 365 339.5 355.5 c 128,-1,50
 339 346 339 346 338 341 c 0,0,1
738 117 m 1,51,-1
 727 0 l 1,52,-1
 653 0 l 1,53,-1
 664 117 l 1,54,-1
 517 117 l 1,55,-1
 523 191 l 1,56,-1
 624 495 l 1,57,-1
 693 495 l 1,58,-1
 592 181 l 1,59,-1
 669 181 l 1,60,-1
 682 324 l 1,61,-1
 756 324 l 1,62,-1
 743 181 l 1,63,-1
 793 181 l 1,64,-1
 788 117 l 1,65,-1
 738 117 l 1,51,-1
297 -100 m 1,66,-1
 217 -100 l 1,67,-1
 615 810 l 1,68,-1
 695 810 l 1,69,-1
 297 -100 l 1,66,-1
EndSplineSet
Ligature2: "'frac' Diagonal Fractions in Latin lookup 1 subtable" threesuperior fraction four
Ligature2: "'frac' Diagonal Fractions in Latin lookup 1 subtable" threesuperior slash four
Ligature2: "'frac' Diagonal Fractions in Latin lookup 1 subtable" three fraction four
Ligature2: "'frac' Diagonal Fractions in Latin lookup 1 subtable" three slash four
EndChar

StartChar: twosuperior
Encoding: 178 178 164
Width: 410
Flags: W
LayerCount: 2
Fore
SplineSet
73 205 m 1,0,-1
 80 276 l 1,1,-1
 205 433 l 2,2,3
 225 459 225 459 238 478 c 128,-1,4
 251 497 251 497 258.5 514 c 128,-1,5
 266 531 266 531 269 549.5 c 128,-1,6
 272 568 272 568 272 593 c 0,7,8
 272 616 272 616 260 628.5 c 128,-1,9
 248 641 248 641 217 641 c 0,10,11
 193 641 193 641 167.5 637 c 128,-1,12
 142 633 142 633 124 629 c 1,13,-1
 129 694 l 1,14,15
 132 694 132 694 141.5 696 c 128,-1,16
 151 698 151 698 164 700 c 128,-1,17
 177 702 177 702 192 703.5 c 128,-1,18
 207 705 207 705 222 705 c 0,19,20
 285 705 285 705 315.5 673.5 c 128,-1,21
 346 642 346 642 346 588 c 0,22,23
 346 561 346 561 342 540 c 128,-1,24
 338 519 338 519 329.5 499.5 c 128,-1,25
 321 480 321 480 307 458.5 c 128,-1,26
 293 437 293 437 273 410 c 1,27,-1
 161 270 l 1,28,-1
 325 270 l 1,29,-1
 319 205 l 1,30,-1
 73 205 l 1,0,-1
EndSplineSet
EndChar

StartChar: registered
Encoding: 174 174 165
Width: 800
Flags: W
LayerCount: 2
Fore
SplineSet
735 350 m 256,0,1
 735 267 735 267 718.5 200.5 c 128,-1,2
 702 134 702 134 665.5 88 c 128,-1,3
 629 42 629 42 570 17.5 c 128,-1,4
 511 -7 511 -7 425 -7 c 0,5,6
 340 -7 340 -7 279 17 c 128,-1,7
 218 41 218 41 179.5 87 c 128,-1,8
 141 133 141 133 123 199 c 128,-1,9
 105 265 105 265 105 350 c 0,10,11
 105 433 105 433 123 499 c 128,-1,12
 141 565 141 565 179.5 611.5 c 128,-1,13
 218 658 218 658 278.5 682.5 c 128,-1,14
 339 707 339 707 425 707 c 256,15,16
 511 707 511 707 570 682 c 128,-1,17
 629 657 629 657 666 611 c 128,-1,18
 703 565 703 565 719 499 c 128,-1,19
 735 433 735 433 735 350 c 256,0,1
658 350 m 256,20,21
 658 416 658 416 648.5 469.5 c 128,-1,22
 639 523 639 523 613 560.5 c 128,-1,23
 587 598 587 598 541.5 618.5 c 128,-1,24
 496 639 496 639 425 639 c 256,25,26
 354 639 354 639 307 619 c 128,-1,27
 260 599 260 599 232.5 561.5 c 128,-1,28
 205 524 205 524 193.5 470.5 c 128,-1,29
 182 417 182 417 182 350 c 0,30,31
 182 284 182 284 193.5 230.5 c 128,-1,32
 205 177 205 177 232.5 139.5 c 128,-1,33
 260 102 260 102 307 81.5 c 128,-1,34
 354 61 354 61 425 61 c 256,35,36
 496 61 496 61 541.5 81.5 c 128,-1,37
 587 102 587 102 613 139.5 c 128,-1,38
 639 177 639 177 648.5 230.5 c 128,-1,39
 658 284 658 284 658 350 c 256,20,21
530 435 m 0,40,41
 530 393 530 393 517 364.5 c 128,-1,42
 504 336 504 336 475 324 c 1,43,-1
 550 159 l 1,44,-1
 489 159 l 1,45,-1
 422 316 l 1,46,-1
 384 316 l 1,47,-1
 384 159 l 1,48,-1
 330 159 l 1,49,-1
 330 544 l 1,50,51
 343 545 343 545 358 546 c 0,52,53
 371 547 371 547 387 547 c 128,-1,54
 403 547 403 547 420 547 c 0,55,56
 483 547 483 547 506.5 516.5 c 128,-1,57
 530 486 530 486 530 435 c 0,40,41
475 431 m 0,58,59
 475 471 475 471 465.5 486 c 128,-1,60
 456 501 456 501 427 501 c 0,61,62
 416 501 416 501 407.5 501 c 128,-1,63
 399 501 399 501 394 500 c 0,64,65
 388 499 388 499 384 499 c 1,66,-1
 384 364 l 1,67,-1
 427 364 l 2,68,69
 438 364 438 364 447 366 c 128,-1,70
 456 368 456 368 462 375 c 128,-1,71
 468 382 468 382 471.5 395.5 c 128,-1,72
 475 409 475 409 475 431 c 0,58,59
EndSplineSet
EndChar

StartChar: minus
Encoding: 8722 8722 166
Width: 550
Flags: W
LayerCount: 2
Fore
SplineSet
99 275 m 1,0,-1
 105 350 l 1,1,-1
 485 350 l 1,2,-1
 479 275 l 1,3,-1
 99 275 l 1,0,-1
EndSplineSet
EndChar

StartChar: eth
Encoding: 240 240 167
Width: 503
Flags: W
LayerCount: 2
Fore
SplineSet
357 677 m 1,0,1
 405 655 405 655 430 607 c 128,-1,2
 455 559 455 559 455 465 c 0,3,4
 455 462 455 462 454.5 451 c 128,-1,5
 454 440 454 440 453.5 427.5 c 128,-1,6
 453 415 453 415 452 404 c 128,-1,7
 451 393 451 393 451 389 c 0,8,9
 441 265 441 265 426.5 188 c 128,-1,10
 412 111 412 111 387.5 67.5 c 128,-1,11
 363 24 363 24 326.5 8.5 c 128,-1,12
 290 -7 290 -7 234 -7 c 0,13,14
 200 -7 200 -7 171 3 c 128,-1,15
 142 13 142 13 121 35 c 128,-1,16
 100 57 100 57 88 92.5 c 128,-1,17
 76 128 76 128 76 178 c 0,18,19
 76 188 76 188 76.5 198.5 c 128,-1,20
 77 209 77 209 78 220 c 0,21,22
 83 274 83 274 91 319 c 128,-1,23
 99 364 99 364 118.5 396 c 128,-1,24
 138 428 138 428 172 446 c 128,-1,25
 206 464 206 464 261 464 c 0,26,27
 299 464 299 464 325 454 c 128,-1,28
 351 444 351 444 368 433 c 1,29,30
 369 445 369 445 369 454 c 128,-1,31
 369 463 369 463 369 466 c 0,32,33
 369 531 369 531 356 564.5 c 128,-1,34
 343 598 343 598 315 614 c 1,35,-1
 276 556 l 1,36,-1
 194 556 l 1,37,-1
 245 632 l 1,38,39
 226 634 226 634 204.5 634.5 c 128,-1,40
 183 635 183 635 158 637 c 1,41,-1
 164 707 l 1,42,43
 199 705 199 705 230 703.5 c 128,-1,44
 261 702 261 702 288 697 c 1,45,-1
 324 750 l 1,46,-1
 406 750 l 1,47,-1
 357 677 l 1,0,1
246 65 m 0,48,49
 269 65 269 65 286.5 75 c 128,-1,50
 304 85 304 85 318 116.5 c 128,-1,51
 332 148 332 148 343 207 c 128,-1,52
 354 266 354 266 363 364 c 1,53,54
 354 369 354 369 327 380.5 c 128,-1,55
 300 392 300 392 262 392 c 0,56,57
 235 392 235 392 217.5 379.5 c 128,-1,58
 200 367 200 367 189 343.5 c 128,-1,59
 178 320 178 320 172 286.5 c 128,-1,60
 166 253 166 253 162 211 c 0,61,62
 161 200 161 200 160.5 190 c 128,-1,63
 160 180 160 180 160 171 c 0,64,65
 160 120 160 120 178.5 92.5 c 128,-1,66
 197 65 197 65 246 65 c 0,48,49
EndSplineSet
EndChar

StartChar: multiply
Encoding: 215 215 168
Width: 550
Flags: W
LayerCount: 2
Fore
SplineSet
293 253 m 1,0,-1
 176 137 l 1,1,-1
 120 193 l 1,2,-1
 236 310 l 1,3,-1
 120 427 l 1,4,-1
 176 483 l 1,5,-1
 293 367 l 1,6,-1
 410 483 l 1,7,-1
 466 427 l 1,8,-1
 350 310 l 1,9,-1
 466 193 l 1,10,-1
 410 137 l 1,11,-1
 293 253 l 1,0,-1
EndSplineSet
EndChar

StartChar: threesuperior
Encoding: 179 179 169
Width: 410
Flags: W
LayerCount: 2
Fore
SplineSet
331 341 m 0,0,1
 324 261 324 261 286 230.5 c 128,-1,2
 248 200 248 200 186 200 c 0,3,4
 172 200 172 200 156 201.5 c 128,-1,5
 140 203 140 203 126 205 c 128,-1,6
 112 207 112 207 101.5 208.5 c 128,-1,7
 91 210 91 210 88 211 c 1,8,-1
 94 275 l 1,9,10
 107 272 107 272 134.5 267.5 c 128,-1,11
 162 263 162 263 187 263 c 0,12,13
 258 263 258 263 258 371 c 0,14,15
 258 404 258 404 246 421 c 128,-1,16
 234 438 234 438 200 438 c 2,17,-1
 143 438 l 1,18,-1
 148 501 l 1,19,-1
 198 501 l 2,20,21
 225 501 225 501 239.5 512.5 c 128,-1,22
 254 524 254 524 261 539 c 128,-1,23
 268 554 268 554 269 570 c 128,-1,24
 270 586 270 586 270 595 c 0,25,26
 270 624 270 624 257 633 c 128,-1,27
 244 642 244 642 218 642 c 0,28,29
 193 642 193 642 169.5 638 c 128,-1,30
 146 634 146 634 129 630 c 1,31,-1
 134 694 l 1,32,33
 137 695 137 695 146.5 696.5 c 128,-1,34
 156 698 156 698 169 700 c 128,-1,35
 182 702 182 702 197 703.5 c 128,-1,36
 212 705 212 705 226 705 c 0,37,38
 250 705 250 705 271.5 700 c 128,-1,39
 293 695 293 695 309 682.5 c 128,-1,40
 325 670 325 670 334.5 648.5 c 128,-1,41
 344 627 344 627 344 594 c 0,42,43
 344 538 344 538 327 510.5 c 128,-1,44
 310 483 310 483 276 472 c 1,45,46
 304 466 304 466 318.5 438.5 c 128,-1,47
 333 411 333 411 333 370 c 0,48,49
 333 365 333 365 332.5 355.5 c 128,-1,50
 332 346 332 346 331 341 c 0,0,1
EndSplineSet
EndChar

StartChar: copyright
Encoding: 169 169 170
Width: 800
Flags: W
LayerCount: 2
Fore
SplineSet
491 163 m 1,0,1
 482 161 482 161 463 158 c 128,-1,2
 444 155 444 155 430 155 c 0,3,4
 400 155 400 155 378 163.5 c 128,-1,5
 356 172 356 172 341.5 194 c 128,-1,6
 327 216 327 216 319.5 255.5 c 128,-1,7
 312 295 312 295 312 356 c 256,8,9
 312 417 312 417 320 454 c 128,-1,10
 328 491 328 491 344 511.5 c 128,-1,11
 360 532 360 532 383 538.5 c 128,-1,12
 406 545 406 545 436 545 c 0,13,14
 442 545 442 545 450 544 c 128,-1,15
 458 543 458 543 466 542 c 128,-1,16
 474 541 474 541 481 539.5 c 128,-1,17
 488 538 488 538 491 537 c 1,18,-1
 491 489 l 1,19,20
 477 492 477 492 460 493.5 c 128,-1,21
 443 495 443 495 428 495 c 256,22,23
 413 495 413 495 402 491.5 c 128,-1,24
 391 488 391 488 383.5 473.5 c 128,-1,25
 376 459 376 459 372.5 430.5 c 128,-1,26
 369 402 369 402 369 352 c 0,27,28
 369 300 369 300 373 270.5 c 128,-1,29
 377 241 377 241 384.5 226.5 c 128,-1,30
 392 212 392 212 403 208.5 c 128,-1,31
 414 205 414 205 429 205 c 0,32,33
 446 205 446 205 463 207 c 128,-1,34
 480 209 480 209 491 211 c 1,35,-1
 491 163 l 1,0,1
735 350 m 256,36,37
 735 267 735 267 718.5 200.5 c 128,-1,38
 702 134 702 134 665.5 88 c 128,-1,39
 629 42 629 42 570 17.5 c 128,-1,40
 511 -7 511 -7 425 -7 c 0,41,42
 340 -7 340 -7 279 17 c 128,-1,43
 218 41 218 41 179.5 87 c 128,-1,44
 141 133 141 133 123 199 c 128,-1,45
 105 265 105 265 105 350 c 0,46,47
 105 433 105 433 123 499 c 128,-1,48
 141 565 141 565 179.5 611.5 c 128,-1,49
 218 658 218 658 278.5 682.5 c 128,-1,50
 339 707 339 707 425 707 c 256,51,52
 511 707 511 707 570 682 c 128,-1,53
 629 657 629 657 666 611 c 128,-1,54
 703 565 703 565 719 499 c 128,-1,55
 735 433 735 433 735 350 c 256,36,37
658 350 m 256,56,57
 658 416 658 416 648.5 469.5 c 128,-1,58
 639 523 639 523 613 560.5 c 128,-1,59
 587 598 587 598 541.5 618.5 c 128,-1,60
 496 639 496 639 425 639 c 256,61,62
 354 639 354 639 307 619 c 128,-1,63
 260 599 260 599 232.5 561.5 c 128,-1,64
 205 524 205 524 193.5 470.5 c 128,-1,65
 182 417 182 417 182 350 c 0,66,67
 182 284 182 284 193.5 230.5 c 128,-1,68
 205 177 205 177 232.5 139.5 c 128,-1,69
 260 102 260 102 307 81.5 c 128,-1,70
 354 61 354 61 425 61 c 256,71,72
 496 61 496 61 541.5 81.5 c 128,-1,73
 587 102 587 102 613 139.5 c 128,-1,74
 639 177 639 177 648.5 230.5 c 128,-1,75
 658 284 658 284 658 350 c 256,56,57
EndSplineSet
EndChar

StartChar: Aacute
Encoding: 193 193 171
Width: 500
Flags: W
LayerCount: 2
Fore
SplineSet
214 726 m 1,0,-1
 328 841 l 1,1,-1
 439 841 l 1,2,-1
 297 726 l 1,3,-1
 214 726 l 1,0,-1
295 634 m 1,4,-1
 181 252 l 1,5,-1
 346 252 l 1,6,-1
 295 634 l 1,4,-1
378 0 m 1,7,-1
 355 177 l 1,8,-1
 158 177 l 1,9,-1
 104 0 l 1,10,-1
 15 0 l 1,11,-1
 243 700 l 1,12,-1
 358 700 l 1,13,-1
 465 0 l 1,14,-1
 378 0 l 1,7,-1
EndSplineSet
Position2: "'cpsp' Capital Spacing in Latin lookup 0 subtable" dx=5 dy=0 dh=10 dv=0
EndChar

StartChar: Acircumflex
Encoding: 194 194 172
Width: 500
Flags: W
LayerCount: 2
Fore
SplineSet
362 730 m 1,0,-1
 308 794 l 1,1,-1
 242 730 l 1,2,-1
 146 730 l 1,3,-1
 266 845 l 1,4,-1
 358 845 l 1,5,-1
 459 730 l 1,6,-1
 362 730 l 1,0,-1
295 634 m 1,7,-1
 181 252 l 1,8,-1
 346 252 l 1,9,-1
 295 634 l 1,7,-1
378 0 m 1,10,-1
 355 177 l 1,11,-1
 158 177 l 1,12,-1
 104 0 l 1,13,-1
 15 0 l 1,14,-1
 243 700 l 1,15,-1
 358 700 l 1,16,-1
 465 0 l 1,17,-1
 378 0 l 1,10,-1
EndSplineSet
Position2: "'cpsp' Capital Spacing in Latin lookup 0 subtable" dx=5 dy=0 dh=10 dv=0
EndChar

StartChar: Adieresis
Encoding: 196 196 173
Width: 500
Flags: W
LayerCount: 2
Fore
SplineSet
295 634 m 1,0,-1
 181 252 l 1,1,-1
 346 252 l 1,2,-1
 295 634 l 1,0,-1
378 0 m 1,3,-1
 355 177 l 1,4,-1
 158 177 l 1,5,-1
 104 0 l 1,6,-1
 15 0 l 1,7,-1
 243 700 l 1,8,-1
 358 700 l 1,9,-1
 465 0 l 1,10,-1
 378 0 l 1,3,-1
361 735 m 1,11,-1
 368 815 l 1,12,-1
 453 815 l 1,13,-1
 446 735 l 1,14,-1
 361 735 l 1,11,-1
161 735 m 1,15,-1
 168 815 l 1,16,-1
 253 815 l 1,17,-1
 246 735 l 1,18,-1
 161 735 l 1,15,-1
EndSplineSet
Position2: "'cpsp' Capital Spacing in Latin lookup 0 subtable" dx=5 dy=0 dh=10 dv=0
EndChar

StartChar: Agrave
Encoding: 192 192 174
Width: 500
Flags: W
LayerCount: 2
Fore
SplineSet
307 726 m 1,0,-1
 185 841 l 1,1,-1
 296 841 l 1,2,-1
 390 726 l 1,3,-1
 307 726 l 1,0,-1
295 634 m 1,4,-1
 181 252 l 1,5,-1
 346 252 l 1,6,-1
 295 634 l 1,4,-1
378 0 m 1,7,-1
 355 177 l 1,8,-1
 158 177 l 1,9,-1
 104 0 l 1,10,-1
 15 0 l 1,11,-1
 243 700 l 1,12,-1
 358 700 l 1,13,-1
 465 0 l 1,14,-1
 378 0 l 1,7,-1
EndSplineSet
Position2: "'cpsp' Capital Spacing in Latin lookup 0 subtable" dx=5 dy=0 dh=10 dv=0
EndChar

StartChar: Aring
Encoding: 197 197 175
Width: 500
Flags: W
LayerCount: 2
Fore
SplineSet
401 753 m 0,0,1
 396 700 396 700 362 672 c 1,2,-1
 465 0 l 1,3,-1
 378 0 l 1,4,-1
 355 177 l 1,5,-1
 158 177 l 1,6,-1
 104 0 l 1,7,-1
 15 0 l 1,8,-1
 235 676 l 1,9,10
 211 703 211 703 211 742 c 0,11,12
 211 790 211 790 238 822.5 c 128,-1,13
 265 855 265 855 314 855 c 0,14,15
 355 855 355 855 378.5 830 c 128,-1,16
 402 805 402 805 402 765 c 0,17,18
 402 762 402 762 401.5 759 c 128,-1,19
 401 756 401 756 401 753 c 0,0,1
295 634 m 1,20,-1
 181 252 l 1,21,-1
 346 252 l 1,22,-1
 295 634 l 1,20,-1
343 763 m 2,23,24
 343 780 343 780 336 791.5 c 128,-1,25
 329 803 329 803 309 803 c 0,26,27
 285 803 285 803 276.5 785 c 128,-1,28
 268 767 268 767 268 747 c 0,29,30
 268 731 268 731 274.5 718 c 128,-1,31
 281 705 281 705 301 705 c 0,32,33
 326 705 326 705 333.5 720 c 128,-1,34
 341 735 341 735 343 754 c 1,35,-1
 343 763 l 2,23,24
EndSplineSet
Position2: "'cpsp' Capital Spacing in Latin lookup 0 subtable" dx=5 dy=0 dh=10 dv=0
EndChar

StartChar: Atilde
Encoding: 195 195 176
Width: 500
Flags: W
LayerCount: 2
Fore
SplineSet
295 634 m 1,0,-1
 181 252 l 1,1,-1
 346 252 l 1,2,-1
 295 634 l 1,0,-1
378 0 m 1,3,-1
 355 177 l 1,4,-1
 158 177 l 1,5,-1
 104 0 l 1,6,-1
 15 0 l 1,7,-1
 243 700 l 1,8,-1
 358 700 l 1,9,-1
 465 0 l 1,10,-1
 378 0 l 1,3,-1
182 807 m 1,11,12
 206 826 206 826 228.5 833 c 128,-1,13
 251 840 251 840 271 840 c 0,14,15
 289 840 289 840 302.5 834 c 128,-1,16
 316 828 316 828 329 820.5 c 128,-1,17
 342 813 342 813 354 807 c 128,-1,18
 366 801 366 801 381 801 c 0,19,20
 407 801 407 801 425 810.5 c 128,-1,21
 443 820 443 820 464 837 c 1,22,-1
 458 764 l 1,23,24
 437 745 437 745 416 738 c 128,-1,25
 395 731 395 731 369 731 c 0,26,27
 350 731 350 731 336.5 737 c 128,-1,28
 323 743 323 743 311 750.5 c 128,-1,29
 299 758 299 758 287 764 c 128,-1,30
 275 770 275 770 259 770 c 0,31,32
 233 770 233 770 212.5 759 c 128,-1,33
 192 748 192 748 175 734 c 1,34,-1
 182 807 l 1,11,12
EndSplineSet
Position2: "'cpsp' Capital Spacing in Latin lookup 0 subtable" dx=5 dy=0 dh=10 dv=0
EndChar

StartChar: Ccedilla
Encoding: 199 199 177
Width: 423
Flags: W
LayerCount: 2
Fore
SplineSet
158 -131 m 1,0,1
 172 -134 172 -134 186.5 -135.5 c 128,-1,2
 201 -137 201 -137 212 -137 c 0,3,4
 233 -137 233 -137 244 -130.5 c 128,-1,5
 255 -124 255 -124 255 -103 c 0,6,7
 255 -89 255 -89 239.5 -82.5 c 128,-1,8
 224 -76 224 -76 177 -76 c 1,9,-1
 195 -1 l 1,10,11
 167 6 167 6 145 22 c 128,-1,12
 123 38 123 38 109 66 c 128,-1,13
 95 94 95 94 87.5 136 c 128,-1,14
 80 178 80 178 80 237 c 0,15,16
 80 291 80 291 86 361 c 0,17,18
 96 472 96 472 113.5 539.5 c 128,-1,19
 131 607 131 607 160 644.5 c 128,-1,20
 189 682 189 682 230.5 694.5 c 128,-1,21
 272 707 272 707 330 707 c 0,22,23
 340 707 340 707 354.5 705 c 128,-1,24
 369 703 369 703 383.5 700.5 c 128,-1,25
 398 698 398 698 410 695.5 c 128,-1,26
 422 693 422 693 428 691 c 1,27,-1
 421 617 l 1,28,29
 397 623 397 623 365 627.5 c 128,-1,30
 333 632 333 632 306 632 c 256,31,32
 279 632 279 632 258 622.5 c 128,-1,33
 237 613 237 613 221 583.5 c 128,-1,34
 205 554 205 554 193.5 499.5 c 128,-1,35
 182 445 182 445 174 354 c 0,36,37
 174 348 174 348 172.5 329 c 128,-1,38
 171 310 171 310 170 288.5 c 128,-1,39
 169 267 169 267 168 248.5 c 128,-1,40
 167 230 167 230 167 226 c 0,41,42
 167 175 167 175 173 144 c 128,-1,43
 179 113 179 113 191 96 c 128,-1,44
 203 79 203 79 220 73.5 c 128,-1,45
 237 68 237 68 258 68 c 0,46,47
 289 68 289 68 322 73 c 128,-1,48
 355 78 355 78 375 83 c 1,49,-1
 368 10 l 1,50,51
 351 5 351 5 318 -0.5 c 128,-1,52
 285 -6 285 -6 259 -7 c 1,53,-1
 255 -27 l 1,54,55
 297 -32 297 -32 314.5 -48.5 c 128,-1,56
 332 -65 332 -65 332 -97 c 0,57,58
 332 -151 332 -151 299 -175.5 c 128,-1,59
 266 -200 266 -200 215 -200 c 0,60,61
 197 -200 197 -200 182 -198 c 128,-1,62
 167 -196 167 -196 152 -193 c 1,63,-1
 158 -131 l 1,0,1
EndSplineSet
Position2: "'cpsp' Capital Spacing in Latin lookup 0 subtable" dx=5 dy=0 dh=10 dv=0
EndChar

StartChar: Eacute
Encoding: 201 201 178
Width: 468
Flags: W
LayerCount: 2
Fore
SplineSet
235 726 m 1,0,-1
 349 841 l 1,1,-1
 460 841 l 1,2,-1
 318 726 l 1,3,-1
 235 726 l 1,0,-1
75 0 m 1,4,-1
 136 700 l 1,5,-1
 464 700 l 1,6,-1
 457 627 l 1,7,-1
 216 627 l 1,8,-1
 196 398 l 1,9,-1
 412 398 l 1,10,-1
 406 325 l 1,11,-1
 190 325 l 1,12,-1
 168 73 l 1,13,-1
 409 73 l 1,14,-1
 403 0 l 1,15,-1
 75 0 l 1,4,-1
EndSplineSet
Position2: "'cpsp' Capital Spacing in Latin lookup 0 subtable" dx=5 dy=0 dh=10 dv=0
EndChar

StartChar: Ecircumflex
Encoding: 202 202 179
Width: 468
Flags: W
LayerCount: 2
Fore
SplineSet
362 730 m 1,0,-1
 308 794 l 1,1,-1
 242 730 l 1,2,-1
 146 730 l 1,3,-1
 266 845 l 1,4,-1
 358 845 l 1,5,-1
 459 730 l 1,6,-1
 362 730 l 1,0,-1
75 0 m 1,7,-1
 136 700 l 1,8,-1
 464 700 l 1,9,-1
 457 627 l 1,10,-1
 216 627 l 1,11,-1
 196 398 l 1,12,-1
 412 398 l 1,13,-1
 406 325 l 1,14,-1
 190 325 l 1,15,-1
 168 73 l 1,16,-1
 409 73 l 1,17,-1
 403 0 l 1,18,-1
 75 0 l 1,7,-1
EndSplineSet
Position2: "'cpsp' Capital Spacing in Latin lookup 0 subtable" dx=5 dy=0 dh=10 dv=0
EndChar

StartChar: Edieresis
Encoding: 203 203 180
Width: 468
Flags: W
LayerCount: 2
Fore
SplineSet
75 0 m 1,0,-1
 136 700 l 1,1,-1
 464 700 l 1,2,-1
 457 627 l 1,3,-1
 216 627 l 1,4,-1
 196 398 l 1,5,-1
 412 398 l 1,6,-1
 406 325 l 1,7,-1
 190 325 l 1,8,-1
 168 73 l 1,9,-1
 409 73 l 1,10,-1
 403 0 l 1,11,-1
 75 0 l 1,0,-1
363 735 m 1,12,-1
 370 815 l 1,13,-1
 455 815 l 1,14,-1
 448 735 l 1,15,-1
 363 735 l 1,12,-1
163 735 m 1,16,-1
 170 815 l 1,17,-1
 255 815 l 1,18,-1
 248 735 l 1,19,-1
 163 735 l 1,16,-1
EndSplineSet
Position2: "'cpsp' Capital Spacing in Latin lookup 0 subtable" dx=5 dy=0 dh=10 dv=0
EndChar

StartChar: Egrave
Encoding: 200 200 181
Width: 468
Flags: W
LayerCount: 2
Fore
SplineSet
297 726 m 1,0,-1
 175 841 l 1,1,-1
 286 841 l 1,2,-1
 380 726 l 1,3,-1
 297 726 l 1,0,-1
75 0 m 1,4,-1
 136 700 l 1,5,-1
 464 700 l 1,6,-1
 457 627 l 1,7,-1
 216 627 l 1,8,-1
 196 398 l 1,9,-1
 412 398 l 1,10,-1
 406 325 l 1,11,-1
 190 325 l 1,12,-1
 168 73 l 1,13,-1
 409 73 l 1,14,-1
 403 0 l 1,15,-1
 75 0 l 1,4,-1
EndSplineSet
Position2: "'cpsp' Capital Spacing in Latin lookup 0 subtable" dx=5 dy=0 dh=10 dv=0
EndChar

StartChar: Iacute
Encoding: 205 205 182
Width: 317
Flags: W
LayerCount: 2
Fore
SplineSet
114 726 m 1,0,-1
 228 841 l 1,1,-1
 339 841 l 1,2,-1
 197 726 l 1,3,-1
 114 726 l 1,0,-1
35 0 m 1,4,-1
 41 73 l 1,5,-1
 111 73 l 1,6,-1
 159 627 l 1,7,-1
 89 627 l 1,8,-1
 96 700 l 1,9,-1
 323 700 l 1,10,-1
 316 627 l 1,11,-1
 246 627 l 1,12,-1
 198 73 l 1,13,-1
 268 73 l 1,14,-1
 262 0 l 1,15,-1
 35 0 l 1,4,-1
EndSplineSet
Position2: "'cpsp' Capital Spacing in Latin lookup 0 subtable" dx=5 dy=0 dh=10 dv=0
EndChar

StartChar: Icircumflex
Encoding: 206 206 183
Width: 317
Flags: W
LayerCount: 2
Fore
SplineSet
273 730 m 1,0,-1
 219 794 l 1,1,-1
 153 730 l 1,2,-1
 55 730 l 1,3,-1
 175 845 l 1,4,-1
 267 845 l 1,5,-1
 368 730 l 1,6,-1
 273 730 l 1,0,-1
35 0 m 1,7,-1
 41 73 l 1,8,-1
 111 73 l 1,9,-1
 159 627 l 1,10,-1
 89 627 l 1,11,-1
 96 700 l 1,12,-1
 323 700 l 1,13,-1
 316 627 l 1,14,-1
 246 627 l 1,15,-1
 198 73 l 1,16,-1
 268 73 l 1,17,-1
 262 0 l 1,18,-1
 35 0 l 1,7,-1
EndSplineSet
Position2: "'cpsp' Capital Spacing in Latin lookup 0 subtable" dx=5 dy=0 dh=10 dv=0
EndChar

StartChar: Idieresis
Encoding: 207 207 184
Width: 317
Flags: W
LayerCount: 2
Fore
SplineSet
35 0 m 1,0,-1
 41 73 l 1,1,-1
 111 73 l 1,2,-1
 159 627 l 1,3,-1
 89 627 l 1,4,-1
 96 700 l 1,5,-1
 323 700 l 1,6,-1
 316 627 l 1,7,-1
 246 627 l 1,8,-1
 198 73 l 1,9,-1
 268 73 l 1,10,-1
 262 0 l 1,11,-1
 35 0 l 1,0,-1
271 735 m 1,12,-1
 278 815 l 1,13,-1
 363 815 l 1,14,-1
 356 735 l 1,15,-1
 271 735 l 1,12,-1
71 735 m 1,16,-1
 78 815 l 1,17,-1
 163 815 l 1,18,-1
 156 735 l 1,19,-1
 71 735 l 1,16,-1
EndSplineSet
Position2: "'cpsp' Capital Spacing in Latin lookup 0 subtable" dx=5 dy=0 dh=10 dv=0
EndChar

StartChar: Igrave
Encoding: 204 204 185
Width: 317
Flags: W
LayerCount: 2
Fore
SplineSet
223 726 m 1,0,-1
 101 841 l 1,1,-1
 212 841 l 1,2,-1
 306 726 l 1,3,-1
 223 726 l 1,0,-1
35 0 m 1,4,-1
 41 73 l 1,5,-1
 111 73 l 1,6,-1
 159 627 l 1,7,-1
 89 627 l 1,8,-1
 96 700 l 1,9,-1
 323 700 l 1,10,-1
 316 627 l 1,11,-1
 246 627 l 1,12,-1
 198 73 l 1,13,-1
 268 73 l 1,14,-1
 262 0 l 1,15,-1
 35 0 l 1,4,-1
EndSplineSet
Position2: "'cpsp' Capital Spacing in Latin lookup 0 subtable" dx=5 dy=0 dh=10 dv=0
EndChar

StartChar: Ntilde
Encoding: 209 209 186
Width: 547
Flags: W
LayerCount: 2
Fore
SplineSet
309 0 m 1,0,-1
 210 626 l 1,1,-1
 156 0 l 1,2,-1
 75 0 l 1,3,-1
 136 700 l 1,4,-1
 278 700 l 1,5,-1
 377 74 l 1,6,-1
 432 700 l 1,7,-1
 513 700 l 1,8,-1
 452 0 l 1,9,-1
 309 0 l 1,0,-1
197 807 m 1,10,11
 221 826 221 826 243.5 833 c 128,-1,12
 266 840 266 840 286 840 c 0,13,14
 304 840 304 840 317.5 834 c 128,-1,15
 331 828 331 828 344 820.5 c 128,-1,16
 357 813 357 813 369 807 c 128,-1,17
 381 801 381 801 396 801 c 0,18,19
 422 801 422 801 440 810.5 c 128,-1,20
 458 820 458 820 479 837 c 1,21,-1
 473 764 l 1,22,23
 452 745 452 745 431 738 c 128,-1,24
 410 731 410 731 384 731 c 0,25,26
 365 731 365 731 351.5 737 c 128,-1,27
 338 743 338 743 326 750.5 c 128,-1,28
 314 758 314 758 302 764 c 128,-1,29
 290 770 290 770 274 770 c 0,30,31
 248 770 248 770 227.5 759 c 128,-1,32
 207 748 207 748 190 734 c 1,33,-1
 197 807 l 1,10,11
EndSplineSet
Position2: "'cpsp' Capital Spacing in Latin lookup 0 subtable" dx=5 dy=0 dh=10 dv=0
EndChar

StartChar: Oacute
Encoding: 211 211 187
Width: 548
Flags: W
LayerCount: 2
Fore
SplineSet
259 726 m 1,0,-1
 373 841 l 1,1,-1
 484 841 l 1,2,-1
 342 726 l 1,3,-1
 259 726 l 1,0,-1
414 353 m 0,4,5
 417 388 417 388 419 417.5 c 128,-1,6
 421 447 421 447 421 473 c 0,7,8
 421 519 421 519 415 550 c 128,-1,9
 409 581 409 581 396.5 599.5 c 128,-1,10
 384 618 384 618 365 626 c 128,-1,11
 346 634 346 634 319 634 c 0,12,13
 286 634 286 634 262 621 c 128,-1,14
 238 608 238 608 221 576 c 128,-1,15
 204 544 204 544 193 490 c 128,-1,16
 182 436 182 436 174 353 c 0,17,18
 174 347 174 347 173 330 c 128,-1,19
 172 313 172 313 171 294 c 128,-1,20
 170 275 170 275 169 259 c 128,-1,21
 168 243 168 243 168 238 c 0,22,23
 168 144 168 144 192 105 c 128,-1,24
 216 66 216 66 269 66 c 0,25,26
 303 66 303 66 327 80.5 c 128,-1,27
 351 95 351 95 368.5 129 c 128,-1,28
 386 163 386 163 396.5 217.5 c 128,-1,29
 407 272 407 272 414 353 c 0,4,5
504 358 m 0,30,31
 496 266 496 266 481 197.5 c 128,-1,32
 466 129 466 129 439 83.5 c 128,-1,33
 412 38 412 38 369.5 15.5 c 128,-1,34
 327 -7 327 -7 263 -7 c 0,35,36
 211 -7 211 -7 176 9.5 c 128,-1,37
 141 26 141 26 120 59.5 c 128,-1,38
 99 93 99 93 90 143.5 c 128,-1,39
 81 194 81 194 81 261 c 0,40,41
 81 266 81 266 81.5 279.5 c 128,-1,42
 82 293 82 293 83 309 c 128,-1,43
 84 325 84 325 85 339 c 128,-1,44
 86 353 86 353 86 358 c 0,45,46
 94 446 94 446 108 511.5 c 128,-1,47
 122 577 122 577 149 620.5 c 128,-1,48
 176 664 176 664 218.5 685.5 c 128,-1,49
 261 707 261 707 325 707 c 0,50,51
 427 707 427 707 468 646 c 128,-1,52
 509 585 509 585 509 461 c 0,53,54
 509 437 509 437 507.5 411.5 c 128,-1,55
 506 386 506 386 504 358 c 0,30,31
EndSplineSet
Position2: "'cpsp' Capital Spacing in Latin lookup 0 subtable" dx=5 dy=0 dh=10 dv=0
EndChar

StartChar: Ocircumflex
Encoding: 212 212 188
Width: 548
Flags: W
LayerCount: 2
Fore
SplineSet
387 730 m 1,0,-1
 333 794 l 1,1,-1
 267 730 l 1,2,-1
 171 730 l 1,3,-1
 291 845 l 1,4,-1
 383 845 l 1,5,-1
 484 730 l 1,6,-1
 387 730 l 1,0,-1
414 353 m 0,7,8
 417 388 417 388 419 417.5 c 128,-1,9
 421 447 421 447 421 473 c 0,10,11
 421 519 421 519 415 550 c 128,-1,12
 409 581 409 581 396.5 599.5 c 128,-1,13
 384 618 384 618 365 626 c 128,-1,14
 346 634 346 634 319 634 c 0,15,16
 286 634 286 634 262 621 c 128,-1,17
 238 608 238 608 221 576 c 128,-1,18
 204 544 204 544 193 490 c 128,-1,19
 182 436 182 436 174 353 c 0,20,21
 174 347 174 347 173 330 c 128,-1,22
 172 313 172 313 171 294 c 128,-1,23
 170 275 170 275 169 259 c 128,-1,24
 168 243 168 243 168 238 c 0,25,26
 168 144 168 144 192 105 c 128,-1,27
 216 66 216 66 269 66 c 0,28,29
 303 66 303 66 327 80.5 c 128,-1,30
 351 95 351 95 368.5 129 c 128,-1,31
 386 163 386 163 396.5 217.5 c 128,-1,32
 407 272 407 272 414 353 c 0,7,8
504 358 m 0,33,34
 496 266 496 266 481 197.5 c 128,-1,35
 466 129 466 129 439 83.5 c 128,-1,36
 412 38 412 38 369.5 15.5 c 128,-1,37
 327 -7 327 -7 263 -7 c 0,38,39
 211 -7 211 -7 176 9.5 c 128,-1,40
 141 26 141 26 120 59.5 c 128,-1,41
 99 93 99 93 90 143.5 c 128,-1,42
 81 194 81 194 81 261 c 0,43,44
 81 266 81 266 81.5 279.5 c 128,-1,45
 82 293 82 293 83 309 c 128,-1,46
 84 325 84 325 85 339 c 128,-1,47
 86 353 86 353 86 358 c 0,48,49
 94 446 94 446 108 511.5 c 128,-1,50
 122 577 122 577 149 620.5 c 128,-1,51
 176 664 176 664 218.5 685.5 c 128,-1,52
 261 707 261 707 325 707 c 0,53,54
 427 707 427 707 468 646 c 128,-1,55
 509 585 509 585 509 461 c 0,56,57
 509 437 509 437 507.5 411.5 c 128,-1,58
 506 386 506 386 504 358 c 0,33,34
EndSplineSet
Position2: "'cpsp' Capital Spacing in Latin lookup 0 subtable" dx=5 dy=0 dh=10 dv=0
EndChar

StartChar: Odieresis
Encoding: 214 214 189
Width: 548
Flags: W
LayerCount: 2
Fore
SplineSet
386 735 m 1,0,-1
 393 815 l 1,1,-1
 478 815 l 1,2,-1
 471 735 l 1,3,-1
 386 735 l 1,0,-1
186 735 m 1,4,-1
 193 815 l 1,5,-1
 278 815 l 1,6,-1
 271 735 l 1,7,-1
 186 735 l 1,4,-1
414 353 m 0,8,9
 417 388 417 388 419 417.5 c 128,-1,10
 421 447 421 447 421 473 c 0,11,12
 421 519 421 519 415 550 c 128,-1,13
 409 581 409 581 396.5 599.5 c 128,-1,14
 384 618 384 618 365 626 c 128,-1,15
 346 634 346 634 319 634 c 0,16,17
 286 634 286 634 262 621 c 128,-1,18
 238 608 238 608 221 576 c 128,-1,19
 204 544 204 544 193 490 c 128,-1,20
 182 436 182 436 174 353 c 0,21,22
 174 347 174 347 173 330 c 128,-1,23
 172 313 172 313 171 294 c 128,-1,24
 170 275 170 275 169 259 c 128,-1,25
 168 243 168 243 168 238 c 0,26,27
 168 144 168 144 192 105 c 128,-1,28
 216 66 216 66 269 66 c 0,29,30
 303 66 303 66 327 80.5 c 128,-1,31
 351 95 351 95 368.5 129 c 128,-1,32
 386 163 386 163 396.5 217.5 c 128,-1,33
 407 272 407 272 414 353 c 0,8,9
504 358 m 0,34,35
 496 266 496 266 481 197.5 c 128,-1,36
 466 129 466 129 439 83.5 c 128,-1,37
 412 38 412 38 369.5 15.5 c 128,-1,38
 327 -7 327 -7 263 -7 c 0,39,40
 211 -7 211 -7 176 9.5 c 128,-1,41
 141 26 141 26 120 59.5 c 128,-1,42
 99 93 99 93 90 143.5 c 128,-1,43
 81 194 81 194 81 261 c 0,44,45
 81 266 81 266 81.5 279.5 c 128,-1,46
 82 293 82 293 83 309 c 128,-1,47
 84 325 84 325 85 339 c 128,-1,48
 86 353 86 353 86 358 c 0,49,50
 94 446 94 446 108 511.5 c 128,-1,51
 122 577 122 577 149 620.5 c 128,-1,52
 176 664 176 664 218.5 685.5 c 128,-1,53
 261 707 261 707 325 707 c 0,54,55
 427 707 427 707 468 646 c 128,-1,56
 509 585 509 585 509 461 c 0,57,58
 509 437 509 437 507.5 411.5 c 128,-1,59
 506 386 506 386 504 358 c 0,34,35
EndSplineSet
Position2: "'cpsp' Capital Spacing in Latin lookup 0 subtable" dx=5 dy=0 dh=10 dv=0
EndChar

StartChar: Ograve
Encoding: 210 210 190
Width: 548
Flags: W
LayerCount: 2
Fore
SplineSet
316 726 m 1,0,-1
 194 841 l 1,1,-1
 305 841 l 1,2,-1
 399 726 l 1,3,-1
 316 726 l 1,0,-1
414 353 m 0,4,5
 417 388 417 388 419 417.5 c 128,-1,6
 421 447 421 447 421 473 c 0,7,8
 421 519 421 519 415 550 c 128,-1,9
 409 581 409 581 396.5 599.5 c 128,-1,10
 384 618 384 618 365 626 c 128,-1,11
 346 634 346 634 319 634 c 0,12,13
 286 634 286 634 262 621 c 128,-1,14
 238 608 238 608 221 576 c 128,-1,15
 204 544 204 544 193 490 c 128,-1,16
 182 436 182 436 174 353 c 0,17,18
 174 347 174 347 173 330 c 128,-1,19
 172 313 172 313 171 294 c 128,-1,20
 170 275 170 275 169 259 c 128,-1,21
 168 243 168 243 168 238 c 0,22,23
 168 144 168 144 192 105 c 128,-1,24
 216 66 216 66 269 66 c 0,25,26
 303 66 303 66 327 80.5 c 128,-1,27
 351 95 351 95 368.5 129 c 128,-1,28
 386 163 386 163 396.5 217.5 c 128,-1,29
 407 272 407 272 414 353 c 0,4,5
504 358 m 0,30,31
 496 266 496 266 481 197.5 c 128,-1,32
 466 129 466 129 439 83.5 c 128,-1,33
 412 38 412 38 369.5 15.5 c 128,-1,34
 327 -7 327 -7 263 -7 c 0,35,36
 211 -7 211 -7 176 9.5 c 128,-1,37
 141 26 141 26 120 59.5 c 128,-1,38
 99 93 99 93 90 143.5 c 128,-1,39
 81 194 81 194 81 261 c 0,40,41
 81 266 81 266 81.5 279.5 c 128,-1,42
 82 293 82 293 83 309 c 128,-1,43
 84 325 84 325 85 339 c 128,-1,44
 86 353 86 353 86 358 c 0,45,46
 94 446 94 446 108 511.5 c 128,-1,47
 122 577 122 577 149 620.5 c 128,-1,48
 176 664 176 664 218.5 685.5 c 128,-1,49
 261 707 261 707 325 707 c 0,50,51
 427 707 427 707 468 646 c 128,-1,52
 509 585 509 585 509 461 c 0,53,54
 509 437 509 437 507.5 411.5 c 128,-1,55
 506 386 506 386 504 358 c 0,30,31
EndSplineSet
Position2: "'cpsp' Capital Spacing in Latin lookup 0 subtable" dx=5 dy=0 dh=10 dv=0
EndChar

StartChar: Otilde
Encoding: 213 213 191
Width: 548
Flags: W
LayerCount: 2
Fore
SplineSet
414 353 m 0,0,1
 417 388 417 388 419 417.5 c 128,-1,2
 421 447 421 447 421 473 c 0,3,4
 421 519 421 519 415 550 c 128,-1,5
 409 581 409 581 396.5 599.5 c 128,-1,6
 384 618 384 618 365 626 c 128,-1,7
 346 634 346 634 319 634 c 0,8,9
 286 634 286 634 262 621 c 128,-1,10
 238 608 238 608 221 576 c 128,-1,11
 204 544 204 544 193 490 c 128,-1,12
 182 436 182 436 174 353 c 0,13,14
 174 347 174 347 173 330 c 128,-1,15
 172 313 172 313 171 294 c 128,-1,16
 170 275 170 275 169 259 c 128,-1,17
 168 243 168 243 168 238 c 0,18,19
 168 144 168 144 192 105 c 128,-1,20
 216 66 216 66 269 66 c 0,21,22
 303 66 303 66 327 80.5 c 128,-1,23
 351 95 351 95 368.5 129 c 128,-1,24
 386 163 386 163 396.5 217.5 c 128,-1,25
 407 272 407 272 414 353 c 0,0,1
504 358 m 0,26,27
 496 266 496 266 481 197.5 c 128,-1,28
 466 129 466 129 439 83.5 c 128,-1,29
 412 38 412 38 369.5 15.5 c 128,-1,30
 327 -7 327 -7 263 -7 c 0,31,32
 211 -7 211 -7 176 9.5 c 128,-1,33
 141 26 141 26 120 59.5 c 128,-1,34
 99 93 99 93 90 143.5 c 128,-1,35
 81 194 81 194 81 261 c 0,36,37
 81 266 81 266 81.5 279.5 c 128,-1,38
 82 293 82 293 83 309 c 128,-1,39
 84 325 84 325 85 339 c 128,-1,40
 86 353 86 353 86 358 c 0,41,42
 94 446 94 446 108 511.5 c 128,-1,43
 122 577 122 577 149 620.5 c 128,-1,44
 176 664 176 664 218.5 685.5 c 128,-1,45
 261 707 261 707 325 707 c 0,46,47
 427 707 427 707 468 646 c 128,-1,48
 509 585 509 585 509 461 c 0,49,50
 509 437 509 437 507.5 411.5 c 128,-1,51
 506 386 506 386 504 358 c 0,26,27
198 807 m 1,52,53
 222 826 222 826 244.5 833 c 128,-1,54
 267 840 267 840 287 840 c 0,55,56
 305 840 305 840 318.5 834 c 128,-1,57
 332 828 332 828 345 820.5 c 128,-1,58
 358 813 358 813 370 807 c 128,-1,59
 382 801 382 801 397 801 c 0,60,61
 423 801 423 801 441 810.5 c 128,-1,62
 459 820 459 820 480 837 c 1,63,-1
 474 764 l 1,64,65
 453 745 453 745 432 738 c 128,-1,66
 411 731 411 731 385 731 c 0,67,68
 366 731 366 731 352.5 737 c 128,-1,69
 339 743 339 743 327 750.5 c 128,-1,70
 315 758 315 758 303 764 c 128,-1,71
 291 770 291 770 275 770 c 0,72,73
 249 770 249 770 228.5 759 c 128,-1,74
 208 748 208 748 191 734 c 1,75,-1
 198 807 l 1,52,53
EndSplineSet
Position2: "'cpsp' Capital Spacing in Latin lookup 0 subtable" dx=5 dy=0 dh=10 dv=0
EndChar

StartChar: Scaron
Encoding: 352 352 192
Width: 434
Flags: W
LayerCount: 2
Fore
SplineSet
239 844 m 1,0,-1
 293 777 l 1,1,-1
 359 844 l 1,2,-1
 455 844 l 1,3,-1
 333 729 l 1,4,-1
 245 729 l 1,5,-1
 142 844 l 1,6,-1
 239 844 l 1,0,-1
390 237 m 0,7,8
 390 170 390 170 377 123 c 128,-1,9
 364 76 364 76 337.5 47.5 c 128,-1,10
 311 19 311 19 270.5 6 c 128,-1,11
 230 -7 230 -7 175 -7 c 0,12,13
 145 -7 145 -7 114 -2.5 c 128,-1,14
 83 2 83 2 57 9 c 1,15,-1
 64 83 l 1,16,17
 87 77 87 77 117 71.5 c 128,-1,18
 147 66 147 66 188 66 c 0,19,20
 247 66 247 66 273.5 105 c 128,-1,21
 300 144 300 144 300 225 c 0,22,23
 300 251 300 251 295.5 268.5 c 128,-1,24
 291 286 291 286 282 297 c 128,-1,25
 273 308 273 308 259.5 314.5 c 128,-1,26
 246 321 246 321 229 325 c 0,27,28
 159 340 159 340 125 376 c 128,-1,29
 91 412 91 412 91 484 c 0,30,31
 91 546 91 546 106.5 589 c 128,-1,32
 122 632 122 632 150 658 c 128,-1,33
 178 684 178 684 217 695.5 c 128,-1,34
 256 707 256 707 303 707 c 0,35,36
 332 707 332 707 361 701.5 c 128,-1,37
 390 696 390 696 411 690 c 1,38,-1
 404 617 l 1,39,40
 379 623 379 623 349.5 628.5 c 128,-1,41
 320 634 320 634 290 634 c 0,42,43
 268 634 268 634 248 626.5 c 128,-1,44
 228 619 228 619 213 601.5 c 128,-1,45
 198 584 198 584 189 556.5 c 128,-1,46
 180 529 180 529 180 490 c 0,47,48
 180 450 180 450 195 433 c 128,-1,49
 210 416 210 416 249 408 c 0,50,51
 281 401 281 401 307 389.5 c 128,-1,52
 333 378 333 378 351.5 358.5 c 128,-1,53
 370 339 370 339 380 309.5 c 128,-1,54
 390 280 390 280 390 237 c 0,7,8
EndSplineSet
Position2: "'cpsp' Capital Spacing in Latin lookup 0 subtable" dx=5 dy=0 dh=10 dv=0
EndChar

StartChar: Uacute
Encoding: 218 218 193
Width: 535
Flags: W
LayerCount: 2
Fore
SplineSet
259 726 m 1,0,-1
 373 841 l 1,1,-1
 484 841 l 1,2,-1
 342 726 l 1,3,-1
 259 726 l 1,0,-1
461 185 m 2,4,5
 452 83 452 83 400 38 c 128,-1,6
 348 -7 348 -7 257 -7 c 0,7,8
 220 -7 220 -7 188.5 2.5 c 128,-1,9
 157 12 157 12 134 32.5 c 128,-1,10
 111 53 111 53 98 84 c 128,-1,11
 85 115 85 115 85 158 c 0,12,13
 85 166 85 166 85.5 177 c 128,-1,14
 86 188 86 188 87 195 c 2,15,-1
 131 700 l 1,16,-1
 218 700 l 1,17,-1
 173 187 l 2,18,19
 172 175 172 175 171.5 165.5 c 128,-1,20
 171 156 171 156 171 152 c 0,21,22
 171 107 171 107 196 86.5 c 128,-1,23
 221 66 221 66 263 66 c 0,24,25
 308 66 308 66 337.5 89.5 c 128,-1,26
 367 113 367 113 372 166 c 2,27,-1
 419 700 l 1,28,-1
 506 700 l 1,29,-1
 461 185 l 2,4,5
EndSplineSet
Position2: "'cpsp' Capital Spacing in Latin lookup 0 subtable" dx=5 dy=0 dh=10 dv=0
EndChar

StartChar: Ucircumflex
Encoding: 219 219 194
Width: 535
Flags: W
LayerCount: 2
Fore
SplineSet
382 730 m 1,0,-1
 328 794 l 1,1,-1
 262 730 l 1,2,-1
 166 730 l 1,3,-1
 286 845 l 1,4,-1
 378 845 l 1,5,-1
 479 730 l 1,6,-1
 382 730 l 1,0,-1
461 185 m 2,7,8
 452 83 452 83 400 38 c 128,-1,9
 348 -7 348 -7 257 -7 c 0,10,11
 220 -7 220 -7 188.5 2.5 c 128,-1,12
 157 12 157 12 134 32.5 c 128,-1,13
 111 53 111 53 98 84 c 128,-1,14
 85 115 85 115 85 158 c 0,15,16
 85 166 85 166 85.5 177 c 128,-1,17
 86 188 86 188 87 195 c 2,18,-1
 131 700 l 1,19,-1
 218 700 l 1,20,-1
 173 187 l 2,21,22
 172 175 172 175 171.5 165.5 c 128,-1,23
 171 156 171 156 171 152 c 0,24,25
 171 107 171 107 196 86.5 c 128,-1,26
 221 66 221 66 263 66 c 0,27,28
 308 66 308 66 337.5 89.5 c 128,-1,29
 367 113 367 113 372 166 c 2,30,-1
 419 700 l 1,31,-1
 506 700 l 1,32,-1
 461 185 l 2,7,8
EndSplineSet
Position2: "'cpsp' Capital Spacing in Latin lookup 0 subtable" dx=5 dy=0 dh=10 dv=0
EndChar

StartChar: Udieresis
Encoding: 220 220 195
Width: 535
Flags: W
LayerCount: 2
Fore
SplineSet
381 735 m 1,0,-1
 388 815 l 1,1,-1
 473 815 l 1,2,-1
 466 735 l 1,3,-1
 381 735 l 1,0,-1
181 735 m 1,4,-1
 188 815 l 1,5,-1
 273 815 l 1,6,-1
 266 735 l 1,7,-1
 181 735 l 1,4,-1
461 185 m 2,8,9
 452 83 452 83 400 38 c 128,-1,10
 348 -7 348 -7 257 -7 c 0,11,12
 220 -7 220 -7 188.5 2.5 c 128,-1,13
 157 12 157 12 134 32.5 c 128,-1,14
 111 53 111 53 98 84 c 128,-1,15
 85 115 85 115 85 158 c 0,16,17
 85 166 85 166 85.5 177 c 128,-1,18
 86 188 86 188 87 195 c 2,19,-1
 131 700 l 1,20,-1
 218 700 l 1,21,-1
 173 187 l 2,22,23
 172 175 172 175 171.5 165.5 c 128,-1,24
 171 156 171 156 171 152 c 0,25,26
 171 107 171 107 196 86.5 c 128,-1,27
 221 66 221 66 263 66 c 0,28,29
 308 66 308 66 337.5 89.5 c 128,-1,30
 367 113 367 113 372 166 c 2,31,-1
 419 700 l 1,32,-1
 506 700 l 1,33,-1
 461 185 l 2,8,9
EndSplineSet
Position2: "'cpsp' Capital Spacing in Latin lookup 0 subtable" dx=5 dy=0 dh=10 dv=0
EndChar

StartChar: Ugrave
Encoding: 217 217 196
Width: 535
Flags: W
LayerCount: 2
Fore
SplineSet
306 726 m 1,0,-1
 184 841 l 1,1,-1
 295 841 l 1,2,-1
 389 726 l 1,3,-1
 306 726 l 1,0,-1
461 185 m 2,4,5
 452 83 452 83 400 38 c 128,-1,6
 348 -7 348 -7 257 -7 c 0,7,8
 220 -7 220 -7 188.5 2.5 c 128,-1,9
 157 12 157 12 134 32.5 c 128,-1,10
 111 53 111 53 98 84 c 128,-1,11
 85 115 85 115 85 158 c 0,12,13
 85 166 85 166 85.5 177 c 128,-1,14
 86 188 86 188 87 195 c 2,15,-1
 131 700 l 1,16,-1
 218 700 l 1,17,-1
 173 187 l 2,18,19
 172 175 172 175 171.5 165.5 c 128,-1,20
 171 156 171 156 171 152 c 0,21,22
 171 107 171 107 196 86.5 c 128,-1,23
 221 66 221 66 263 66 c 0,24,25
 308 66 308 66 337.5 89.5 c 128,-1,26
 367 113 367 113 372 166 c 2,27,-1
 419 700 l 1,28,-1
 506 700 l 1,29,-1
 461 185 l 2,4,5
EndSplineSet
Position2: "'cpsp' Capital Spacing in Latin lookup 0 subtable" dx=5 dy=0 dh=10 dv=0
EndChar

StartChar: Yacute
Encoding: 221 221 197
Width: 491
Flags: W
LayerCount: 2
Fore
SplineSet
239 726 m 1,0,-1
 353 841 l 1,1,-1
 464 841 l 1,2,-1
 322 726 l 1,3,-1
 239 726 l 1,0,-1
307 325 m 1,4,-1
 279 0 l 1,5,-1
 189 0 l 1,6,-1
 217 325 l 1,7,-1
 71 700 l 1,8,-1
 165 700 l 1,9,-1
 271 409 l 1,10,-1
 429 700 l 1,11,-1
 522 700 l 1,12,-1
 307 325 l 1,4,-1
EndSplineSet
Position2: "'cpsp' Capital Spacing in Latin lookup 0 subtable" dx=5 dy=0 dh=10 dv=0
EndChar

StartChar: Ydieresis
Encoding: 376 376 198
Width: 491
Flags: W
LayerCount: 2
Fore
SplineSet
307 325 m 1,0,-1
 279 0 l 1,1,-1
 189 0 l 1,2,-1
 217 325 l 1,3,-1
 71 700 l 1,4,-1
 165 700 l 1,5,-1
 271 409 l 1,6,-1
 429 700 l 1,7,-1
 522 700 l 1,8,-1
 307 325 l 1,0,-1
361 735 m 1,9,-1
 368 815 l 1,10,-1
 453 815 l 1,11,-1
 446 735 l 1,12,-1
 361 735 l 1,9,-1
161 735 m 1,13,-1
 168 815 l 1,14,-1
 253 815 l 1,15,-1
 246 735 l 1,16,-1
 161 735 l 1,13,-1
EndSplineSet
Position2: "'cpsp' Capital Spacing in Latin lookup 0 subtable" dx=5 dy=0 dh=10 dv=0
EndChar

StartChar: Zcaron
Encoding: 381 381 199
Width: 436
Flags: W
LayerCount: 2
Fore
SplineSet
232 844 m 1,0,-1
 286 777 l 1,1,-1
 352 844 l 1,2,-1
 448 844 l 1,3,-1
 326 729 l 1,4,-1
 238 729 l 1,5,-1
 135 844 l 1,6,-1
 232 844 l 1,0,-1
131 74 m 1,7,-1
 377 74 l 1,8,-1
 371 0 l 1,9,-1
 35 0 l 1,10,-1
 42 88 l 1,11,-1
 346 626 l 1,12,-1
 112 626 l 1,13,-1
 119 700 l 1,14,-1
 442 700 l 1,15,-1
 434 612 l 1,16,-1
 131 74 l 1,7,-1
EndSplineSet
Position2: "'cpsp' Capital Spacing in Latin lookup 0 subtable" dx=5 dy=0 dh=10 dv=0
EndChar

StartChar: aacute
Encoding: 225 225 200
Width: 498
Flags: W
LayerCount: 2
Fore
SplineSet
74 228 m 0,0,1
 81 302 81 302 98 355 c 128,-1,2
 115 408 115 408 144 441.5 c 128,-1,3
 173 475 173 475 215 491 c 128,-1,4
 257 507 257 507 314 507 c 0,5,6
 328 507 328 507 345.5 505 c 128,-1,7
 363 503 363 503 380.5 500 c 128,-1,8
 398 497 398 497 414 493 c 128,-1,9
 430 489 430 489 442 485 c 1,10,-1
 410 136 l 2,11,12
 410 134 410 134 409 125.5 c 128,-1,13
 408 117 408 117 408 103 c 0,14,15
 408 65 408 65 447 65 c 1,16,-1
 442 0 l 1,17,-1
 423 0 l 2,18,19
 391 0 391 0 368.5 15 c 128,-1,20
 346 30 346 30 337 62 c 1,21,22
 317 32 317 32 284 12.5 c 128,-1,23
 251 -7 251 -7 199 -7 c 0,24,25
 129 -7 129 -7 100 39 c 128,-1,26
 71 85 71 85 71 170 c 0,27,28
 71 198 71 198 74 228 c 0,0,1
221 65 m 0,29,30
 247 65 247 65 266 74.5 c 128,-1,31
 285 84 285 84 298.5 99 c 128,-1,32
 312 114 312 114 319 133 c 128,-1,33
 326 152 326 152 328 172 c 2,34,-1
 351 431 l 1,35,36
 341 433 341 433 328 434 c 128,-1,37
 315 435 315 435 297 435 c 0,38,39
 158 435 158 435 158 163 c 0,40,41
 158 113 158 113 172 89 c 128,-1,42
 186 65 186 65 221 65 c 0,29,30
256 580 m 1,43,-1
 372 715 l 1,44,-1
 481 715 l 1,45,-1
 342 580 l 1,46,-1
 256 580 l 1,43,-1
EndSplineSet
EndChar

StartChar: acircumflex
Encoding: 226 226 201
Width: 498
Flags: W
LayerCount: 2
Fore
SplineSet
74 228 m 0,0,1
 81 302 81 302 98 355 c 128,-1,2
 115 408 115 408 144 441.5 c 128,-1,3
 173 475 173 475 215 491 c 128,-1,4
 257 507 257 507 314 507 c 0,5,6
 328 507 328 507 345.5 505 c 128,-1,7
 363 503 363 503 380.5 500 c 128,-1,8
 398 497 398 497 414 493 c 128,-1,9
 430 489 430 489 442 485 c 1,10,-1
 410 136 l 2,11,12
 410 134 410 134 409 125.5 c 128,-1,13
 408 117 408 117 408 103 c 0,14,15
 408 65 408 65 447 65 c 1,16,-1
 442 0 l 1,17,-1
 423 0 l 2,18,19
 391 0 391 0 368.5 15 c 128,-1,20
 346 30 346 30 337 62 c 1,21,22
 317 32 317 32 284 12.5 c 128,-1,23
 251 -7 251 -7 199 -7 c 0,24,25
 129 -7 129 -7 100 39 c 128,-1,26
 71 85 71 85 71 170 c 0,27,28
 71 198 71 198 74 228 c 0,0,1
221 65 m 0,29,30
 247 65 247 65 266 74.5 c 128,-1,31
 285 84 285 84 298.5 99 c 128,-1,32
 312 114 312 114 319 133 c 128,-1,33
 326 152 326 152 328 172 c 2,34,-1
 351 431 l 1,35,36
 341 433 341 433 328 434 c 128,-1,37
 315 435 315 435 297 435 c 0,38,39
 158 435 158 435 158 163 c 0,40,41
 158 113 158 113 172 89 c 128,-1,42
 186 65 186 65 221 65 c 0,29,30
379 580 m 1,43,-1
 327 664 l 1,44,-1
 259 580 l 1,45,-1
 163 580 l 1,46,-1
 287 715 l 1,47,-1
 375 715 l 1,48,-1
 476 580 l 1,49,-1
 379 580 l 1,43,-1
EndSplineSet
EndChar

StartChar: adieresis
Encoding: 228 228 202
Width: 498
Flags: W
LayerCount: 2
Fore
SplineSet
74 228 m 0,0,1
 81 302 81 302 98 355 c 128,-1,2
 115 408 115 408 144 441.5 c 128,-1,3
 173 475 173 475 215 491 c 128,-1,4
 257 507 257 507 314 507 c 0,5,6
 328 507 328 507 345.5 505 c 128,-1,7
 363 503 363 503 380.5 500 c 128,-1,8
 398 497 398 497 414 493 c 128,-1,9
 430 489 430 489 442 485 c 1,10,-1
 410 136 l 2,11,12
 410 134 410 134 409 125.5 c 128,-1,13
 408 117 408 117 408 103 c 0,14,15
 408 65 408 65 447 65 c 1,16,-1
 442 0 l 1,17,-1
 423 0 l 2,18,19
 391 0 391 0 368.5 15 c 128,-1,20
 346 30 346 30 337 62 c 1,21,22
 317 32 317 32 284 12.5 c 128,-1,23
 251 -7 251 -7 199 -7 c 0,24,25
 129 -7 129 -7 100 39 c 128,-1,26
 71 85 71 85 71 170 c 0,27,28
 71 198 71 198 74 228 c 0,0,1
221 65 m 0,29,30
 247 65 247 65 266 74.5 c 128,-1,31
 285 84 285 84 298.5 99 c 128,-1,32
 312 114 312 114 319 133 c 128,-1,33
 326 152 326 152 328 172 c 2,34,-1
 351 431 l 1,35,36
 341 433 341 433 328 434 c 128,-1,37
 315 435 315 435 297 435 c 0,38,39
 158 435 158 435 158 163 c 0,40,41
 158 113 158 113 172 89 c 128,-1,42
 186 65 186 65 221 65 c 0,29,30
373 595 m 1,43,-1
 380 675 l 1,44,-1
 465 675 l 1,45,-1
 458 595 l 1,46,-1
 373 595 l 1,43,-1
173 595 m 1,47,-1
 180 675 l 1,48,-1
 265 675 l 1,49,-1
 258 595 l 1,50,-1
 173 595 l 1,47,-1
EndSplineSet
EndChar

StartChar: agrave
Encoding: 224 224 203
Width: 498
Flags: W
LayerCount: 2
Fore
SplineSet
74 228 m 0,0,1
 81 302 81 302 98 355 c 128,-1,2
 115 408 115 408 144 441.5 c 128,-1,3
 173 475 173 475 215 491 c 128,-1,4
 257 507 257 507 314 507 c 0,5,6
 328 507 328 507 345.5 505 c 128,-1,7
 363 503 363 503 380.5 500 c 128,-1,8
 398 497 398 497 414 493 c 128,-1,9
 430 489 430 489 442 485 c 1,10,-1
 410 136 l 2,11,12
 410 134 410 134 409 125.5 c 128,-1,13
 408 117 408 117 408 103 c 0,14,15
 408 65 408 65 447 65 c 1,16,-1
 442 0 l 1,17,-1
 423 0 l 2,18,19
 391 0 391 0 368.5 15 c 128,-1,20
 346 30 346 30 337 62 c 1,21,22
 317 32 317 32 284 12.5 c 128,-1,23
 251 -7 251 -7 199 -7 c 0,24,25
 129 -7 129 -7 100 39 c 128,-1,26
 71 85 71 85 71 170 c 0,27,28
 71 198 71 198 74 228 c 0,0,1
221 65 m 0,29,30
 247 65 247 65 266 74.5 c 128,-1,31
 285 84 285 84 298.5 99 c 128,-1,32
 312 114 312 114 319 133 c 128,-1,33
 326 152 326 152 328 172 c 2,34,-1
 351 431 l 1,35,36
 341 433 341 433 328 434 c 128,-1,37
 315 435 315 435 297 435 c 0,38,39
 158 435 158 435 158 163 c 0,40,41
 158 113 158 113 172 89 c 128,-1,42
 186 65 186 65 221 65 c 0,29,30
319 580 m 1,43,-1
 194 715 l 1,44,-1
 303 715 l 1,45,-1
 395 580 l 1,46,-1
 319 580 l 1,43,-1
EndSplineSet
EndChar

StartChar: aring
Encoding: 229 229 204
Width: 498
Flags: W
LayerCount: 2
Fore
SplineSet
74 228 m 0,0,1
 81 302 81 302 98 355 c 128,-1,2
 115 408 115 408 144 441.5 c 128,-1,3
 173 475 173 475 215 491 c 128,-1,4
 257 507 257 507 314 507 c 0,5,6
 328 507 328 507 345.5 505 c 128,-1,7
 363 503 363 503 380.5 500 c 128,-1,8
 398 497 398 497 414 493 c 128,-1,9
 430 489 430 489 442 485 c 1,10,-1
 410 136 l 2,11,12
 410 134 410 134 409 125.5 c 128,-1,13
 408 117 408 117 408 103 c 0,14,15
 408 65 408 65 447 65 c 1,16,-1
 442 0 l 1,17,-1
 423 0 l 2,18,19
 391 0 391 0 368.5 15 c 128,-1,20
 346 30 346 30 337 62 c 1,21,22
 317 32 317 32 284 12.5 c 128,-1,23
 251 -7 251 -7 199 -7 c 0,24,25
 129 -7 129 -7 100 39 c 128,-1,26
 71 85 71 85 71 170 c 0,27,28
 71 198 71 198 74 228 c 0,0,1
221 65 m 0,29,30
 247 65 247 65 266 74.5 c 128,-1,31
 285 84 285 84 298.5 99 c 128,-1,32
 312 114 312 114 319 133 c 128,-1,33
 326 152 326 152 328 172 c 2,34,-1
 351 431 l 1,35,36
 341 433 341 433 328 434 c 128,-1,37
 315 435 315 435 297 435 c 0,38,39
 158 435 158 435 158 163 c 0,40,41
 158 113 158 113 172 89 c 128,-1,42
 186 65 186 65 221 65 c 0,29,30
405 645 m 0,43,44
 401 601 401 601 374.5 572 c 128,-1,45
 348 543 348 543 300 543 c 0,46,47
 262 543 262 543 238.5 569.5 c 128,-1,48
 215 596 215 596 215 634 c 0,49,50
 215 682 215 682 242 714.5 c 128,-1,51
 269 747 269 747 318 747 c 0,52,53
 359 747 359 747 382.5 722 c 128,-1,54
 406 697 406 697 406 657 c 0,55,56
 406 654 406 654 405.5 651 c 128,-1,57
 405 648 405 648 405 645 c 0,43,44
347 655 m 2,58,59
 347 672 347 672 340 683.5 c 128,-1,60
 333 695 333 695 313 695 c 0,61,62
 289 695 289 695 280.5 677 c 128,-1,63
 272 659 272 659 272 639 c 0,64,65
 272 623 272 623 278.5 610 c 128,-1,66
 285 597 285 597 305 597 c 0,67,68
 330 597 330 597 337.5 612 c 128,-1,69
 345 627 345 627 347 646 c 1,70,-1
 347 655 l 2,58,59
EndSplineSet
EndChar

StartChar: atilde
Encoding: 227 227 205
Width: 498
Flags: W
LayerCount: 2
Fore
SplineSet
74 228 m 0,0,1
 81 302 81 302 98 355 c 128,-1,2
 115 408 115 408 144 441.5 c 128,-1,3
 173 475 173 475 215 491 c 128,-1,4
 257 507 257 507 314 507 c 0,5,6
 328 507 328 507 345.5 505 c 128,-1,7
 363 503 363 503 380.5 500 c 128,-1,8
 398 497 398 497 414 493 c 128,-1,9
 430 489 430 489 442 485 c 1,10,-1
 410 136 l 2,11,12
 410 134 410 134 409 125.5 c 128,-1,13
 408 117 408 117 408 103 c 0,14,15
 408 65 408 65 447 65 c 1,16,-1
 442 0 l 1,17,-1
 423 0 l 2,18,19
 391 0 391 0 368.5 15 c 128,-1,20
 346 30 346 30 337 62 c 1,21,22
 317 32 317 32 284 12.5 c 128,-1,23
 251 -7 251 -7 199 -7 c 0,24,25
 129 -7 129 -7 100 39 c 128,-1,26
 71 85 71 85 71 170 c 0,27,28
 71 198 71 198 74 228 c 0,0,1
221 65 m 0,29,30
 247 65 247 65 266 74.5 c 128,-1,31
 285 84 285 84 298.5 99 c 128,-1,32
 312 114 312 114 319 133 c 128,-1,33
 326 152 326 152 328 172 c 2,34,-1
 351 431 l 1,35,36
 341 433 341 433 328 434 c 128,-1,37
 315 435 315 435 297 435 c 0,38,39
 158 435 158 435 158 163 c 0,40,41
 158 113 158 113 172 89 c 128,-1,42
 186 65 186 65 221 65 c 0,29,30
183 667 m 1,43,44
 207 686 207 686 229.5 693 c 128,-1,45
 252 700 252 700 272 700 c 0,46,47
 290 700 290 700 303.5 694 c 128,-1,48
 317 688 317 688 330 680.5 c 128,-1,49
 343 673 343 673 355 667 c 128,-1,50
 367 661 367 661 382 661 c 0,51,52
 408 661 408 661 426 670.5 c 128,-1,53
 444 680 444 680 465 697 c 1,54,-1
 459 624 l 1,55,56
 438 605 438 605 417 598 c 128,-1,57
 396 591 396 591 370 591 c 0,58,59
 351 591 351 591 337.5 597 c 128,-1,60
 324 603 324 603 312 610.5 c 128,-1,61
 300 618 300 618 288 624 c 128,-1,62
 276 630 276 630 260 630 c 0,63,64
 234 630 234 630 213.5 619 c 128,-1,65
 193 608 193 608 176 594 c 1,66,-1
 183 667 l 1,43,44
EndSplineSet
EndChar

StartChar: ccedilla
Encoding: 231 231 206
Width: 404
Flags: W
LayerCount: 2
Fore
SplineSet
142 -131 m 1,0,1
 156 -134 156 -134 170.5 -135.5 c 128,-1,2
 185 -137 185 -137 196 -137 c 0,3,4
 217 -137 217 -137 228 -130.5 c 128,-1,5
 239 -124 239 -124 239 -103 c 0,6,7
 239 -89 239 -89 223.5 -82.5 c 128,-1,8
 208 -76 208 -76 161 -76 c 1,9,-1
 179 -3 l 1,10,11
 153 1 153 1 133.5 12 c 128,-1,12
 114 23 114 23 100.5 44 c 128,-1,13
 87 65 87 65 80 98 c 128,-1,14
 73 131 73 131 73 179 c 0,15,16
 73 269 73 269 85.5 331.5 c 128,-1,17
 98 394 98 394 122.5 433 c 128,-1,18
 147 472 147 472 184.5 489.5 c 128,-1,19
 222 507 222 507 273 507 c 0,20,21
 298 507 298 507 329 501.5 c 128,-1,22
 360 496 360 496 381 491 c 1,23,-1
 375 416 l 1,24,25
 349 423 349 423 323 427.5 c 128,-1,26
 297 432 297 432 260 432 c 0,27,28
 238 432 238 432 222 423 c 128,-1,29
 206 414 206 414 194 391.5 c 128,-1,30
 182 369 182 369 174.5 332.5 c 128,-1,31
 167 296 167 296 162 240 c 0,32,33
 159 204 159 204 159 178 c 0,34,35
 159 142 159 142 164 120.5 c 128,-1,36
 169 99 169 99 178 87.5 c 128,-1,37
 187 76 187 76 200 72 c 128,-1,38
 213 68 213 68 229 68 c 0,39,40
 267 68 267 68 295 74 c 128,-1,41
 323 80 323 80 346 85 c 1,42,-1
 339 10 l 1,43,44
 318 4 318 4 293 -0.5 c 128,-1,45
 268 -5 268 -5 243 -7 c 1,46,-1
 239 -27 l 1,47,48
 281 -32 281 -32 298.5 -48.5 c 128,-1,49
 316 -65 316 -65 316 -97 c 0,50,51
 316 -151 316 -151 283 -175.5 c 128,-1,52
 250 -200 250 -200 199 -200 c 0,53,54
 181 -200 181 -200 166 -198 c 128,-1,55
 151 -196 151 -196 136 -193 c 1,56,-1
 142 -131 l 1,0,1
EndSplineSet
EndChar

StartChar: eacute
Encoding: 233 233 207
Width: 456
Flags: W
LayerCount: 2
Fore
SplineSet
426 370 m 0,0,1
 426 282 426 282 373 243 c 128,-1,2
 320 204 320 204 231 204 c 0,3,4
 211 204 211 204 194.5 205 c 128,-1,5
 178 206 178 206 157 208 c 1,6,-1
 157 172 l 2,7,8
 157 138 157 138 163.5 116.5 c 128,-1,9
 170 95 170 95 180.5 84 c 128,-1,10
 191 73 191 73 204 69 c 128,-1,11
 217 65 217 65 231 65 c 0,12,13
 280 65 280 65 312 71 c 128,-1,14
 344 77 344 77 367 82 c 1,15,-1
 360 10 l 1,16,17
 348 7 348 7 332 3.5 c 128,-1,18
 316 0 316 0 299 -2 c 128,-1,19
 282 -4 282 -4 265.5 -5.5 c 128,-1,20
 249 -7 249 -7 235 -7 c 0,21,22
 199 -7 199 -7 169.5 0 c 128,-1,23
 140 7 140 7 118.5 27 c 128,-1,24
 97 47 97 47 85 83.5 c 128,-1,25
 73 120 73 120 73 179 c 0,26,27
 73 269 73 269 86.5 331.5 c 128,-1,28
 100 394 100 394 126 433 c 128,-1,29
 152 472 152 472 189.5 489.5 c 128,-1,30
 227 507 227 507 274 507 c 0,31,32
 316 507 316 507 345 495.5 c 128,-1,33
 374 484 374 484 392 464.5 c 128,-1,34
 410 445 410 445 418 420.5 c 128,-1,35
 426 396 426 396 426 370 c 0,0,1
273 436 m 0,36,37
 251 436 251 436 232.5 428 c 128,-1,38
 214 420 214 420 200 401.5 c 128,-1,39
 186 383 186 383 176.5 352.5 c 128,-1,40
 167 322 167 322 162 277 c 1,41,42
 177 275 177 275 189.5 274.5 c 128,-1,43
 202 274 202 274 216 274 c 0,44,45
 286 274 286 274 316 295 c 128,-1,46
 346 316 346 316 346 366 c 0,47,48
 346 380 346 380 343 393 c 128,-1,49
 340 406 340 406 332 415.5 c 128,-1,50
 324 425 324 425 310 430.5 c 128,-1,51
 296 436 296 436 273 436 c 0,36,37
222 580 m 1,52,-1
 338 715 l 1,53,-1
 447 715 l 1,54,-1
 308 580 l 1,55,-1
 222 580 l 1,52,-1
EndSplineSet
EndChar

StartChar: ecircumflex
Encoding: 234 234 208
Width: 456
Flags: W
LayerCount: 2
Fore
SplineSet
426 370 m 0,0,1
 426 282 426 282 373 243 c 128,-1,2
 320 204 320 204 231 204 c 0,3,4
 211 204 211 204 194.5 205 c 128,-1,5
 178 206 178 206 157 208 c 1,6,-1
 157 172 l 2,7,8
 157 138 157 138 163.5 116.5 c 128,-1,9
 170 95 170 95 180.5 84 c 128,-1,10
 191 73 191 73 204 69 c 128,-1,11
 217 65 217 65 231 65 c 0,12,13
 280 65 280 65 312 71 c 128,-1,14
 344 77 344 77 367 82 c 1,15,-1
 360 10 l 1,16,17
 348 7 348 7 332 3.5 c 128,-1,18
 316 0 316 0 299 -2 c 128,-1,19
 282 -4 282 -4 265.5 -5.5 c 128,-1,20
 249 -7 249 -7 235 -7 c 0,21,22
 199 -7 199 -7 169.5 0 c 128,-1,23
 140 7 140 7 118.5 27 c 128,-1,24
 97 47 97 47 85 83.5 c 128,-1,25
 73 120 73 120 73 179 c 0,26,27
 73 269 73 269 86.5 331.5 c 128,-1,28
 100 394 100 394 126 433 c 128,-1,29
 152 472 152 472 189.5 489.5 c 128,-1,30
 227 507 227 507 274 507 c 0,31,32
 316 507 316 507 345 495.5 c 128,-1,33
 374 484 374 484 392 464.5 c 128,-1,34
 410 445 410 445 418 420.5 c 128,-1,35
 426 396 426 396 426 370 c 0,0,1
273 436 m 0,36,37
 251 436 251 436 232.5 428 c 128,-1,38
 214 420 214 420 200 401.5 c 128,-1,39
 186 383 186 383 176.5 352.5 c 128,-1,40
 167 322 167 322 162 277 c 1,41,42
 177 275 177 275 189.5 274.5 c 128,-1,43
 202 274 202 274 216 274 c 0,44,45
 286 274 286 274 316 295 c 128,-1,46
 346 316 346 316 346 366 c 0,47,48
 346 380 346 380 343 393 c 128,-1,49
 340 406 340 406 332 415.5 c 128,-1,50
 324 425 324 425 310 430.5 c 128,-1,51
 296 436 296 436 273 436 c 0,36,37
347 580 m 1,52,-1
 295 664 l 1,53,-1
 227 580 l 1,54,-1
 131 580 l 1,55,-1
 255 715 l 1,56,-1
 343 715 l 1,57,-1
 444 580 l 1,58,-1
 347 580 l 1,52,-1
EndSplineSet
EndChar

StartChar: edieresis
Encoding: 235 235 209
Width: 456
Flags: W
LayerCount: 2
Fore
SplineSet
426 370 m 0,0,1
 426 282 426 282 373 243 c 128,-1,2
 320 204 320 204 231 204 c 0,3,4
 211 204 211 204 194.5 205 c 128,-1,5
 178 206 178 206 157 208 c 1,6,-1
 157 172 l 2,7,8
 157 138 157 138 163.5 116.5 c 128,-1,9
 170 95 170 95 180.5 84 c 128,-1,10
 191 73 191 73 204 69 c 128,-1,11
 217 65 217 65 231 65 c 0,12,13
 280 65 280 65 312 71 c 128,-1,14
 344 77 344 77 367 82 c 1,15,-1
 360 10 l 1,16,17
 348 7 348 7 332 3.5 c 128,-1,18
 316 0 316 0 299 -2 c 128,-1,19
 282 -4 282 -4 265.5 -5.5 c 128,-1,20
 249 -7 249 -7 235 -7 c 0,21,22
 199 -7 199 -7 169.5 0 c 128,-1,23
 140 7 140 7 118.5 27 c 128,-1,24
 97 47 97 47 85 83.5 c 128,-1,25
 73 120 73 120 73 179 c 0,26,27
 73 269 73 269 86.5 331.5 c 128,-1,28
 100 394 100 394 126 433 c 128,-1,29
 152 472 152 472 189.5 489.5 c 128,-1,30
 227 507 227 507 274 507 c 0,31,32
 316 507 316 507 345 495.5 c 128,-1,33
 374 484 374 484 392 464.5 c 128,-1,34
 410 445 410 445 418 420.5 c 128,-1,35
 426 396 426 396 426 370 c 0,0,1
273 436 m 0,36,37
 251 436 251 436 232.5 428 c 128,-1,38
 214 420 214 420 200 401.5 c 128,-1,39
 186 383 186 383 176.5 352.5 c 128,-1,40
 167 322 167 322 162 277 c 1,41,42
 177 275 177 275 189.5 274.5 c 128,-1,43
 202 274 202 274 216 274 c 0,44,45
 286 274 286 274 316 295 c 128,-1,46
 346 316 346 316 346 366 c 0,47,48
 346 380 346 380 343 393 c 128,-1,49
 340 406 340 406 332 415.5 c 128,-1,50
 324 425 324 425 310 430.5 c 128,-1,51
 296 436 296 436 273 436 c 0,36,37
349 595 m 1,52,-1
 356 675 l 1,53,-1
 441 675 l 1,54,-1
 434 595 l 1,55,-1
 349 595 l 1,52,-1
149 595 m 1,56,-1
 156 675 l 1,57,-1
 241 675 l 1,58,-1
 234 595 l 1,59,-1
 149 595 l 1,56,-1
EndSplineSet
EndChar

StartChar: egrave
Encoding: 232 232 210
Width: 456
Flags: W
LayerCount: 2
Fore
SplineSet
426 370 m 0,0,1
 426 282 426 282 373 243 c 128,-1,2
 320 204 320 204 231 204 c 0,3,4
 211 204 211 204 194.5 205 c 128,-1,5
 178 206 178 206 157 208 c 1,6,-1
 157 172 l 2,7,8
 157 138 157 138 163.5 116.5 c 128,-1,9
 170 95 170 95 180.5 84 c 128,-1,10
 191 73 191 73 204 69 c 128,-1,11
 217 65 217 65 231 65 c 0,12,13
 280 65 280 65 312 71 c 128,-1,14
 344 77 344 77 367 82 c 1,15,-1
 360 10 l 1,16,17
 348 7 348 7 332 3.5 c 128,-1,18
 316 0 316 0 299 -2 c 128,-1,19
 282 -4 282 -4 265.5 -5.5 c 128,-1,20
 249 -7 249 -7 235 -7 c 0,21,22
 199 -7 199 -7 169.5 0 c 128,-1,23
 140 7 140 7 118.5 27 c 128,-1,24
 97 47 97 47 85 83.5 c 128,-1,25
 73 120 73 120 73 179 c 0,26,27
 73 269 73 269 86.5 331.5 c 128,-1,28
 100 394 100 394 126 433 c 128,-1,29
 152 472 152 472 189.5 489.5 c 128,-1,30
 227 507 227 507 274 507 c 0,31,32
 316 507 316 507 345 495.5 c 128,-1,33
 374 484 374 484 392 464.5 c 128,-1,34
 410 445 410 445 418 420.5 c 128,-1,35
 426 396 426 396 426 370 c 0,0,1
273 436 m 0,36,37
 251 436 251 436 232.5 428 c 128,-1,38
 214 420 214 420 200 401.5 c 128,-1,39
 186 383 186 383 176.5 352.5 c 128,-1,40
 167 322 167 322 162 277 c 1,41,42
 177 275 177 275 189.5 274.5 c 128,-1,43
 202 274 202 274 216 274 c 0,44,45
 286 274 286 274 316 295 c 128,-1,46
 346 316 346 316 346 366 c 0,47,48
 346 380 346 380 343 393 c 128,-1,49
 340 406 340 406 332 415.5 c 128,-1,50
 324 425 324 425 310 430.5 c 128,-1,51
 296 436 296 436 273 436 c 0,36,37
283 580 m 1,52,-1
 158 715 l 1,53,-1
 267 715 l 1,54,-1
 359 580 l 1,55,-1
 283 580 l 1,52,-1
EndSplineSet
EndChar

StartChar: iacute
Encoding: 237 237 211
Width: 245
Flags: W
LayerCount: 2
Fore
SplineSet
70 0 m 1,0,-1
 113 500 l 1,1,-1
 198 500 l 1,2,-1
 155 0 l 1,3,-1
 70 0 l 1,0,-1
95 580 m 1,4,-1
 211 715 l 1,5,-1
 320 715 l 1,6,-1
 181 580 l 1,7,-1
 95 580 l 1,4,-1
EndSplineSet
EndChar

StartChar: icircumflex
Encoding: 238 238 212
Width: 245
Flags: W
LayerCount: 2
Fore
SplineSet
70 0 m 1,0,-1
 113 500 l 1,1,-1
 198 500 l 1,2,-1
 155 0 l 1,3,-1
 70 0 l 1,0,-1
222 580 m 1,4,-1
 170 664 l 1,5,-1
 102 580 l 1,6,-1
 6 580 l 1,7,-1
 130 715 l 1,8,-1
 218 715 l 1,9,-1
 319 580 l 1,10,-1
 222 580 l 1,4,-1
EndSplineSet
EndChar

StartChar: idieresis
Encoding: 239 239 213
Width: 245
Flags: W
LayerCount: 2
Fore
SplineSet
70 0 m 1,0,-1
 113 500 l 1,1,-1
 198 500 l 1,2,-1
 155 0 l 1,3,-1
 70 0 l 1,0,-1
222 595 m 1,4,-1
 229 675 l 1,5,-1
 314 675 l 1,6,-1
 307 595 l 1,7,-1
 222 595 l 1,4,-1
22 595 m 1,8,-1
 29 675 l 1,9,-1
 114 675 l 1,10,-1
 107 595 l 1,11,-1
 22 595 l 1,8,-1
EndSplineSet
EndChar

StartChar: igrave
Encoding: 236 236 214
Width: 245
Flags: W
LayerCount: 2
Fore
SplineSet
70 0 m 1,0,-1
 113 500 l 1,1,-1
 198 500 l 1,2,-1
 155 0 l 1,3,-1
 70 0 l 1,0,-1
153 580 m 1,4,-1
 28 715 l 1,5,-1
 137 715 l 1,6,-1
 229 580 l 1,7,-1
 153 580 l 1,4,-1
EndSplineSet
EndChar

StartChar: ntilde
Encoding: 241 241 215
Width: 506
Flags: W
LayerCount: 2
Fore
SplineSet
70 0 m 1,0,-1
 113 500 l 1,1,-1
 183 500 l 1,2,-1
 184 442 l 1,3,4
 206 472 206 472 237 489.5 c 128,-1,5
 268 507 268 507 314 507 c 0,6,7
 392 507 392 507 421 469.5 c 128,-1,8
 450 432 450 432 450 363 c 0,9,10
 450 353 450 353 449.5 342 c 128,-1,11
 449 331 449 331 448 320 c 2,12,-1
 421 0 l 1,13,-1
 336 0 l 1,14,-1
 363 320 l 2,15,16
 364 328 364 328 365 339.5 c 128,-1,17
 366 351 366 351 366 358 c 0,18,19
 366 392 366 392 351 413.5 c 128,-1,20
 336 435 336 435 292 435 c 0,21,22
 264 435 264 435 243.5 422 c 128,-1,23
 223 409 223 409 209.5 389 c 128,-1,24
 196 369 196 369 189 344 c 128,-1,25
 182 319 182 319 180 296 c 2,26,-1
 155 0 l 1,27,-1
 70 0 l 1,0,-1
182 667 m 1,28,29
 206 686 206 686 228.5 693 c 128,-1,30
 251 700 251 700 271 700 c 0,31,32
 289 700 289 700 302.5 694 c 128,-1,33
 316 688 316 688 329 680.5 c 128,-1,34
 342 673 342 673 354 667 c 128,-1,35
 366 661 366 661 381 661 c 0,36,37
 407 661 407 661 425 670.5 c 128,-1,38
 443 680 443 680 464 697 c 1,39,-1
 458 624 l 1,40,41
 437 605 437 605 416 598 c 128,-1,42
 395 591 395 591 369 591 c 0,43,44
 350 591 350 591 336.5 597 c 128,-1,45
 323 603 323 603 311 610.5 c 128,-1,46
 299 618 299 618 287 624 c 128,-1,47
 275 630 275 630 259 630 c 0,48,49
 233 630 233 630 212.5 619 c 128,-1,50
 192 608 192 608 175 594 c 1,51,-1
 182 667 l 1,28,29
EndSplineSet
EndChar

StartChar: oacute
Encoding: 243 243 216
Width: 510
Flags: W
LayerCount: 2
Fore
SplineSet
459 316 m 0,0,1
 459 150 459 150 408 71.5 c 128,-1,2
 357 -7 357 -7 244 -7 c 0,3,4
 204 -7 204 -7 172.5 2.5 c 128,-1,5
 141 12 141 12 119 35.5 c 128,-1,6
 97 59 97 59 85.5 98 c 128,-1,7
 74 137 74 137 74 196 c 0,8,9
 74 358 74 358 124.5 432.5 c 128,-1,10
 175 507 175 507 289 507 c 0,11,12
 459 507 459 507 459 316 c 0,0,1
369 245 m 0,13,14
 372 284 372 284 372 314 c 0,15,16
 372 382 372 382 352 409.5 c 128,-1,17
 332 437 332 437 283 437 c 0,18,19
 253 437 253 437 232 427 c 128,-1,20
 211 417 211 417 197.5 394.5 c 128,-1,21
 184 372 184 372 176 335 c 128,-1,22
 168 298 168 298 163 245 c 0,23,24
 160 215 160 215 160 190 c 0,25,26
 160 122 160 122 181 92.5 c 128,-1,27
 202 63 202 63 250 63 c 0,28,29
 306 63 306 63 333.5 105.5 c 128,-1,30
 361 148 361 148 369 245 c 0,13,14
227 580 m 1,31,-1
 343 715 l 1,32,-1
 452 715 l 1,33,-1
 313 580 l 1,34,-1
 227 580 l 1,31,-1
EndSplineSet
EndChar

StartChar: ocircumflex
Encoding: 244 244 217
Width: 510
Flags: W
LayerCount: 2
Fore
SplineSet
459 316 m 0,0,1
 459 150 459 150 408 71.5 c 128,-1,2
 357 -7 357 -7 244 -7 c 0,3,4
 204 -7 204 -7 172.5 2.5 c 128,-1,5
 141 12 141 12 119 35.5 c 128,-1,6
 97 59 97 59 85.5 98 c 128,-1,7
 74 137 74 137 74 196 c 0,8,9
 74 358 74 358 124.5 432.5 c 128,-1,10
 175 507 175 507 289 507 c 0,11,12
 459 507 459 507 459 316 c 0,0,1
369 245 m 0,13,14
 372 284 372 284 372 314 c 0,15,16
 372 382 372 382 352 409.5 c 128,-1,17
 332 437 332 437 283 437 c 0,18,19
 253 437 253 437 232 427 c 128,-1,20
 211 417 211 417 197.5 394.5 c 128,-1,21
 184 372 184 372 176 335 c 128,-1,22
 168 298 168 298 163 245 c 0,23,24
 160 215 160 215 160 190 c 0,25,26
 160 122 160 122 181 92.5 c 128,-1,27
 202 63 202 63 250 63 c 0,28,29
 306 63 306 63 333.5 105.5 c 128,-1,30
 361 148 361 148 369 245 c 0,13,14
355 580 m 1,31,-1
 303 664 l 1,32,-1
 235 580 l 1,33,-1
 139 580 l 1,34,-1
 263 715 l 1,35,-1
 351 715 l 1,36,-1
 452 580 l 1,37,-1
 355 580 l 1,31,-1
EndSplineSet
EndChar

StartChar: odieresis
Encoding: 246 246 218
Width: 510
Flags: W
LayerCount: 2
Fore
SplineSet
459 316 m 0,0,1
 459 150 459 150 408 71.5 c 128,-1,2
 357 -7 357 -7 244 -7 c 0,3,4
 204 -7 204 -7 172.5 2.5 c 128,-1,5
 141 12 141 12 119 35.5 c 128,-1,6
 97 59 97 59 85.5 98 c 128,-1,7
 74 137 74 137 74 196 c 0,8,9
 74 358 74 358 124.5 432.5 c 128,-1,10
 175 507 175 507 289 507 c 0,11,12
 459 507 459 507 459 316 c 0,0,1
369 245 m 0,13,14
 372 284 372 284 372 314 c 0,15,16
 372 382 372 382 352 409.5 c 128,-1,17
 332 437 332 437 283 437 c 0,18,19
 253 437 253 437 232 427 c 128,-1,20
 211 417 211 417 197.5 394.5 c 128,-1,21
 184 372 184 372 176 335 c 128,-1,22
 168 298 168 298 163 245 c 0,23,24
 160 215 160 215 160 190 c 0,25,26
 160 122 160 122 181 92.5 c 128,-1,27
 202 63 202 63 250 63 c 0,28,29
 306 63 306 63 333.5 105.5 c 128,-1,30
 361 148 361 148 369 245 c 0,13,14
355 595 m 1,31,-1
 362 675 l 1,32,-1
 447 675 l 1,33,-1
 440 595 l 1,34,-1
 355 595 l 1,31,-1
155 595 m 1,35,-1
 162 675 l 1,36,-1
 247 675 l 1,37,-1
 240 595 l 1,38,-1
 155 595 l 1,35,-1
EndSplineSet
EndChar

StartChar: ograve
Encoding: 242 242 219
Width: 510
Flags: W
LayerCount: 2
Fore
SplineSet
459 316 m 0,0,1
 459 150 459 150 408 71.5 c 128,-1,2
 357 -7 357 -7 244 -7 c 0,3,4
 204 -7 204 -7 172.5 2.5 c 128,-1,5
 141 12 141 12 119 35.5 c 128,-1,6
 97 59 97 59 85.5 98 c 128,-1,7
 74 137 74 137 74 196 c 0,8,9
 74 358 74 358 124.5 432.5 c 128,-1,10
 175 507 175 507 289 507 c 0,11,12
 459 507 459 507 459 316 c 0,0,1
369 245 m 0,13,14
 372 284 372 284 372 314 c 0,15,16
 372 382 372 382 352 409.5 c 128,-1,17
 332 437 332 437 283 437 c 0,18,19
 253 437 253 437 232 427 c 128,-1,20
 211 417 211 417 197.5 394.5 c 128,-1,21
 184 372 184 372 176 335 c 128,-1,22
 168 298 168 298 163 245 c 0,23,24
 160 215 160 215 160 190 c 0,25,26
 160 122 160 122 181 92.5 c 128,-1,27
 202 63 202 63 250 63 c 0,28,29
 306 63 306 63 333.5 105.5 c 128,-1,30
 361 148 361 148 369 245 c 0,13,14
298 580 m 1,31,-1
 173 715 l 1,32,-1
 282 715 l 1,33,-1
 374 580 l 1,34,-1
 298 580 l 1,31,-1
EndSplineSet
EndChar

StartChar: otilde
Encoding: 245 245 220
Width: 510
Flags: W
LayerCount: 2
Fore
SplineSet
459 316 m 0,0,1
 459 150 459 150 408 71.5 c 128,-1,2
 357 -7 357 -7 244 -7 c 0,3,4
 204 -7 204 -7 172.5 2.5 c 128,-1,5
 141 12 141 12 119 35.5 c 128,-1,6
 97 59 97 59 85.5 98 c 128,-1,7
 74 137 74 137 74 196 c 0,8,9
 74 358 74 358 124.5 432.5 c 128,-1,10
 175 507 175 507 289 507 c 0,11,12
 459 507 459 507 459 316 c 0,0,1
369 245 m 0,13,14
 372 284 372 284 372 314 c 0,15,16
 372 382 372 382 352 409.5 c 128,-1,17
 332 437 332 437 283 437 c 0,18,19
 253 437 253 437 232 427 c 128,-1,20
 211 417 211 417 197.5 394.5 c 128,-1,21
 184 372 184 372 176 335 c 128,-1,22
 168 298 168 298 163 245 c 0,23,24
 160 215 160 215 160 190 c 0,25,26
 160 122 160 122 181 92.5 c 128,-1,27
 202 63 202 63 250 63 c 0,28,29
 306 63 306 63 333.5 105.5 c 128,-1,30
 361 148 361 148 369 245 c 0,13,14
168 667 m 1,31,32
 192 686 192 686 214.5 693 c 128,-1,33
 237 700 237 700 257 700 c 0,34,35
 275 700 275 700 288.5 694 c 128,-1,36
 302 688 302 688 315 680.5 c 128,-1,37
 328 673 328 673 340 667 c 128,-1,38
 352 661 352 661 367 661 c 0,39,40
 393 661 393 661 411 670.5 c 128,-1,41
 429 680 429 680 450 697 c 1,42,-1
 444 624 l 1,43,44
 423 605 423 605 402 598 c 128,-1,45
 381 591 381 591 355 591 c 0,46,47
 336 591 336 591 322.5 597 c 128,-1,48
 309 603 309 603 297 610.5 c 128,-1,49
 285 618 285 618 273 624 c 128,-1,50
 261 630 261 630 245 630 c 0,51,52
 219 630 219 630 198.5 619 c 128,-1,53
 178 608 178 608 161 594 c 1,54,-1
 168 667 l 1,31,32
EndSplineSet
EndChar

StartChar: scaron
Encoding: 353 353 221
Width: 402
Flags: W
LayerCount: 2
Fore
SplineSet
355 165 m 0,0,1
 355 76 355 76 312 34.5 c 128,-1,2
 269 -7 269 -7 173 -7 c 0,3,4
 130 -7 130 -7 100.5 -2 c 128,-1,5
 71 3 71 3 54 8 c 1,6,-1
 61 81 l 1,7,8
 70 79 70 79 84 76.5 c 128,-1,9
 98 74 98 74 114.5 71.5 c 128,-1,10
 131 69 131 69 149.5 67 c 128,-1,11
 168 65 168 65 186 65 c 0,12,13
 210 65 210 65 225.5 74 c 128,-1,14
 241 83 241 83 250 96.5 c 128,-1,15
 259 110 259 110 262.5 125.5 c 128,-1,16
 266 141 266 141 266 155 c 0,17,18
 266 182 266 182 253.5 195.5 c 128,-1,19
 241 209 241 209 209 217 c 0,20,21
 140 233 140 233 110 265.5 c 128,-1,22
 80 298 80 298 80 343 c 0,23,24
 80 433 80 433 127.5 470 c 128,-1,25
 175 507 175 507 259 507 c 0,26,27
 296 507 296 507 324.5 501.5 c 128,-1,28
 353 496 353 496 367 492 c 1,29,-1
 361 419 l 1,30,31
 349 422 349 422 337 425 c 128,-1,32
 325 428 325 428 312 430 c 128,-1,33
 299 432 299 432 283.5 433.5 c 128,-1,34
 268 435 268 435 248 435 c 0,35,36
 224 435 224 435 208.5 428 c 128,-1,37
 193 421 193 421 184 409.5 c 128,-1,38
 175 398 175 398 171.5 383.5 c 128,-1,39
 168 369 168 369 168 354 c 0,40,41
 168 330 168 330 182 316.5 c 128,-1,42
 196 303 196 303 227 297 c 0,43,44
 297 283 297 283 326 249.5 c 128,-1,45
 355 216 355 216 355 165 c 0,0,1
204 714 m 1,46,-1
 257 630 l 1,47,-1
 324 714 l 1,48,-1
 420 714 l 1,49,-1
 298 579 l 1,50,-1
 210 579 l 1,51,-1
 107 714 l 1,52,-1
 204 714 l 1,46,-1
EndSplineSet
EndChar

StartChar: uacute
Encoding: 250 250 222
Width: 491
Flags: W
LayerCount: 2
Fore
SplineSet
193 500 m 1,0,-1
 165 170 l 2,1,2
 164 159 164 159 163.5 149.5 c 128,-1,3
 163 140 163 140 163 131 c 0,4,5
 163 102 163 102 175 83.5 c 128,-1,6
 187 65 187 65 227 65 c 0,7,8
 256 65 256 65 276 79 c 128,-1,9
 296 93 296 93 308.5 115 c 128,-1,10
 321 137 321 137 327 162.5 c 128,-1,11
 333 188 333 188 335 211 c 2,12,-1
 359 500 l 1,13,-1
 444 500 l 1,14,-1
 401 0 l 1,15,-1
 331 0 l 1,16,-1
 329 53 l 1,17,18
 309 25 309 25 280 9 c 128,-1,19
 251 -7 251 -7 207 -7 c 0,20,21
 169 -7 169 -7 144.5 2.5 c 128,-1,22
 120 12 120 12 105.5 29.5 c 128,-1,23
 91 47 91 47 85 72.5 c 128,-1,24
 79 98 79 98 79 130 c 0,25,26
 79 142 79 142 79.5 154 c 128,-1,27
 80 166 80 166 81 180 c 2,28,-1
 108 500 l 1,29,-1
 193 500 l 1,0,-1
224 580 m 1,30,-1
 340 715 l 1,31,-1
 449 715 l 1,32,-1
 310 580 l 1,33,-1
 224 580 l 1,30,-1
EndSplineSet
EndChar

StartChar: ucircumflex
Encoding: 251 251 223
Width: 491
Flags: W
LayerCount: 2
Fore
SplineSet
193 500 m 1,0,-1
 165 170 l 2,1,2
 164 159 164 159 163.5 149.5 c 128,-1,3
 163 140 163 140 163 131 c 0,4,5
 163 102 163 102 175 83.5 c 128,-1,6
 187 65 187 65 227 65 c 0,7,8
 256 65 256 65 276 79 c 128,-1,9
 296 93 296 93 308.5 115 c 128,-1,10
 321 137 321 137 327 162.5 c 128,-1,11
 333 188 333 188 335 211 c 2,12,-1
 359 500 l 1,13,-1
 444 500 l 1,14,-1
 401 0 l 1,15,-1
 331 0 l 1,16,-1
 329 53 l 1,17,18
 309 25 309 25 280 9 c 128,-1,19
 251 -7 251 -7 207 -7 c 0,20,21
 169 -7 169 -7 144.5 2.5 c 128,-1,22
 120 12 120 12 105.5 29.5 c 128,-1,23
 91 47 91 47 85 72.5 c 128,-1,24
 79 98 79 98 79 130 c 0,25,26
 79 142 79 142 79.5 154 c 128,-1,27
 80 166 80 166 81 180 c 2,28,-1
 108 500 l 1,29,-1
 193 500 l 1,0,-1
345 580 m 1,30,-1
 293 664 l 1,31,-1
 225 580 l 1,32,-1
 129 580 l 1,33,-1
 253 715 l 1,34,-1
 341 715 l 1,35,-1
 442 580 l 1,36,-1
 345 580 l 1,30,-1
EndSplineSet
EndChar

